M48
;DRILL file {KiCad (5.0.1)-4} date 2/15/2019 6:37:28 PM
;FORMAT={-:-/ absolute / inch / decimal}
FMAT,2
INCH,TZ
T1C0.0276
T2C0.0315
T3C0.0394
%
G90
G05
M72
T1
X1.3Y-4.9
X1.5Y-4.9
X1.3Y-4.8
X1.5Y-4.8
T2
X1.3Y-5.35
X1.3Y-5.4484
X1.8Y-5.0516
X1.8Y-5.15
X1.5Y-5.35
X1.5Y-5.4484
X1.3079Y-5.15
X1.5Y-5.15
T3
X2.Y-4.95
X2.Y-5.05
X2.Y-5.15
X2.Y-5.25
X2.Y-5.35
X1.1Y-3.1
X1.1Y-3.2
X1.1Y-3.3
X1.1Y-3.4
X1.1Y-3.5
X1.1Y-3.6
X1.1Y-3.7
X1.1Y-3.8
X1.1Y-3.9
X1.1Y-4.
X1.1Y-4.1
X1.1Y-4.2
X1.1Y-4.3
X1.1Y-4.4
X1.1Y-4.5
X1.1Y-4.6
X2.3Y-4.95
X2.3Y-5.05
X2.3Y-5.15
X2.3Y-5.25
X2.3Y-5.35
X2.6Y-3.1
X2.6Y-3.2
X2.6Y-3.3
X2.6Y-3.4
X2.6Y-3.5
X2.6Y-3.6
X2.6Y-3.7
X2.6Y-3.8
X2.6Y-3.9
X2.6Y-4.
X2.6Y-4.1
X2.6Y-4.2
X2.6Y-4.3
X2.6Y-4.4
X2.6Y-4.5
X2.6Y-4.6
X2.3Y-3.1
X2.3Y-3.2
X2.3Y-3.3
X2.3Y-3.4
X2.3Y-3.5
X2.3Y-3.6
X2.3Y-3.7
X2.3Y-3.8
X2.3Y-3.9
X2.3Y-4.
X2.3Y-4.1
X2.3Y-4.2
X2.3Y-4.3
X2.3Y-4.4
X2.3Y-4.5
X2.3Y-4.6
X0.8Y-3.1
X0.8Y-3.2
X0.8Y-3.3
X0.8Y-3.4
X0.8Y-3.5
X0.8Y-3.6
X0.8Y-3.7
X0.8Y-3.8
X0.8Y-3.9
X0.8Y-4.
X0.8Y-4.1
X0.8Y-4.2
X0.8Y-4.3
X0.8Y-4.4
X0.8Y-4.5
X0.8Y-4.6
T0
M30
