M48
;DRILL file {KiCad (5.0.1)-4} date 4/11/2019 4:09:23 PM
;FORMAT={-:-/ absolute / inch / decimal}
FMAT,2
INCH,TZ
T1C0.0394
%
G90
G05
M72
T1
X1.8177Y-2.6028
X1.8177Y-2.7012
X2.Y-4.
X2.3Y-4.
X1.8Y-4.2
X2.1Y-4.2
X2.3Y-4.5
X2.3Y-4.6
X2.3Y-4.7
X2.3Y-4.8
X2.3Y-4.9
X2.3Y-5.
X2.1008Y-4.6
X2.1008Y-4.6984
X2.Y-3.9
X2.3Y-3.9
X1.8Y-4.8
X2.1Y-4.8
X2.Y-2.5
X2.Y-2.6
X2.Y-2.7
X1.7Y-3.2
X1.8Y-3.2
X2.2083Y-2.5008
X2.2083Y-2.5992
X2.0949Y-4.9055
X2.0949Y-5.0039
X2.Y-3.8
X2.3Y-3.8
X3.7504Y-4.2693
X3.7504Y-4.3693
X1.7Y-3.1
X1.8Y-3.1
X3.6394Y-4.2689
X3.6394Y-4.3689
X3.6394Y-4.4689
X3.6394Y-4.5689
X3.Y-2.7514
X3.Y-2.8514
X3.Y-2.9514
X3.Y-3.0514
X3.Y-3.1514
X3.Y-3.2514
X3.Y-3.3514
X3.Y-3.4514
X3.Y-3.5514
X3.Y-3.6514
X3.Y-3.7514
X3.Y-3.8514
X3.Y-3.9514
X3.Y-4.0514
X3.Y-4.1514
X3.Y-4.2514
X3.Y-4.3514
X3.Y-4.4514
X3.Y-4.5514
X2.1008Y-4.2976
X2.1008Y-4.3961
X2.Y-3.6
X2.3Y-3.6
X2.9Y-4.9
X3.Y-4.9
X3.1Y-4.9
X3.2Y-4.9
X3.3Y-4.9
X1.7Y-2.6
X1.7Y-2.7
X2.3Y-4.2
X2.3Y-4.3
X2.3Y-4.4
X2.Y-2.9
X2.3Y-2.9
X3.4945Y-2.5429
X3.4945Y-2.6429
X3.4945Y-2.7429
X3.4945Y-2.8429
X3.4945Y-2.9429
X3.4945Y-3.0429
X3.4945Y-3.1429
X3.4945Y-3.2429
X3.4945Y-3.3429
X3.4945Y-3.4429
X3.4945Y-3.5429
X3.4945Y-3.6429
X3.4945Y-3.7429
X3.4945Y-3.8429
X3.4945Y-3.9429
X3.4945Y-4.0429
X2.Y-3.2
X2.3Y-3.2
X3.3394Y-4.2689
X3.3394Y-4.3689
X3.3394Y-4.4689
X3.3394Y-4.5689
X1.7Y-2.9
X1.8Y-2.9
X1.7Y-3.8
X1.8Y-3.8
X3.1Y-2.7514
X3.1Y-2.8514
X3.1Y-2.9514
X3.1Y-3.0514
X3.1Y-3.1514
X3.1Y-3.2514
X3.1Y-3.3514
X3.1Y-3.4514
X3.1Y-3.5514
X3.1Y-3.6514
X3.1Y-3.7514
X3.1Y-3.8514
X3.1Y-3.9514
X3.1Y-4.0514
X3.1Y-4.1514
X3.1Y-4.2514
X3.1Y-4.3514
X3.1Y-4.4514
X3.1Y-4.5514
X2.8Y-3.5
X2.8Y-3.6
X2.8Y-3.7
X2.8Y-4.
X2.8Y-4.1
X2.8Y-4.2
X2.Y-3.1
X2.3Y-3.1
X1.7Y-4.
X1.8Y-4.
X1.7Y-3.9
X1.8Y-3.9
X2.6Y-2.7514
X2.6Y-2.8514
X2.6Y-2.9514
X2.6Y-3.0514
X2.6Y-3.1514
X2.6Y-3.2514
X2.6Y-3.3514
X2.6Y-3.4514
X2.6Y-3.5514
X2.6Y-3.6514
X2.6Y-3.7514
X2.6Y-3.8514
X2.6Y-3.9514
X2.6Y-4.0514
X2.6Y-4.1514
X2.6Y-4.2514
X2.6Y-4.3514
X2.6Y-4.4514
X2.6Y-4.5514
X3.6571Y-3.837
X3.7571Y-3.737
X3.7571Y-3.937
X3.3945Y-2.3465
X3.3945Y-2.6465
X1.7Y-3.6
X1.8Y-3.6
X1.8Y-4.5
X2.1Y-4.5
X2.5Y-2.7514
X2.5Y-2.8514
X2.5Y-2.9514
X2.5Y-3.0514
X2.5Y-3.1514
X2.5Y-3.2514
X2.5Y-3.3514
X2.5Y-3.4514
X2.5Y-3.5514
X2.5Y-3.6514
X2.5Y-3.7514
X2.5Y-3.8514
X2.5Y-3.9514
X2.5Y-4.0514
X2.5Y-4.1514
X2.5Y-4.2514
X2.5Y-4.3514
X2.5Y-4.4514
X2.5Y-4.5514
T0
M30
