M48
; DRILL file {KiCad (5.1.5)-3} date 1/1/2020 11:45:09 AM
; FORMAT={-:-/ absolute / inch / decimal}
; #@! TF.CreationDate,2020-01-01T11:45:09-05:00
; #@! TF.GenerationSoftware,Kicad,Pcbnew,(5.1.5)-3
; #@! TF.FileFunction,Plated,1,2,PTH
FMAT,2
INCH
T1C0.0394
%
G90
G05
T1
X0.1Y1.4
X0.1Y1.3
X0.1Y1.2
X0.1Y1.1
X0.1Y1.0
X0.1Y0.9
X0.1Y0.8
X0.1Y0.7
X0.1Y0.6
X0.1Y0.5
X0.1Y0.4
X0.1Y0.3
X0.1Y0.2
X0.1Y0.1
X0.9Y1.4
X0.9Y1.3
X0.9Y1.2
X0.9Y1.1
X0.9Y1.0
X0.9Y0.9
X0.9Y0.8
X0.9Y0.7
X0.9Y0.6
X0.9Y0.5
X0.9Y0.4
X0.9Y0.3
X0.9Y0.2
X0.9Y0.1
T0
M30
