G04 #@! TF.GenerationSoftware,KiCad,Pcbnew,(5.0.1)-4*
G04 #@! TF.CreationDate,2019-02-15T18:37:20-09:00*
G04 #@! TF.ProjectId,ATMEGA328PB_DEV_BOARD,41544D45474133323850425F4445565F,rev?*
G04 #@! TF.SameCoordinates,Original*
G04 #@! TF.FileFunction,Copper,L1,Top,Signal*
G04 #@! TF.FilePolarity,Positive*
%FSLAX46Y46*%
G04 Gerber Fmt 4.6, Leading zero omitted, Abs format (unit mm)*
G04 Created by KiCad (PCBNEW (5.0.1)-4) date 2/15/2019 6:37:20 PM*
%MOMM*%
%LPD*%
G01*
G04 APERTURE LIST*
G04 #@! TA.AperFunction,SMDPad,CuDef*
%ADD10R,1.701800X0.533400*%
G04 #@! TD*
G04 #@! TA.AperFunction,ComponentPad*
%ADD11O,1.700000X1.700000*%
G04 #@! TD*
G04 #@! TA.AperFunction,ComponentPad*
%ADD12R,1.700000X1.700000*%
G04 #@! TD*
G04 #@! TA.AperFunction,ComponentPad*
%ADD13R,1.600000X1.600000*%
G04 #@! TD*
G04 #@! TA.AperFunction,ComponentPad*
%ADD14C,1.600000*%
G04 #@! TD*
G04 #@! TA.AperFunction,ComponentPad*
%ADD15C,1.400000*%
G04 #@! TD*
G04 #@! TA.AperFunction,ComponentPad*
%ADD16O,1.400000X1.400000*%
G04 #@! TD*
G04 #@! TA.AperFunction,ComponentPad*
%ADD17C,1.500000*%
G04 #@! TD*
G04 #@! TA.AperFunction,Conductor*
%ADD18C,0.500000*%
G04 #@! TD*
G04 APERTURE END LIST*
D10*
G04 #@! TO.P,U1,14*
G04 #@! TO.N,/VCC*
X20370800Y-124460000D03*
G04 #@! TO.P,U1,13*
G04 #@! TO.N,Net-(U1-Pad13)*
X20370800Y-125730000D03*
G04 #@! TO.P,U1,12*
G04 #@! TO.N,/VCC*
X20370800Y-127000000D03*
G04 #@! TO.P,U1,11*
X20370800Y-128270000D03*
G04 #@! TO.P,U1,10*
G04 #@! TO.N,Net-(U1-Pad10)*
X20370800Y-129540000D03*
G04 #@! TO.P,U1,9*
G04 #@! TO.N,/VCC*
X20370800Y-130810000D03*
G04 #@! TO.P,U1,8*
X20370800Y-132080000D03*
G04 #@! TO.P,U1,7*
G04 #@! TO.N,/GND*
X25349200Y-132080000D03*
G04 #@! TO.P,U1,6*
G04 #@! TO.N,/XTAL1*
X25349200Y-130810000D03*
G04 #@! TO.P,U1,5*
X25349200Y-129540000D03*
G04 #@! TO.P,U1,4*
G04 #@! TO.N,/XTAL2*
X25349200Y-128270000D03*
G04 #@! TO.P,U1,3*
X25349200Y-127000000D03*
G04 #@! TO.P,U1,2*
X25349200Y-125730000D03*
G04 #@! TO.P,U1,1*
G04 #@! TO.N,/CLK*
X25349200Y-124460000D03*
G04 #@! TD*
D11*
G04 #@! TO.P,J4,5*
G04 #@! TO.N,/MOSI*
X58420000Y-135890000D03*
G04 #@! TO.P,J4,4*
G04 #@! TO.N,Net-(J4-Pad4)*
X58420000Y-133350000D03*
G04 #@! TO.P,J4,3*
G04 #@! TO.N,/RST*
X58420000Y-130810000D03*
G04 #@! TO.P,J4,2*
G04 #@! TO.N,/SCK*
X58420000Y-128270000D03*
D12*
G04 #@! TO.P,J4,1*
G04 #@! TO.N,/MISO*
X58420000Y-125730000D03*
G04 #@! TD*
D13*
G04 #@! TO.P,10uF1,1*
G04 #@! TO.N,/VCC*
X45720000Y-130810000D03*
D14*
G04 #@! TO.P,10uF1,2*
G04 #@! TO.N,/GND*
X45720000Y-128310000D03*
G04 #@! TD*
D12*
G04 #@! TO.P,J3,1*
G04 #@! TO.N,/GND*
X50800000Y-125730000D03*
D11*
G04 #@! TO.P,J3,2*
G04 #@! TO.N,Net-(J3-Pad2)*
X50800000Y-128270000D03*
G04 #@! TO.P,J3,3*
G04 #@! TO.N,Net-(J3-Pad3)*
X50800000Y-130810000D03*
G04 #@! TO.P,J3,4*
G04 #@! TO.N,Net-(J3-Pad4)*
X50800000Y-133350000D03*
G04 #@! TO.P,J3,5*
G04 #@! TO.N,/VCC*
X50800000Y-135890000D03*
G04 #@! TD*
D15*
G04 #@! TO.P,1Meg1,1*
G04 #@! TO.N,Net-(1K1-Pad2)*
X38100000Y-124460000D03*
D16*
G04 #@! TO.P,1Meg1,2*
G04 #@! TO.N,/XTAL1*
X33020000Y-124460000D03*
G04 #@! TD*
D17*
G04 #@! TO.P,20Mhz1,1*
G04 #@! TO.N,Net-(1K1-Pad2)*
X38100000Y-130810000D03*
G04 #@! TO.P,20Mhz1,2*
G04 #@! TO.N,/XTAL1*
X33220000Y-130810000D03*
G04 #@! TD*
D14*
G04 #@! TO.P,22pF1,1*
G04 #@! TO.N,/XTAL1*
X33020000Y-135890000D03*
G04 #@! TO.P,22pF1,2*
G04 #@! TO.N,/GND*
X33020000Y-138390000D03*
G04 #@! TD*
G04 #@! TO.P,22pF2,2*
G04 #@! TO.N,/GND*
X38100000Y-138390000D03*
G04 #@! TO.P,22pF2,1*
G04 #@! TO.N,Net-(1K1-Pad2)*
X38100000Y-135890000D03*
G04 #@! TD*
D12*
G04 #@! TO.P,J1,1*
G04 #@! TO.N,/RST*
X20320000Y-78740000D03*
D11*
G04 #@! TO.P,J1,2*
G04 #@! TO.N,/2*
X20320000Y-81280000D03*
G04 #@! TO.P,J1,3*
G04 #@! TO.N,/3*
X20320000Y-83820000D03*
G04 #@! TO.P,J1,4*
G04 #@! TO.N,/4*
X20320000Y-86360000D03*
G04 #@! TO.P,J1,5*
G04 #@! TO.N,/5*
X20320000Y-88900000D03*
G04 #@! TO.P,J1,6*
G04 #@! TO.N,/6*
X20320000Y-91440000D03*
G04 #@! TO.P,J1,7*
G04 #@! TO.N,/7*
X20320000Y-93980000D03*
G04 #@! TO.P,J1,8*
G04 #@! TO.N,/GND*
X20320000Y-96520000D03*
G04 #@! TO.P,J1,9*
G04 #@! TO.N,/VCC*
X20320000Y-99060000D03*
G04 #@! TO.P,J1,10*
G04 #@! TO.N,/10*
X20320000Y-101600000D03*
G04 #@! TO.P,J1,11*
G04 #@! TO.N,/CLK*
X20320000Y-104140000D03*
G04 #@! TO.P,J1,12*
G04 #@! TO.N,/12*
X20320000Y-106680000D03*
G04 #@! TO.P,J1,13*
G04 #@! TO.N,/13*
X20320000Y-109220000D03*
G04 #@! TO.P,J1,14*
G04 #@! TO.N,/14*
X20320000Y-111760000D03*
G04 #@! TO.P,J1,15*
G04 #@! TO.N,/15*
X20320000Y-114300000D03*
G04 #@! TO.P,J1,16*
G04 #@! TO.N,/16*
X20320000Y-116840000D03*
G04 #@! TD*
G04 #@! TO.P,J2,16*
G04 #@! TO.N,/32*
X66040000Y-78740000D03*
G04 #@! TO.P,J2,15*
G04 #@! TO.N,/31*
X66040000Y-81280000D03*
G04 #@! TO.P,J2,14*
G04 #@! TO.N,/30*
X66040000Y-83820000D03*
G04 #@! TO.P,J2,13*
G04 #@! TO.N,/29*
X66040000Y-86360000D03*
G04 #@! TO.P,J2,12*
G04 #@! TO.N,/28*
X66040000Y-88900000D03*
G04 #@! TO.P,J2,11*
G04 #@! TO.N,/27*
X66040000Y-91440000D03*
G04 #@! TO.P,J2,10*
G04 #@! TO.N,/26*
X66040000Y-93980000D03*
G04 #@! TO.P,J2,9*
G04 #@! TO.N,/GND*
X66040000Y-96520000D03*
G04 #@! TO.P,J2,8*
G04 #@! TO.N,/24*
X66040000Y-99060000D03*
G04 #@! TO.P,J2,7*
G04 #@! TO.N,/23*
X66040000Y-101600000D03*
G04 #@! TO.P,J2,6*
G04 #@! TO.N,/VCC*
X66040000Y-104140000D03*
G04 #@! TO.P,J2,5*
G04 #@! TO.N,/SCK*
X66040000Y-106680000D03*
G04 #@! TO.P,J2,4*
G04 #@! TO.N,/MISO*
X66040000Y-109220000D03*
G04 #@! TO.P,J2,3*
G04 #@! TO.N,/MOSI*
X66040000Y-111760000D03*
G04 #@! TO.P,J2,2*
G04 #@! TO.N,/18*
X66040000Y-114300000D03*
D12*
G04 #@! TO.P,J2,1*
G04 #@! TO.N,/17*
X66040000Y-116840000D03*
G04 #@! TD*
G04 #@! TO.P,J5,1*
G04 #@! TO.N,/RST*
X27940000Y-78740000D03*
D11*
G04 #@! TO.P,J5,2*
G04 #@! TO.N,/2*
X27940000Y-81280000D03*
G04 #@! TO.P,J5,3*
G04 #@! TO.N,/3*
X27940000Y-83820000D03*
G04 #@! TO.P,J5,4*
G04 #@! TO.N,/4*
X27940000Y-86360000D03*
G04 #@! TO.P,J5,5*
G04 #@! TO.N,/5*
X27940000Y-88900000D03*
G04 #@! TO.P,J5,6*
G04 #@! TO.N,/6*
X27940000Y-91440000D03*
G04 #@! TO.P,J5,7*
G04 #@! TO.N,/7*
X27940000Y-93980000D03*
G04 #@! TO.P,J5,8*
G04 #@! TO.N,/GND*
X27940000Y-96520000D03*
G04 #@! TO.P,J5,9*
G04 #@! TO.N,/VCC*
X27940000Y-99060000D03*
G04 #@! TO.P,J5,10*
G04 #@! TO.N,/10*
X27940000Y-101600000D03*
G04 #@! TO.P,J5,11*
G04 #@! TO.N,/CLK*
X27940000Y-104140000D03*
G04 #@! TO.P,J5,12*
G04 #@! TO.N,/12*
X27940000Y-106680000D03*
G04 #@! TO.P,J5,13*
G04 #@! TO.N,/13*
X27940000Y-109220000D03*
G04 #@! TO.P,J5,14*
G04 #@! TO.N,/14*
X27940000Y-111760000D03*
G04 #@! TO.P,J5,15*
G04 #@! TO.N,/15*
X27940000Y-114300000D03*
G04 #@! TO.P,J5,16*
G04 #@! TO.N,/16*
X27940000Y-116840000D03*
G04 #@! TD*
G04 #@! TO.P,J6,16*
G04 #@! TO.N,/32*
X58420000Y-78740000D03*
G04 #@! TO.P,J6,15*
G04 #@! TO.N,/31*
X58420000Y-81280000D03*
G04 #@! TO.P,J6,14*
G04 #@! TO.N,/30*
X58420000Y-83820000D03*
G04 #@! TO.P,J6,13*
G04 #@! TO.N,/29*
X58420000Y-86360000D03*
G04 #@! TO.P,J6,12*
G04 #@! TO.N,/28*
X58420000Y-88900000D03*
G04 #@! TO.P,J6,11*
G04 #@! TO.N,/27*
X58420000Y-91440000D03*
G04 #@! TO.P,J6,10*
G04 #@! TO.N,/26*
X58420000Y-93980000D03*
G04 #@! TO.P,J6,9*
G04 #@! TO.N,/GND*
X58420000Y-96520000D03*
G04 #@! TO.P,J6,8*
G04 #@! TO.N,/24*
X58420000Y-99060000D03*
G04 #@! TO.P,J6,7*
G04 #@! TO.N,/23*
X58420000Y-101600000D03*
G04 #@! TO.P,J6,6*
G04 #@! TO.N,/VCC*
X58420000Y-104140000D03*
G04 #@! TO.P,J6,5*
G04 #@! TO.N,/SCK*
X58420000Y-106680000D03*
G04 #@! TO.P,J6,4*
G04 #@! TO.N,/MISO*
X58420000Y-109220000D03*
G04 #@! TO.P,J6,3*
G04 #@! TO.N,/MOSI*
X58420000Y-111760000D03*
G04 #@! TO.P,J6,2*
G04 #@! TO.N,/18*
X58420000Y-114300000D03*
D12*
G04 #@! TO.P,J6,1*
G04 #@! TO.N,/17*
X58420000Y-116840000D03*
G04 #@! TD*
D15*
G04 #@! TO.P,1K1,1*
G04 #@! TO.N,/XTAL2*
X33020000Y-121920000D03*
D16*
G04 #@! TO.P,1K1,2*
G04 #@! TO.N,Net-(1K1-Pad2)*
X38100000Y-121920000D03*
G04 #@! TD*
D18*
G04 #@! TO.N,/CLK*
X20320000Y-104140000D02*
X27940000Y-104140000D01*
X28789999Y-104989999D02*
X27940000Y-104140000D01*
X29540001Y-105740001D02*
X28789999Y-104989999D01*
X29540001Y-119502499D02*
X29540001Y-105740001D01*
X25349200Y-123693300D02*
X29540001Y-119502499D01*
X25349200Y-124460000D02*
X25349200Y-123693300D01*
G04 #@! TO.N,/XTAL2*
X25349200Y-125730000D02*
X26670000Y-125730000D01*
X26670000Y-125730000D02*
X26670000Y-127000000D01*
X25349200Y-127000000D02*
X26670000Y-127000000D01*
X26670000Y-127000000D02*
X26670000Y-128270000D01*
X25349200Y-128270000D02*
X26670000Y-128270000D01*
X29210000Y-125730000D02*
X33020000Y-121920000D01*
X26670000Y-125730000D02*
X29210000Y-125730000D01*
G04 #@! TO.N,Net-(1K1-Pad2)*
X38100000Y-124460000D02*
X38100000Y-130810000D01*
X38100000Y-130810000D02*
X38100000Y-135890000D01*
G04 #@! TO.N,/XTAL1*
X25349200Y-129540000D02*
X26670000Y-129540000D01*
X26670000Y-129540000D02*
X26670000Y-130810000D01*
X26670000Y-130810000D02*
X25349200Y-130810000D01*
X33020000Y-130610000D02*
X33220000Y-130810000D01*
X33020000Y-124460000D02*
X33020000Y-130610000D01*
X33020000Y-131010000D02*
X33220000Y-130810000D01*
X33020000Y-135890000D02*
X33020000Y-131010000D01*
X26670000Y-130810000D02*
X33220000Y-130810000D01*
G04 #@! TO.N,/GND*
X58420000Y-96520000D02*
X66040000Y-96520000D01*
X20320000Y-96520000D02*
X27940000Y-96520000D01*
X48300000Y-125730000D02*
X45720000Y-128310000D01*
X50800000Y-125730000D02*
X48300000Y-125730000D01*
X50800000Y-119380000D02*
X27940000Y-96520000D01*
X50800000Y-125730000D02*
X50800000Y-119380000D01*
X38899999Y-137590001D02*
X38100000Y-138390000D01*
X39650001Y-136839999D02*
X38899999Y-137590001D01*
X39650001Y-133248629D02*
X39650001Y-136839999D01*
X44588630Y-128310000D02*
X39650001Y-133248629D01*
X45720000Y-128310000D02*
X44588630Y-128310000D01*
X38100000Y-138390000D02*
X33020000Y-138390000D01*
X25349200Y-132846700D02*
X25349200Y-132080000D01*
X30892500Y-138390000D02*
X25349200Y-132846700D01*
X33020000Y-138390000D02*
X30892500Y-138390000D01*
X18869999Y-77139999D02*
X17780000Y-78229998D01*
X58420000Y-96520000D02*
X39039999Y-77139999D01*
X39039999Y-77139999D02*
X18869999Y-77139999D01*
X17780000Y-93980000D02*
X20320000Y-96520000D01*
X17780000Y-78229998D02*
X17780000Y-93980000D01*
G04 #@! TO.N,/VCC*
X58420000Y-104140000D02*
X66040000Y-104140000D01*
X20320000Y-99060000D02*
X27940000Y-99060000D01*
X50800000Y-135890000D02*
X45720000Y-130810000D01*
X66889999Y-104989999D02*
X66040000Y-104140000D01*
X67640001Y-105740001D02*
X66889999Y-104989999D01*
X67640001Y-129038001D02*
X67640001Y-105740001D01*
X58248002Y-138430000D02*
X67640001Y-129038001D01*
X53340000Y-138430000D02*
X58248002Y-138430000D01*
X50800000Y-135890000D02*
X53340000Y-138430000D01*
X20370800Y-127000000D02*
X19050000Y-127000000D01*
X19050000Y-127000000D02*
X19050000Y-128270000D01*
X19050000Y-128270000D02*
X20370800Y-128270000D01*
X20370800Y-132080000D02*
X19050000Y-132080000D01*
X19050000Y-132080000D02*
X19050000Y-130810000D01*
X19050000Y-130810000D02*
X20370800Y-130810000D01*
X20370800Y-124460000D02*
X19050000Y-124460000D01*
X18769899Y-126719899D02*
X19050000Y-127000000D01*
X18769899Y-124740101D02*
X18769899Y-126719899D01*
X19050000Y-124460000D02*
X18769899Y-124740101D01*
X21721700Y-132080000D02*
X20370800Y-132080000D01*
X29621701Y-139980001D02*
X21721700Y-132080000D01*
X46709999Y-139980001D02*
X29621701Y-139980001D01*
X50800000Y-135890000D02*
X46709999Y-139980001D01*
X18769899Y-130529899D02*
X19050000Y-130810000D01*
X18769899Y-128550101D02*
X18769899Y-130529899D01*
X19050000Y-128270000D02*
X18769899Y-128550101D01*
X19470001Y-99909999D02*
X20320000Y-99060000D01*
X18719999Y-100660001D02*
X19470001Y-99909999D01*
X18719999Y-122042499D02*
X18719999Y-100660001D01*
X20370800Y-123693300D02*
X18719999Y-122042499D01*
X20370800Y-124460000D02*
X20370800Y-123693300D01*
G04 #@! TO.N,/RST*
X20320000Y-78740000D02*
X27940000Y-78740000D01*
X29290000Y-78740000D02*
X27940000Y-78740000D01*
X53400011Y-102850011D02*
X29290000Y-78740000D01*
X53400011Y-125790011D02*
X53400011Y-102850011D01*
X58420000Y-130810000D02*
X53400011Y-125790011D01*
G04 #@! TO.N,/2*
X20320000Y-81280000D02*
X27940000Y-81280000D01*
G04 #@! TO.N,/3*
X20320000Y-83820000D02*
X27940000Y-83820000D01*
G04 #@! TO.N,/4*
X20320000Y-86360000D02*
X27940000Y-86360000D01*
G04 #@! TO.N,/5*
X20320000Y-88900000D02*
X27940000Y-88900000D01*
G04 #@! TO.N,/6*
X20320000Y-91440000D02*
X27940000Y-91440000D01*
G04 #@! TO.N,/7*
X20320000Y-93980000D02*
X27940000Y-93980000D01*
G04 #@! TO.N,/10*
X20320000Y-101600000D02*
X27940000Y-101600000D01*
G04 #@! TO.N,/12*
X20320000Y-106680000D02*
X27940000Y-106680000D01*
G04 #@! TO.N,/13*
X20320000Y-109220000D02*
X27940000Y-109220000D01*
G04 #@! TO.N,/14*
X20320000Y-111760000D02*
X27940000Y-111760000D01*
G04 #@! TO.N,/15*
X20320000Y-114300000D02*
X27940000Y-114300000D01*
G04 #@! TO.N,/16*
X20320000Y-116840000D02*
X27940000Y-116840000D01*
G04 #@! TO.N,/32*
X58420000Y-78740000D02*
X66040000Y-78740000D01*
G04 #@! TO.N,/31*
X58420000Y-81280000D02*
X66040000Y-81280000D01*
G04 #@! TO.N,/30*
X58420000Y-83820000D02*
X66040000Y-83820000D01*
G04 #@! TO.N,/29*
X58420000Y-86360000D02*
X66040000Y-86360000D01*
G04 #@! TO.N,/28*
X58420000Y-88900000D02*
X66040000Y-88900000D01*
G04 #@! TO.N,/27*
X58420000Y-91440000D02*
X66040000Y-91440000D01*
G04 #@! TO.N,/26*
X58420000Y-93980000D02*
X66040000Y-93980000D01*
G04 #@! TO.N,/24*
X58420000Y-99060000D02*
X66040000Y-99060000D01*
G04 #@! TO.N,/23*
X58420000Y-101600000D02*
X66040000Y-101600000D01*
G04 #@! TO.N,/SCK*
X58420000Y-106680000D02*
X66040000Y-106680000D01*
X57570001Y-107529999D02*
X58420000Y-106680000D01*
X54819979Y-110280021D02*
X57570001Y-107529999D01*
X54819979Y-125179981D02*
X54819979Y-110280021D01*
X57059999Y-127420001D02*
X54819979Y-125179981D01*
X57570001Y-127420001D02*
X57059999Y-127420001D01*
X58420000Y-128270000D02*
X57570001Y-127420001D01*
G04 #@! TO.N,/MISO*
X58420000Y-109220000D02*
X66040000Y-109220000D01*
X55819989Y-121779989D02*
X55819989Y-111820011D01*
X55819989Y-111820011D02*
X57570001Y-110069999D01*
X58420000Y-125730000D02*
X58420000Y-124380000D01*
X58420000Y-124380000D02*
X55819989Y-121779989D01*
X57570001Y-110069999D02*
X58420000Y-109220000D01*
G04 #@! TO.N,/MOSI*
X58420000Y-111760000D02*
X66040000Y-111760000D01*
X60020001Y-134289999D02*
X60020001Y-122250001D01*
X58420000Y-135890000D02*
X60020001Y-134289999D01*
X57570001Y-112609999D02*
X58420000Y-111760000D01*
X56819999Y-113360001D02*
X57570001Y-112609999D01*
X56819999Y-119049999D02*
X56819999Y-113360001D01*
X60020001Y-122250001D02*
X56819999Y-119049999D01*
G04 #@! TO.N,/18*
X58420000Y-114300000D02*
X66040000Y-114300000D01*
G04 #@! TO.N,/17*
X58420000Y-116840000D02*
X66040000Y-116840000D01*
G04 #@! TO.N,Net-(1K1-Pad2)*
X38100000Y-121920000D02*
X38100000Y-124460000D01*
G04 #@! TD*
M02*
