G04 #@! TF.GenerationSoftware,KiCad,Pcbnew,(5.0.1)-4*
G04 #@! TF.CreationDate,2019-04-11T16:09:22-04:00*
G04 #@! TF.ProjectId,EEDesignFinal,454544657369676E46696E616C2E6B69,rev?*
G04 #@! TF.SameCoordinates,Original*
G04 #@! TF.FileFunction,Copper,L1,Top,Signal*
G04 #@! TF.FilePolarity,Positive*
%FSLAX46Y46*%
G04 Gerber Fmt 4.6, Leading zero omitted, Abs format (unit mm)*
G04 Created by KiCad (PCBNEW (5.0.1)-4) date 4/11/2019 4:09:22 PM*
%MOMM*%
%LPD*%
G01*
G04 APERTURE LIST*
G04 #@! TA.AperFunction,ComponentPad*
%ADD10O,1.700000X1.700000*%
G04 #@! TD*
G04 #@! TA.AperFunction,ComponentPad*
%ADD11R,1.700000X1.700000*%
G04 #@! TD*
G04 #@! TA.AperFunction,Conductor*
%ADD12C,0.500000*%
G04 #@! TD*
G04 #@! TA.AperFunction,Conductor*
%ADD13C,1.000000*%
G04 #@! TD*
G04 #@! TA.AperFunction,Conductor*
%ADD14C,0.800000*%
G04 #@! TD*
G04 APERTURE END LIST*
D10*
G04 #@! TO.P,J11,16*
G04 #@! TO.N,/GND*
X88760000Y-64590000D03*
G04 #@! TO.P,J11,15*
G04 #@! TO.N,Net-(J11-Pad15)*
X88760000Y-67130000D03*
G04 #@! TO.P,J11,14*
G04 #@! TO.N,/P1_7*
X88760000Y-69670000D03*
G04 #@! TO.P,J11,13*
G04 #@! TO.N,/P1_6*
X88760000Y-72210000D03*
G04 #@! TO.P,J11,12*
G04 #@! TO.N,/P1_5*
X88760000Y-74750000D03*
G04 #@! TO.P,J11,11*
G04 #@! TO.N,/P1_4*
X88760000Y-77290000D03*
G04 #@! TO.P,J11,10*
G04 #@! TO.N,/GND*
X88760000Y-79830000D03*
G04 #@! TO.P,J11,9*
X88760000Y-82370000D03*
G04 #@! TO.P,J11,8*
X88760000Y-84910000D03*
G04 #@! TO.P,J11,7*
X88760000Y-87450000D03*
G04 #@! TO.P,J11,6*
G04 #@! TO.N,/P1_1*
X88760000Y-89990000D03*
G04 #@! TO.P,J11,5*
G04 #@! TO.N,/GND*
X88760000Y-92530000D03*
G04 #@! TO.P,J11,4*
G04 #@! TO.N,/P1_0*
X88760000Y-95070000D03*
G04 #@! TO.P,J11,3*
G04 #@! TO.N,/contrast*
X88760000Y-97610000D03*
G04 #@! TO.P,J11,2*
G04 #@! TO.N,/Vin*
X88760000Y-100150000D03*
D11*
G04 #@! TO.P,J11,1*
G04 #@! TO.N,/GND*
X88760000Y-102690000D03*
G04 #@! TD*
D10*
G04 #@! TO.P,RV4,1*
G04 #@! TO.N,/VCC_TOOL*
X71120000Y-106680000D03*
G04 #@! TO.P,RV4,2*
G04 #@! TO.N,/P2_1*
X71120000Y-104140000D03*
G04 #@! TO.P,RV4,3*
G04 #@! TO.N,/GND*
X71120000Y-101600000D03*
G04 #@! TD*
G04 #@! TO.P,RV3,1*
G04 #@! TO.N,/VCC_TOOL*
X71120000Y-88900000D03*
G04 #@! TO.P,RV3,2*
G04 #@! TO.N,/P2_0*
X71120000Y-91440000D03*
G04 #@! TO.P,RV3,3*
G04 #@! TO.N,/GND*
X71120000Y-93980000D03*
G04 #@! TD*
G04 #@! TO.P,RV2,1*
G04 #@! TO.N,/Vin*
X95430000Y-94920000D03*
G04 #@! TO.P,RV2,2*
G04 #@! TO.N,/contrast*
X92890000Y-97460000D03*
G04 #@! TO.P,RV2,3*
G04 #@! TO.N,/GND*
X95430000Y-100000000D03*
G04 #@! TD*
G04 #@! TO.P,R11,1*
G04 #@! TO.N,Net-(D7-Pad1)*
X50800000Y-101600000D03*
G04 #@! TO.P,R11,2*
G04 #@! TO.N,/P3_3*
X58420000Y-101600000D03*
G04 #@! TD*
G04 #@! TO.P,R10,1*
G04 #@! TO.N,Net-(D6-Pad1)*
X50800000Y-99060000D03*
G04 #@! TO.P,R10,2*
G04 #@! TO.N,/P3_2*
X58420000Y-99060000D03*
G04 #@! TD*
G04 #@! TO.P,R9,2*
G04 #@! TO.N,/P3_1*
X58420000Y-96520000D03*
G04 #@! TO.P,R9,1*
G04 #@! TO.N,Net-(D5-Pad1)*
X50800000Y-96520000D03*
G04 #@! TD*
G04 #@! TO.P,R8,1*
G04 #@! TO.N,Net-(D4-Pad1)*
X50800000Y-73660000D03*
G04 #@! TO.P,R8,2*
G04 #@! TO.N,/P2_5*
X58420000Y-73660000D03*
G04 #@! TD*
G04 #@! TO.P,R7,1*
G04 #@! TO.N,Net-(D3-Pad1)*
X50800000Y-91440000D03*
G04 #@! TO.P,R7,2*
G04 #@! TO.N,/P2_2*
X58420000Y-91440000D03*
G04 #@! TD*
G04 #@! TO.P,R6,2*
G04 #@! TO.N,/P2_6*
X58420000Y-81280000D03*
G04 #@! TO.P,R6,1*
G04 #@! TO.N,Net-(D2-Pad1)*
X50800000Y-81280000D03*
G04 #@! TD*
G04 #@! TO.P,R5,2*
G04 #@! TO.N,/P2_7*
X58420000Y-78740000D03*
G04 #@! TO.P,R5,1*
G04 #@! TO.N,Net-(D1-Pad1)*
X50800000Y-78740000D03*
G04 #@! TD*
G04 #@! TO.P,R4,1*
G04 #@! TO.N,Net-(J11-Pad15)*
X86220000Y-67220000D03*
G04 #@! TO.P,R4,2*
G04 #@! TO.N,/Vin*
X86220000Y-59600000D03*
G04 #@! TD*
G04 #@! TO.P,R3,1*
G04 #@! TO.N,/P4_0*
X53340000Y-106680000D03*
G04 #@! TO.P,R3,2*
G04 #@! TO.N,/VCC_TOOL*
X45720000Y-106680000D03*
G04 #@! TD*
G04 #@! TO.P,R2,2*
G04 #@! TO.N,/VCC_TOOL*
X45720000Y-114300000D03*
G04 #@! TO.P,R2,1*
G04 #@! TO.N,/P4_1*
X53340000Y-114300000D03*
G04 #@! TD*
G04 #@! TO.P,R1,1*
G04 #@! TO.N,/P4_2*
X53340000Y-121920000D03*
G04 #@! TO.P,R1,2*
G04 #@! TO.N,/VCC_TOOL*
X45720000Y-121920000D03*
G04 #@! TD*
D11*
G04 #@! TO.P,J17,1*
G04 #@! TO.N,/P1_7*
X76200000Y-69885001D03*
D10*
G04 #@! TO.P,J17,2*
G04 #@! TO.N,/P1_6*
X76200000Y-72425001D03*
G04 #@! TO.P,J17,3*
G04 #@! TO.N,/P1_5*
X76200000Y-74965001D03*
G04 #@! TO.P,J17,4*
G04 #@! TO.N,/P1_4*
X76200000Y-77505001D03*
G04 #@! TO.P,J17,5*
G04 #@! TO.N,/P1_3*
X76200000Y-80045001D03*
G04 #@! TO.P,J17,6*
G04 #@! TO.N,/P1_2*
X76200000Y-82585001D03*
G04 #@! TO.P,J17,7*
G04 #@! TO.N,/P1_1*
X76200000Y-85125001D03*
G04 #@! TO.P,J17,8*
G04 #@! TO.N,/P1_0*
X76200000Y-87665001D03*
G04 #@! TO.P,J17,9*
G04 #@! TO.N,/VCC_TOOL*
X76200000Y-90205001D03*
G04 #@! TO.P,J17,10*
G04 #@! TO.N,/GND*
X76200000Y-92745001D03*
G04 #@! TO.P,J17,11*
G04 #@! TO.N,/P3_7*
X76200000Y-95285001D03*
G04 #@! TO.P,J17,12*
G04 #@! TO.N,/P3_6*
X76200000Y-97825001D03*
G04 #@! TO.P,J17,13*
G04 #@! TO.N,/P3_5*
X76200000Y-100365001D03*
G04 #@! TO.P,J17,14*
G04 #@! TO.N,/P3_4*
X76200000Y-102905001D03*
G04 #@! TO.P,J17,15*
G04 #@! TO.N,/P4_7*
X76200000Y-105445001D03*
G04 #@! TO.P,J17,16*
G04 #@! TO.N,/P4_6*
X76200000Y-107985001D03*
G04 #@! TO.P,J17,17*
G04 #@! TO.N,/P4_5*
X76200000Y-110525001D03*
G04 #@! TO.P,J17,18*
G04 #@! TO.N,/P4_4*
X76200000Y-113065001D03*
G04 #@! TO.P,J17,19*
G04 #@! TO.N,/P4_3*
X76200000Y-115605001D03*
G04 #@! TD*
G04 #@! TO.P,J16,19*
G04 #@! TO.N,/P4_2*
X66040000Y-115605001D03*
G04 #@! TO.P,J16,18*
G04 #@! TO.N,/P4_1*
X66040000Y-113065001D03*
G04 #@! TO.P,J16,17*
G04 #@! TO.N,/P4_0*
X66040000Y-110525001D03*
G04 #@! TO.P,J16,16*
G04 #@! TO.N,/VCC_TOOL*
X66040000Y-107985001D03*
G04 #@! TO.P,J16,15*
G04 #@! TO.N,/NC*
X66040000Y-105445001D03*
G04 #@! TO.P,J16,14*
G04 #@! TO.N,/P3_3*
X66040000Y-102905001D03*
G04 #@! TO.P,J16,13*
G04 #@! TO.N,/P3_2*
X66040000Y-100365001D03*
G04 #@! TO.P,J16,12*
G04 #@! TO.N,/P3_1*
X66040000Y-97825001D03*
G04 #@! TO.P,J16,11*
G04 #@! TO.N,/P3_0*
X66040000Y-95285001D03*
G04 #@! TO.P,J16,10*
G04 #@! TO.N,/P2_2*
X66040000Y-92745001D03*
G04 #@! TO.P,J16,9*
G04 #@! TO.N,/P2_1*
X66040000Y-90205001D03*
G04 #@! TO.P,J16,8*
G04 #@! TO.N,/P2_0*
X66040000Y-87665001D03*
G04 #@! TO.P,J16,7*
G04 #@! TO.N,/TDO_TDI*
X66040000Y-85125001D03*
G04 #@! TO.P,J16,6*
G04 #@! TO.N,/P2_6*
X66040000Y-82585001D03*
G04 #@! TO.P,J16,5*
G04 #@! TO.N,/P2_7*
X66040000Y-80045001D03*
G04 #@! TO.P,J16,4*
G04 #@! TO.N,/GND*
X66040000Y-77505001D03*
G04 #@! TO.P,J16,3*
G04 #@! TO.N,/P2_5*
X66040000Y-74965001D03*
G04 #@! TO.P,J16,2*
G04 #@! TO.N,/VCC_TOOL*
X66040000Y-72425001D03*
D11*
G04 #@! TO.P,J16,1*
G04 #@! TO.N,/TEST_VPP*
X66040000Y-69885001D03*
G04 #@! TD*
D10*
G04 #@! TO.P,J12,2*
G04 #@! TO.N,/GND*
X95260000Y-110980000D03*
D11*
G04 #@! TO.P,J12,1*
G04 #@! TO.N,/dac_out*
X95260000Y-108440000D03*
G04 #@! TD*
D10*
G04 #@! TO.P,J10,4*
G04 #@! TO.N,Net-(J10-Pad4)*
X92440000Y-116050000D03*
G04 #@! TO.P,J10,3*
G04 #@! TO.N,/Vin*
X92440000Y-113510000D03*
G04 #@! TO.P,J10,2*
G04 #@! TO.N,/GND*
X92440000Y-110970000D03*
D11*
G04 #@! TO.P,J10,1*
G04 #@! TO.N,/dac_out*
X92440000Y-108430000D03*
G04 #@! TD*
D10*
G04 #@! TO.P,J9,5*
G04 #@! TO.N,/GND*
X73660000Y-124460000D03*
G04 #@! TO.P,J9,4*
G04 #@! TO.N,/P4_3*
X76200000Y-124460000D03*
G04 #@! TO.P,J9,3*
G04 #@! TO.N,/P4_4*
X78740000Y-124460000D03*
G04 #@! TO.P,J9,2*
G04 #@! TO.N,/P4_5*
X81280000Y-124460000D03*
D11*
G04 #@! TO.P,J9,1*
G04 #@! TO.N,/Vin*
X83820000Y-124460000D03*
G04 #@! TD*
D10*
G04 #@! TO.P,J8,19*
G04 #@! TO.N,/P4_3*
X78740000Y-115605001D03*
G04 #@! TO.P,J8,18*
G04 #@! TO.N,/P4_4*
X78740000Y-113065001D03*
G04 #@! TO.P,J8,17*
G04 #@! TO.N,/P4_5*
X78740000Y-110525001D03*
G04 #@! TO.P,J8,16*
G04 #@! TO.N,/P4_6*
X78740000Y-107985001D03*
G04 #@! TO.P,J8,15*
G04 #@! TO.N,/P4_7*
X78740000Y-105445001D03*
G04 #@! TO.P,J8,14*
G04 #@! TO.N,/P3_4*
X78740000Y-102905001D03*
G04 #@! TO.P,J8,13*
G04 #@! TO.N,/P3_5*
X78740000Y-100365001D03*
G04 #@! TO.P,J8,12*
G04 #@! TO.N,/P3_6*
X78740000Y-97825001D03*
G04 #@! TO.P,J8,11*
G04 #@! TO.N,/P3_7*
X78740000Y-95285001D03*
G04 #@! TO.P,J8,10*
G04 #@! TO.N,/GND*
X78740000Y-92745001D03*
G04 #@! TO.P,J8,9*
G04 #@! TO.N,/VCC_TOOL*
X78740000Y-90205001D03*
G04 #@! TO.P,J8,8*
G04 #@! TO.N,/P1_0*
X78740000Y-87665001D03*
G04 #@! TO.P,J8,7*
G04 #@! TO.N,/P1_1*
X78740000Y-85125001D03*
G04 #@! TO.P,J8,6*
G04 #@! TO.N,/P1_2*
X78740000Y-82585001D03*
G04 #@! TO.P,J8,5*
G04 #@! TO.N,/P1_3*
X78740000Y-80045001D03*
G04 #@! TO.P,J8,4*
G04 #@! TO.N,/P1_4*
X78740000Y-77505001D03*
G04 #@! TO.P,J8,3*
G04 #@! TO.N,/P1_5*
X78740000Y-74965001D03*
G04 #@! TO.P,J8,2*
G04 #@! TO.N,/P1_6*
X78740000Y-72425001D03*
D11*
G04 #@! TO.P,J8,1*
G04 #@! TO.N,/P1_7*
X78740000Y-69885001D03*
G04 #@! TD*
D10*
G04 #@! TO.P,J7,2*
G04 #@! TO.N,/GND*
X43180000Y-66040000D03*
D11*
G04 #@! TO.P,J7,1*
G04 #@! TO.N,/Vin*
X43180000Y-68580000D03*
G04 #@! TD*
D10*
G04 #@! TO.P,J6,4*
G04 #@! TO.N,/Vin*
X84820000Y-116050000D03*
G04 #@! TO.P,J6,3*
G04 #@! TO.N,/P3_4*
X84820000Y-113510000D03*
G04 #@! TO.P,J6,2*
G04 #@! TO.N,/P3_0*
X84820000Y-110970000D03*
D11*
G04 #@! TO.P,J6,1*
G04 #@! TO.N,/P3_6*
X84820000Y-108430000D03*
G04 #@! TD*
G04 #@! TO.P,J5,1*
G04 #@! TO.N,/TEST_VPP*
X63500000Y-69885001D03*
D10*
G04 #@! TO.P,J5,2*
G04 #@! TO.N,/VCC_TOOL*
X63500000Y-72425001D03*
G04 #@! TO.P,J5,3*
G04 #@! TO.N,/P2_5*
X63500000Y-74965001D03*
G04 #@! TO.P,J5,4*
G04 #@! TO.N,/GND*
X63500000Y-77505001D03*
G04 #@! TO.P,J5,5*
G04 #@! TO.N,/P2_7*
X63500000Y-80045001D03*
G04 #@! TO.P,J5,6*
G04 #@! TO.N,/P2_6*
X63500000Y-82585001D03*
G04 #@! TO.P,J5,7*
G04 #@! TO.N,/TDO_TDI*
X63500000Y-85125001D03*
G04 #@! TO.P,J5,8*
G04 #@! TO.N,/P2_0*
X63500000Y-87665001D03*
G04 #@! TO.P,J5,9*
G04 #@! TO.N,/P2_1*
X63500000Y-90205001D03*
G04 #@! TO.P,J5,10*
G04 #@! TO.N,/P2_2*
X63500000Y-92745001D03*
G04 #@! TO.P,J5,11*
G04 #@! TO.N,/P3_0*
X63500000Y-95285001D03*
G04 #@! TO.P,J5,12*
G04 #@! TO.N,/P3_1*
X63500000Y-97825001D03*
G04 #@! TO.P,J5,13*
G04 #@! TO.N,/P3_2*
X63500000Y-100365001D03*
G04 #@! TO.P,J5,14*
G04 #@! TO.N,/P3_3*
X63500000Y-102905001D03*
G04 #@! TO.P,J5,15*
G04 #@! TO.N,/NC*
X63500000Y-105445001D03*
G04 #@! TO.P,J5,16*
G04 #@! TO.N,/VCC_TOOL*
X63500000Y-107985001D03*
G04 #@! TO.P,J5,17*
G04 #@! TO.N,/P4_0*
X63500000Y-110525001D03*
G04 #@! TO.P,J5,18*
G04 #@! TO.N,/P4_1*
X63500000Y-113065001D03*
G04 #@! TO.P,J5,19*
G04 #@! TO.N,/P4_2*
X63500000Y-115605001D03*
G04 #@! TD*
D11*
G04 #@! TO.P,J4,1*
G04 #@! TO.N,/P4_0*
X58420000Y-106680000D03*
D10*
G04 #@! TO.P,J4,2*
G04 #@! TO.N,Net-(J4-Pad2)*
X58420000Y-109220000D03*
G04 #@! TO.P,J4,3*
G04 #@! TO.N,/GND*
X58420000Y-111760000D03*
G04 #@! TD*
G04 #@! TO.P,J3,3*
G04 #@! TO.N,/GND*
X58420000Y-119380000D03*
G04 #@! TO.P,J3,2*
G04 #@! TO.N,Net-(J3-Pad2)*
X58420000Y-116840000D03*
D11*
G04 #@! TO.P,J3,1*
G04 #@! TO.N,/P4_1*
X58420000Y-114300000D03*
G04 #@! TD*
G04 #@! TO.P,J2,1*
G04 #@! TO.N,/P4_2*
X58420000Y-121920000D03*
D10*
G04 #@! TO.P,J2,2*
G04 #@! TO.N,Net-(J2-Pad2)*
X58420000Y-124460000D03*
G04 #@! TO.P,J2,3*
G04 #@! TO.N,/GND*
X58420000Y-127000000D03*
G04 #@! TD*
G04 #@! TO.P,J1,3*
G04 #@! TO.N,/VCC_TOOL*
X50800000Y-63500000D03*
G04 #@! TO.P,J1,2*
G04 #@! TO.N,/GND*
X50800000Y-66040000D03*
D11*
G04 #@! TO.P,J1,1*
G04 #@! TO.N,/Vin*
X50800000Y-68580000D03*
G04 #@! TD*
G04 #@! TO.P,D7,1*
G04 #@! TO.N,Net-(D7-Pad1)*
X45720000Y-101600000D03*
D10*
G04 #@! TO.P,D7,2*
G04 #@! TO.N,/GND*
X43180000Y-101600000D03*
G04 #@! TD*
G04 #@! TO.P,D6,2*
G04 #@! TO.N,/GND*
X43180000Y-99060000D03*
D11*
G04 #@! TO.P,D6,1*
G04 #@! TO.N,Net-(D6-Pad1)*
X45720000Y-99060000D03*
G04 #@! TD*
D10*
G04 #@! TO.P,D5,2*
G04 #@! TO.N,/GND*
X43180000Y-96520000D03*
D11*
G04 #@! TO.P,D5,1*
G04 #@! TO.N,Net-(D5-Pad1)*
X45720000Y-96520000D03*
G04 #@! TD*
G04 #@! TO.P,D4,1*
G04 #@! TO.N,Net-(D4-Pad1)*
X45720000Y-73660000D03*
D10*
G04 #@! TO.P,D4,2*
G04 #@! TO.N,/GND*
X43180000Y-73660000D03*
G04 #@! TD*
G04 #@! TO.P,D3,2*
G04 #@! TO.N,/GND*
X43180000Y-91440000D03*
D11*
G04 #@! TO.P,D3,1*
G04 #@! TO.N,Net-(D3-Pad1)*
X45720000Y-91440000D03*
G04 #@! TD*
D10*
G04 #@! TO.P,D2,2*
G04 #@! TO.N,/GND*
X43180000Y-81280000D03*
D11*
G04 #@! TO.P,D2,1*
G04 #@! TO.N,Net-(D2-Pad1)*
X45720000Y-81280000D03*
G04 #@! TD*
G04 #@! TO.P,D1,1*
G04 #@! TO.N,Net-(D1-Pad1)*
X45720000Y-78740000D03*
D10*
G04 #@! TO.P,D1,2*
G04 #@! TO.N,/GND*
X43180000Y-78740000D03*
G04 #@! TD*
D11*
G04 #@! TO.P,C1,1*
G04 #@! TO.N,/Vin*
X46170000Y-68610000D03*
D10*
G04 #@! TO.P,C1,2*
G04 #@! TO.N,/GND*
X46170000Y-66110000D03*
G04 #@! TD*
G04 #@! TO.P,C2,2*
G04 #@! TO.N,/GND*
X56090000Y-66020000D03*
D11*
G04 #@! TO.P,C2,1*
G04 #@! TO.N,/VCC_TOOL*
X56090000Y-63520000D03*
G04 #@! TD*
G04 #@! TO.P,C3,1*
G04 #@! TO.N,/P4_2*
X53210000Y-124600000D03*
D10*
G04 #@! TO.P,C3,2*
G04 #@! TO.N,/GND*
X53210000Y-127100000D03*
G04 #@! TD*
G04 #@! TO.P,C4,2*
G04 #@! TO.N,/GND*
X53360000Y-119340000D03*
D11*
G04 #@! TO.P,C4,1*
G04 #@! TO.N,/P4_1*
X53360000Y-116840000D03*
G04 #@! TD*
G04 #@! TO.P,C5,1*
G04 #@! TO.N,/P4_0*
X53360000Y-109160000D03*
D10*
G04 #@! TO.P,C5,2*
G04 #@! TO.N,/GND*
X53360000Y-111660000D03*
G04 #@! TD*
D12*
G04 #@! TO.N,/TEST_VPP*
X63500000Y-69885001D02*
X66040000Y-69885001D01*
G04 #@! TO.N,/VCC_TOOL*
X76200000Y-90205001D02*
X78740000Y-90205001D01*
X63500000Y-72425001D02*
X66040000Y-72425001D01*
X74894999Y-88900000D02*
X76200000Y-90205001D01*
X71120000Y-88900000D02*
X74894999Y-88900000D01*
X71120000Y-77505001D02*
X71120000Y-88900000D01*
X66040000Y-72425001D02*
X71120000Y-77505001D01*
X63500000Y-107985001D02*
X66040000Y-107985001D01*
X69814999Y-107985001D02*
X71120000Y-106680000D01*
X66040000Y-107985001D02*
X69814999Y-107985001D01*
X45720000Y-121920000D02*
X45720000Y-114300000D01*
X45720000Y-114300000D02*
X45720000Y-106680000D01*
X62297919Y-72425001D02*
X63500000Y-72425001D01*
X61899999Y-72027081D02*
X62297919Y-72425001D01*
X61899999Y-67979999D02*
X61899999Y-72027081D01*
X57440000Y-63520000D02*
X61899999Y-67979999D01*
X56090000Y-63520000D02*
X57440000Y-63520000D01*
X56070000Y-63500000D02*
X56090000Y-63520000D01*
X50800000Y-63500000D02*
X56070000Y-63500000D01*
X46569999Y-105830001D02*
X45720000Y-106680000D01*
X47520001Y-104879999D02*
X46569999Y-105830001D01*
X59667069Y-104879999D02*
X47520001Y-104879999D01*
X61922072Y-107135002D02*
X59667069Y-104879999D01*
X62650001Y-107135002D02*
X61922072Y-107135002D01*
X63500000Y-107985001D02*
X62650001Y-107135002D01*
G04 #@! TO.N,/GND*
X63500000Y-77505001D02*
X66040000Y-77505001D01*
D13*
X76200000Y-92745001D02*
X78740000Y-92745001D01*
G04 #@! TO.N,/NC*
X63500000Y-105445001D02*
X66040000Y-105445001D01*
G04 #@! TO.N,/GND*
X71120000Y-101600000D02*
X71120000Y-93980000D01*
X58320000Y-111660000D02*
X58420000Y-111760000D01*
X53360000Y-111660000D02*
X58320000Y-111660000D01*
X58380000Y-119340000D02*
X58420000Y-119380000D01*
X53360000Y-119340000D02*
X58380000Y-119340000D01*
X58320000Y-127100000D02*
X58420000Y-127000000D01*
X53210000Y-127100000D02*
X58320000Y-127100000D01*
X51359999Y-120137920D02*
X52157919Y-119340000D01*
X51359999Y-126452080D02*
X51359999Y-120137920D01*
X52007919Y-127100000D02*
X51359999Y-126452080D01*
X52510001Y-112509999D02*
X53360000Y-111660000D01*
X51489999Y-113530001D02*
X52510001Y-112509999D01*
X51489999Y-118672080D02*
X51489999Y-113530001D01*
X52157919Y-119340000D02*
X51489999Y-118672080D01*
X53360000Y-119340000D02*
X52157919Y-119340000D01*
X71120000Y-127000000D02*
X73660000Y-124460000D01*
X58420000Y-127000000D02*
X71120000Y-127000000D01*
X79589999Y-93595000D02*
X78740000Y-92745001D01*
X80514978Y-93595000D02*
X79589999Y-93595000D01*
X85909989Y-98990011D02*
X80514978Y-93595000D01*
X85909989Y-106019987D02*
X85909989Y-98990011D01*
X90860002Y-110970000D02*
X85909989Y-106019987D01*
X92440000Y-110970000D02*
X90860002Y-110970000D01*
X43180000Y-101600000D02*
X43180000Y-99060000D01*
X43180000Y-99060000D02*
X43180000Y-96520000D01*
X43180000Y-96520000D02*
X43180000Y-91440000D01*
X43180000Y-91440000D02*
X43180000Y-81280000D01*
X43180000Y-81280000D02*
X43180000Y-78740000D01*
X43180000Y-78740000D02*
X43180000Y-73660000D01*
X62650001Y-76655002D02*
X63500000Y-77505001D01*
X58585002Y-76655002D02*
X62650001Y-76655002D01*
X43827920Y-71809999D02*
X53739999Y-71809999D01*
X43180000Y-72457919D02*
X43827920Y-71809999D01*
X43180000Y-73660000D02*
X43180000Y-72457919D01*
X54140000Y-67970000D02*
X56090000Y-66020000D01*
X54140000Y-72210000D02*
X54140000Y-67970000D01*
X54140000Y-72210000D02*
X58585002Y-76655002D01*
X53739999Y-71809999D02*
X54140000Y-72210000D01*
X52210000Y-66040000D02*
X50800000Y-66040000D01*
X54140000Y-67970000D02*
X52210000Y-66040000D01*
X50730000Y-66110000D02*
X50800000Y-66040000D01*
X46170000Y-66110000D02*
X50730000Y-66110000D01*
X46100000Y-66040000D02*
X46170000Y-66110000D01*
X43180000Y-66040000D02*
X46100000Y-66040000D01*
X52007919Y-127100000D02*
X53210000Y-127100000D01*
X48161998Y-127100000D02*
X52007919Y-127100000D01*
X43180000Y-122118002D02*
X48161998Y-127100000D01*
X43180000Y-101600000D02*
X43180000Y-122118002D01*
D14*
X92740000Y-102690000D02*
X95430000Y-100000000D01*
X88760000Y-102690000D02*
X92740000Y-102690000D01*
X89962081Y-92530000D02*
X88760000Y-92530000D01*
X90449998Y-92530000D02*
X89962081Y-92530000D01*
X95430000Y-97510002D02*
X90449998Y-92530000D01*
X95430000Y-100000000D02*
X95430000Y-97510002D01*
X89609999Y-88299999D02*
X88760000Y-87450000D01*
X90700000Y-89390000D02*
X89609999Y-88299999D01*
X90700000Y-92279998D02*
X90700000Y-89390000D01*
X90449998Y-92530000D02*
X90700000Y-92279998D01*
X89609999Y-78980001D02*
X89630001Y-78980001D01*
X88760000Y-79830000D02*
X89609999Y-78980001D01*
X89630001Y-78980001D02*
X90640000Y-77970002D01*
X90640000Y-66470000D02*
X88760000Y-64590000D01*
X90640000Y-77970002D02*
X90640000Y-66470000D01*
X87910001Y-63740001D02*
X88760000Y-64590000D01*
X85919999Y-61749999D02*
X87910001Y-63740001D01*
X49327920Y-61749999D02*
X85919999Y-61749999D01*
X46170000Y-64907919D02*
X49327920Y-61749999D01*
X46170000Y-66110000D02*
X46170000Y-64907919D01*
X88760000Y-87450000D02*
X88760000Y-84910000D01*
X88760000Y-84910000D02*
X88760000Y-82370000D01*
X88760000Y-82370000D02*
X88760000Y-79830000D01*
X73660000Y-104140000D02*
X73660000Y-124460000D01*
X71120000Y-101600000D02*
X73660000Y-104140000D01*
X95250000Y-110970000D02*
X95260000Y-110980000D01*
X92440000Y-110970000D02*
X95250000Y-110970000D01*
D13*
X74997919Y-92745001D02*
X76200000Y-92745001D01*
X74612919Y-93130001D02*
X74997919Y-92745001D01*
X71969999Y-93130001D02*
X74612919Y-93130001D01*
X71120000Y-93980000D02*
X71969999Y-93130001D01*
D12*
G04 #@! TO.N,/TDO_TDI*
X63500000Y-85125001D02*
X66040000Y-85125001D01*
G04 #@! TO.N,/P2_0*
X63500000Y-87665001D02*
X66040000Y-87665001D01*
X69814999Y-91440000D02*
X66040000Y-87665001D01*
X71120000Y-91440000D02*
X69814999Y-91440000D01*
G04 #@! TO.N,/P2_1*
X63500000Y-90205001D02*
X66040000Y-90205001D01*
X66889999Y-91055000D02*
X66040000Y-90205001D01*
X68580000Y-92745001D02*
X66889999Y-91055000D01*
X68580000Y-101600000D02*
X68580000Y-92745001D01*
X71120000Y-104140000D02*
X68580000Y-101600000D01*
G04 #@! TO.N,/P2_2*
X63500000Y-92745001D02*
X66040000Y-92745001D01*
X62194999Y-91440000D02*
X63500000Y-92745001D01*
X58420000Y-91440000D02*
X62194999Y-91440000D01*
G04 #@! TO.N,/P3_0*
X63500000Y-95285001D02*
X66040000Y-95285001D01*
G04 #@! TO.N,/P3_1*
X63500000Y-97825001D02*
X66040000Y-97825001D01*
X62194999Y-96520000D02*
X63500000Y-97825001D01*
X58420000Y-96520000D02*
X62194999Y-96520000D01*
G04 #@! TO.N,/P3_2*
X63500000Y-100365001D02*
X66040000Y-100365001D01*
X62194999Y-99060000D02*
X63500000Y-100365001D01*
X58420000Y-99060000D02*
X62194999Y-99060000D01*
G04 #@! TO.N,/P3_3*
X63500000Y-102905001D02*
X66040000Y-102905001D01*
X62194999Y-101600000D02*
X63500000Y-102905001D01*
X58420000Y-101600000D02*
X62194999Y-101600000D01*
G04 #@! TO.N,/P4_0*
X63500000Y-110525001D02*
X66040000Y-110525001D01*
X53340000Y-106680000D02*
X58420000Y-106680000D01*
X63500000Y-110410000D02*
X63500000Y-110525001D01*
X59770000Y-106680000D02*
X63500000Y-110410000D01*
X58420000Y-106680000D02*
X59770000Y-106680000D01*
X53340000Y-109140000D02*
X53360000Y-109160000D01*
X53340000Y-106680000D02*
X53340000Y-109140000D01*
G04 #@! TO.N,/P4_1*
X66040000Y-113065001D02*
X63500000Y-113065001D01*
X53340000Y-114300000D02*
X58420000Y-114300000D01*
X62265001Y-114300000D02*
X63500000Y-113065001D01*
X58420000Y-114300000D02*
X62265001Y-114300000D01*
X53360000Y-114320000D02*
X53340000Y-114300000D01*
X53360000Y-116840000D02*
X53360000Y-114320000D01*
G04 #@! TO.N,/P4_2*
X63500000Y-115605001D02*
X66040000Y-115605001D01*
X53340000Y-121920000D02*
X58420000Y-121920000D01*
X63500000Y-116807082D02*
X63500000Y-115605001D01*
X63500000Y-118190000D02*
X63500000Y-116807082D01*
X59770000Y-121920000D02*
X63500000Y-118190000D01*
X58420000Y-121920000D02*
X59770000Y-121920000D01*
X53210000Y-122050000D02*
X53340000Y-121920000D01*
X53210000Y-124600000D02*
X53210000Y-122050000D01*
G04 #@! TO.N,/P4_3*
X76200000Y-115605001D02*
X78740000Y-115605001D01*
X76200000Y-115605001D02*
X76200000Y-124460000D01*
G04 #@! TO.N,/P4_4*
X76200000Y-113065001D02*
X78740000Y-113065001D01*
X79589999Y-123610001D02*
X78740000Y-124460000D01*
X80340001Y-122859999D02*
X79589999Y-123610001D01*
X80340001Y-114665002D02*
X80340001Y-122859999D01*
X78740000Y-113065001D02*
X80340001Y-114665002D01*
G04 #@! TO.N,/P4_5*
X76200000Y-110525001D02*
X78740000Y-110525001D01*
X82129999Y-123610001D02*
X81280000Y-124460000D01*
X82129999Y-113915000D02*
X82129999Y-123610001D01*
X78740000Y-110525001D02*
X82129999Y-113915000D01*
G04 #@! TO.N,/P4_6*
X76200000Y-107985001D02*
X78740000Y-107985001D01*
G04 #@! TO.N,/P4_7*
X76200000Y-105445001D02*
X78740000Y-105445001D01*
G04 #@! TO.N,/P3_4*
X76200000Y-102905001D02*
X78740000Y-102905001D01*
X79589999Y-103755000D02*
X78740000Y-102905001D01*
X80340001Y-104505002D02*
X79589999Y-103755000D01*
X80340001Y-109030001D02*
X80340001Y-104505002D01*
X84820000Y-113510000D02*
X80340001Y-109030001D01*
G04 #@! TO.N,/P3_5*
X76200000Y-100365001D02*
X78740000Y-100365001D01*
G04 #@! TO.N,/P3_6*
X76200000Y-97825001D02*
X78740000Y-97825001D01*
X84820000Y-107080000D02*
X84820000Y-108430000D01*
X84659979Y-106919979D02*
X84820000Y-107080000D01*
X84659979Y-103744980D02*
X84659979Y-106919979D01*
X78740000Y-97825001D02*
X84659979Y-103744980D01*
G04 #@! TO.N,/P3_7*
X76200000Y-95285001D02*
X78740000Y-95285001D01*
G04 #@! TO.N,/P1_0*
X76200000Y-87665001D02*
X78740000Y-87665001D01*
X86144999Y-95070000D02*
X88760000Y-95070000D01*
X78740000Y-87665001D02*
X86144999Y-95070000D01*
G04 #@! TO.N,/P1_1*
X76200000Y-85125001D02*
X78740000Y-85125001D01*
X83604999Y-89990000D02*
X88760000Y-89990000D01*
X78740000Y-85125001D02*
X83604999Y-89990000D01*
G04 #@! TO.N,/P1_2*
X76200000Y-82585001D02*
X78740000Y-82585001D01*
G04 #@! TO.N,/P1_3*
X76200000Y-80045001D02*
X78740000Y-80045001D01*
G04 #@! TO.N,/P1_4*
X76200000Y-77505001D02*
X78740000Y-77505001D01*
X88544999Y-77505001D02*
X88760000Y-77290000D01*
X78740000Y-77505001D02*
X88544999Y-77505001D01*
G04 #@! TO.N,/P1_5*
X76200000Y-74965001D02*
X78740000Y-74965001D01*
X88544999Y-74965001D02*
X88760000Y-74750000D01*
X78740000Y-74965001D02*
X88544999Y-74965001D01*
G04 #@! TO.N,/P1_6*
X76200000Y-72425001D02*
X78740000Y-72425001D01*
X88544999Y-72425001D02*
X88760000Y-72210000D01*
X78740000Y-72425001D02*
X88544999Y-72425001D01*
G04 #@! TO.N,/P1_7*
X76200000Y-69885001D02*
X78740000Y-69885001D01*
X88544999Y-69885001D02*
X88760000Y-69670000D01*
X78740000Y-69885001D02*
X88544999Y-69885001D01*
G04 #@! TO.N,/Vin*
X89900000Y-116050000D02*
X92440000Y-113510000D01*
X84820000Y-116050000D02*
X89900000Y-116050000D01*
X83820000Y-117050000D02*
X84820000Y-116050000D01*
X83820000Y-124460000D02*
X83820000Y-117050000D01*
X85088630Y-59600000D02*
X86220000Y-59600000D01*
X47251998Y-59600000D02*
X85088630Y-59600000D01*
X41579999Y-65271999D02*
X47251998Y-59600000D01*
X41579999Y-68329999D02*
X41579999Y-65271999D01*
X41830000Y-68580000D02*
X41579999Y-68329999D01*
X43180000Y-68580000D02*
X41830000Y-68580000D01*
X46140000Y-68580000D02*
X46170000Y-68610000D01*
X43180000Y-68580000D02*
X46140000Y-68580000D01*
X50770000Y-68610000D02*
X50800000Y-68580000D01*
X46170000Y-68610000D02*
X50770000Y-68610000D01*
X97030001Y-96520001D02*
X97030001Y-100768001D01*
X95430000Y-94920000D02*
X97030001Y-96520001D01*
X95430000Y-68810000D02*
X95430000Y-94920000D01*
X86220000Y-59600000D02*
X95430000Y-68810000D01*
X95098002Y-113510000D02*
X97030001Y-111578001D01*
X92440000Y-113510000D02*
X95098002Y-113510000D01*
X97030001Y-104680000D02*
X97030001Y-100768001D01*
X97030001Y-111578001D02*
X97030001Y-104680000D01*
X87557919Y-100150000D02*
X88760000Y-100150000D01*
X87159999Y-100547920D02*
X87557919Y-100150000D01*
X87159999Y-104140001D02*
X87159999Y-100547920D01*
X87699998Y-104680000D02*
X87159999Y-104140001D01*
X97030001Y-104680000D02*
X87699998Y-104680000D01*
G04 #@! TO.N,Net-(D1-Pad1)*
X47120000Y-78740000D02*
X50800000Y-78740000D01*
X45720000Y-78740000D02*
X47120000Y-78740000D01*
G04 #@! TO.N,Net-(D2-Pad1)*
X45720000Y-81280000D02*
X50800000Y-81280000D01*
G04 #@! TO.N,Net-(D3-Pad1)*
X50800000Y-91440000D02*
X45720000Y-91440000D01*
G04 #@! TO.N,Net-(D4-Pad1)*
X50800000Y-73660000D02*
X45720000Y-73660000D01*
G04 #@! TO.N,Net-(D5-Pad1)*
X50800000Y-96520000D02*
X45720000Y-96520000D01*
G04 #@! TO.N,Net-(D6-Pad1)*
X50800000Y-99060000D02*
X45720000Y-99060000D01*
G04 #@! TO.N,Net-(D7-Pad1)*
X50800000Y-101600000D02*
X45720000Y-101600000D01*
G04 #@! TO.N,/P2_5*
X63500000Y-74965001D02*
X66040000Y-74965001D01*
X59725001Y-74965001D02*
X58420000Y-73660000D01*
X63500000Y-74965001D02*
X59725001Y-74965001D01*
G04 #@! TO.N,/P2_7*
X63500000Y-80045001D02*
X66040000Y-80045001D01*
X62194999Y-78740000D02*
X63500000Y-80045001D01*
X58420000Y-78740000D02*
X62194999Y-78740000D01*
G04 #@! TO.N,/P2_6*
X63500000Y-82585001D02*
X66040000Y-82585001D01*
X62194999Y-81280000D02*
X63500000Y-82585001D01*
X58420000Y-81280000D02*
X62194999Y-81280000D01*
G04 #@! TO.N,/dac_out*
X95250000Y-108430000D02*
X95260000Y-108440000D01*
X92440000Y-108430000D02*
X95250000Y-108430000D01*
G04 #@! TO.N,/contrast*
X92740000Y-97610000D02*
X92890000Y-97460000D01*
X88760000Y-97610000D02*
X92740000Y-97610000D01*
G04 #@! TO.N,Net-(J11-Pad15)*
X88670000Y-67220000D02*
X88760000Y-67130000D01*
X86220000Y-67220000D02*
X88670000Y-67220000D01*
G04 #@! TD*
M02*
