
	<svg xmlns="http://www.w3.org/2000/svg">
	<polygon points="-0.5,0 -0.5,-20 -0.7,-20 -0.25,-22 0.2,-20, 0,-20 0,0" style="fill:green; stroke-opacity:0"/>
	<polygon points="0,0.5 20,0.5 20,0.7 22,0.25 20,-0.2 20,0 0,0" style="fill:red; stroke-opacity:0"/>
	<polygon points="0,0 0,0.5 -0.5,0.5 -0.5,0" style="fill:black; stroke-opacity:0"/>
	<path fill-rule="evenodd" fill="#66cc99" stroke="#000000" stroke-width="0.05" opacity="1.0" d="M 11.481052344554456,-2.4759945488239765 L 11.434996999999996,-2.1999999999999886 L 11.481052344554456,-1.9240054511760007 L 11.61422756701306,-1.6779191942137714 L 11.820091065595932,-1.4884084934768396 L 12.076334335930312,-1.3760097739515516 L 12.355189443651469,-1.352903180944324 L 12.626438110955021,-1.4215926723431949 L 12.860686335881866,-1.5746346759278254 L 13.032549688525506,-1.795444715918478 L 13.123404107892298,-2.060094598261358 L 13.123404107892298,-2.339905401738619 L 13.032549688525506,-2.604555284081499 L 12.860686335881866,-2.825365324072152 L 12.626438110955007,-2.9784073276567824 L 12.384486627163398,-3.039677764595922 L 12.384486627163398,-3.048117625655763 L 12.38041362046421,-3.0679371057543534 L 12.37243435643866,-3.086530989710127 L 12.360875507093482,-3.1031380417292382 L 12.355370162942307,-3.1083712615751153 L 12.355708923339833,-3.108710021972641 L 11.13498291015624,-4.3294285845268945 L 11.13498291015624,-5.999312133789047 L 11.134471368374335,-5.999312133789047 L 11.134471368374335,-6.009428965987794 L 11.130398361675148,-6.029248446086385 L 11.122419097649598,-6.047842330042158 L 11.11086024830442,-6.0644493820612695 L 11.105354904153245,-6.069682601907147 L 11.10569366455077,-6.070021362304672 L 10.67502960205077,-6.500685424804672 L 10.674690841653245,-6.500346664407147 L 10.665530971789906,-6.509053769982813 L 10.648359788690911,-6.519756650246123 L 10.629385626761021,-6.526783908175673 L 10.609385290419013,-6.5298478470061525 L 10.604320373535145,-6.529590983493264 L 10.604320373535145,-6.529974670410141 L 4.455676879882802,-6.529974670410141 L 4.455676879882802,-6.529590983493264 L 4.440534102132347,-6.52882302872186 L 4.420946354598314,-6.52375140950376 L 4.402780478850104,-6.51484062203852 L 4.3867801879752335,-6.502455475011956 L 4.37360053576208,-6.487103017798532 L 4.363781098720779,-6.469411781800375 L 4.361856109507045,-6.463276397592978 L 3.4192922973632704,-5.520712585449203 L 3.4194499528847757,-5.520554929927698 L 3.4079251817581735,-5.507130178443063 L 3.3981057447168723,-5.489438942444906 L 3.3920485317536446,-5.470133208942443 L 3.390001525878901,-5.450003356933578 L 3.3900030517578017,-5.449988351741439 L 3.3900030517578017,-2.481421203613266 L 3.208583679199208,-2.300001831054672 L 3.049999999999983,-2.300001831054672 L 3.049999999999983,-3.049999999999983 L 1.3499999999999943,-3.049999999999983 L 1.3499999999999943,-1.3499999999999943 L 3.049999999999983,-1.3499999999999943 L 3.049999999999983,-2.1000048828124847 L 3.250003662109364,-2.1000048828124847 L 3.250003662109364,-2.100388569729361 L 3.2550685789932317,-2.100131706216473 L 3.2750689153352397,-2.1031956450469522 L 3.2940430772651297,-2.1102229029765027 L 3.3112142603641246,-2.1209257832398123 L 3.3203741302274636,-2.129632888815479 L 3.320712890624989,-2.1292941284179534 L 3.5607107543945204,-2.3692919921874847 L 3.560371993996995,-2.36963075258501 L 3.5658773381481694,-2.3748639724308873 L 3.5774361874933476,-2.3914710244499986 L 3.585415451518898,-2.410064908405772 L 3.589488458218085,-2.4298843885043624 L 3.589488458218085,-2.4400012207031097 L 3.589999999999989,-2.4400012207031097 L 3.589999999999989,-5.408583374023422 L 4.5113943481445204,-6.329977722167953 L 10.56290039062499,-6.329977722167953 L 10.934985961914052,-5.957892150878891 L 10.934985961914052,-4.288023428043687 L 10.934984436035151,-4.288008422851547 L 10.937031441909895,-4.267878570842683 L 10.943088654873122,-4.24857283734022 L 10.952908091914423,-4.2308816013420625 L 10.964432863041026,-4.217456849857427 L 10.96427520751952,-4.217299194335922 L 12.151373498873724,-3.030208148366242 L 12.076334335930312,-3.0239902260484257 L 11.820091065595932,-2.9115915065231377 L 11.61422756701306,-2.722080805786206 L 11.481052344554456,-2.4759945488239765 z" /><path fill-rule="evenodd" fill="#66cc99" stroke="#000000" stroke-width="0.05" opacity="1.0" d="M 11.481052344554456,-5.015994548823969 L 11.434996999999996,-4.739999999999981 L 11.481052344554456,-4.464005451175993 L 11.61422756701306,-4.2179191942137635 L 11.820091065595932,-4.028408493476832 L 12.076334335930312,-3.9160097739515436 L 12.355189443651469,-3.892903180944316 L 12.626438110955021,-3.961592672343187 L 12.860686335881866,-4.114634675927817 L 13.032549688525506,-4.33544471591847 L 13.123404107892298,-4.60009459826135 L 13.123404107892298,-4.879905401738611 L 13.032549688525506,-5.144555284081491 L 12.860686335881866,-5.365365324072144 L 12.626438110955007,-5.518407327656774 L 12.355189443651469,-5.587096819055645 L 12.076334335930312,-5.563990226048418 L 11.820091065595932,-5.45159150652313 L 11.765282982622011,-5.401137111829868 L 11.534999694824208,-5.631422466598508 L 11.534999694824208,-6.164999694824203 L 11.534488153042304,-6.164999694824203 L 11.534488153042304,-6.175116527022951 L 11.530415146343117,-6.194936007121541 L 11.522435882317566,-6.2135298910773145 L 11.510877032972388,-6.230136943096426 L 11.505371688821214,-6.235370162942303 L 11.50571044921874,-6.235708923339828 L 10.90643127844784,-6.834988094110727 L 10.905415146343117,-6.839932650187947 L 10.897435882317566,-6.858526534143721 L 10.885877032972388,-6.875133586162832 L 10.880387259410327,-6.8803520050600895 L 10.880725708007802,-6.880690307617172 L 10.860736694335927,-6.900686950683578 L 10.860398245738452,-6.900348648126496 L 10.851222805286,-6.909070554650782 L 10.834051622187005,-6.919773434914092 L 10.815077460257115,-6.926800692843642 L 10.795077123915107,-6.929864631674121 L 10.79001220703124,-6.929607768161233 L 10.79001220703124,-6.92999145507811 L 4.2899893188476454,-6.92999145507811 L 4.2899893188476454,-6.929607768161233 L 4.27484654109719,-6.928839813389828 L 4.255258793563158,-6.923768194171728 L 4.237092917814948,-6.9148574067064885 L 4.221092626940077,-6.902472259679925 L 4.219437745853526,-6.900544553951136 L 4.2192800903320204,-6.900702209472641 L 2.7202010099234286,-5.401617656754226 L 2.541441110955006,-5.518407327656774 L 2.2701924436514673,-5.587096819055645 L 1.9913373359303108,-5.563990226048418 L 1.7350940655959306,-5.45159150652313 L 1.5292305670130588,-5.262080805786198 L 1.3960553445544548,-5.015994548823969 L 1.3499999999999943,-4.739999999999981 L 1.3960553445544548,-4.464005451175993 L 1.5292305670130588,-4.2179191942137635 L 1.7350940655959306,-4.028408493476832 L 1.9913373359303108,-3.9160097739515436 L 2.2701924436514673,-3.892903180944316 L 2.541441110955006,-3.961592672343187 L 2.7756893358818644,-4.114634675927817 L 2.947552688525505,-4.33544471591847 L 3.038407107892297,-4.60009459826135 L 3.038407107892297,-4.879905401738611 L 2.947552688525505,-5.144555284081491 L 2.8593274055563285,-5.257907129957573 L 4.331409408676265,-6.729994506835922 L 10.730395873153512,-6.729994506835922 L 10.739449647708994,-6.719448121830084 L 10.73929199218749,-6.719290466308578 L 11.33500274658202,-6.123579711914047 L 11.33500274658202,-5.590017751774155 L 11.33500122070312,-5.590002746582016 L 11.337048226577863,-5.569872894573152 L 11.343105439541091,-5.550567161070688 L 11.352924876582392,-5.532875925072531 L 11.364449647708994,-5.519451173587896 L 11.36429199218749,-5.519293518066391 L 11.618015442277667,-5.265567790611769 L 11.61422756701306,-5.262080805786198 L 11.481052344554456,-5.015994548823969 z" /><path fill-rule="evenodd" fill="#66cc99" stroke="#000000" stroke-width="0.05" opacity="1.0" d="M 11.481052344554456,-7.555994548823975 L 11.460027420157488,-7.429999084472641 L 3.034941942232848,-7.429999084472641 L 2.947552688525505,-7.6845552840814975 L 2.7756893358818644,-7.90536532407215 L 2.541441110955006,-8.05840732765678 L 2.2701924436514673,-8.127096819055652 L 1.9913373359303108,-8.103990226048424 L 1.7350940655959306,-7.991591506523136 L 1.5292305670130588,-7.802080805786204 L 1.3960553445544548,-7.555994548823975 L 1.3499999999999943,-7.279999999999987 L 1.3960553445544548,-7.004005451175999 L 1.5292305670130588,-6.75791919421377 L 1.7350940655959306,-6.568408493476838 L 1.9913373359303108,-6.45600977395155 L 2.2701924436514673,-6.432903180944322 L 2.541441110955006,-6.501592672343193 L 2.7756893358818644,-6.654634675927824 L 2.947552688525505,-6.875444715918476 L 3.034940265961197,-7.129996032714828 L 11.460028234954777,-7.129996032714828 L 11.481052344554456,-7.004005451175999 L 11.61422756701306,-6.75791919421377 L 11.820091065595932,-6.568408493476838 L 12.076334335930312,-6.45600977395155 L 12.355189443651469,-6.432903180944322 L 12.626438110955021,-6.501592672343193 L 12.860686335881866,-6.654634675927824 L 13.032549688525506,-6.875444715918476 L 13.123404107892298,-7.140094598261356 L 13.123404107892298,-7.4199054017386175 L 13.032549688525506,-7.6845552840814975 L 12.860686335881866,-7.90536532407215 L 12.626438110955007,-8.05840732765678 L 12.355189443651469,-8.127096819055652 L 12.076334335930312,-8.103990226048424 L 11.820091065595932,-7.991591506523136 L 11.61422756701306,-7.802080805786204 L 11.481052344554456,-7.555994548823975 z" /><path fill-rule="evenodd" fill="#66cc99" stroke="#000000" stroke-width="0.05" opacity="1.0" d="M 11.481052344554456,-10.095994548823967 L 11.434996999999996,-9.819999999999979 L 11.481052344554456,-9.544005451175991 L 11.567123743341156,-9.384959436700527 L 11.293582763671864,-9.111418457031235 L 11.29389807471486,-9.111103145988238 L 11.270848532461656,-9.08425364301894 L 11.251209658379068,-9.048871171022654 L 11.249002769991364,-9.041837309188608 L 10.437168457193081,-8.230009765624985 L 4.0728262329101454,-8.230009765624985 L 2.921221541284069,-9.381614457251061 L 2.947552688525505,-9.415444715918468 L 3.038407107892297,-9.680094598261348 L 3.038407107892297,-9.95990540173861 L 2.947552688525505,-10.22455528408149 L 2.7756893358818644,-10.445365324072142 L 2.541441110955006,-10.598407327656773 L 2.2701924436514673,-10.667096819055644 L 1.9913373359303108,-10.643990226048416 L 1.7350940655959306,-10.531591506523128 L 1.5292305670130588,-10.342080805786196 L 1.3960553445544548,-10.095994548823967 L 1.3499999999999943,-9.819999999999979 L 1.3960553445544548,-9.544005451175991 L 1.5292305670130588,-9.297919194213762 L 1.7350940655959306,-9.10840849347683 L 1.9913373359303108,-8.996009773951542 L 2.2701924436514673,-8.972903180944314 L 2.541441110955006,-9.041592672343185 L 2.6346639666685974,-9.102498203741533 L 3.848567810058583,-7.888594360351547 L 3.8488831211015793,-7.8889096713945435 L 3.8521928832746966,-7.885054259936979 L 3.8841934650244383,-7.860283965883852 L 3.920525216520872,-7.842462390953386 L 3.9597007115889227,-7.832319152517172 L 3.989986267089833,-7.8307832429743485 L 3.989986267089833,-7.83001586914061 L 10.520007934570302,-7.83001586914061 L 10.520007934570302,-7.8307832429743485 L 10.53013776833805,-7.8302695159485864 L 10.570138441022053,-7.836397393609559 L 10.608086764881833,-7.850451909468646 L 10.642429131079837,-7.871857669995251 L 10.660748870806529,-7.88927188114657 L 10.661426391601552,-7.888594360351547 L 11.576419677734364,-8.803580017089828 L 11.575742156939341,-8.804257537884851 L 11.586752845241676,-8.814723977576634 L 11.609870543932033,-8.847938081614856 L 11.620465587516776,-8.872627452751146 L 11.845222819080803,-9.097384684315173 L 12.076334335930312,-8.996009773951542 L 12.355189443651469,-8.972903180944314 L 12.626438110955021,-9.041592672343185 L 12.860686335881866,-9.194634675927816 L 13.032549688525506,-9.415444715918468 L 13.123404107892298,-9.680094598261348 L 13.123404107892298,-9.95990540173861 L 13.032549688525506,-10.22455528408149 L 12.860686335881866,-10.445365324072142 L 12.626438110955007,-10.598407327656773 L 12.355189443651469,-10.667096819055644 L 12.076334335930312,-10.643990226048416 L 11.820091065595932,-10.531591506523128 L 11.61422756701306,-10.342080805786196 L 11.481052344554456,-10.095994548823967 z" /><path fill-rule="evenodd" fill="#66cc99" stroke="#000000" stroke-width="0.05" opacity="1.0" d="M 13.134996999999984,-11.509999999999991 L 13.134996999999984,-13.20999999999998 L 11.434996999999996,-13.20999999999998 L 11.434996999999996,-12.609999389648422 L 10.934993591308583,-12.609999389648422 L 10.934993591308583,-12.60903635765898 L 10.897136646932438,-12.607116470730446 L 10.848167278097378,-12.59443742268519 L 10.802752588726847,-12.57216045402211 L 10.762751861539655,-12.541197586455695 L 10.758614658823262,-12.536378322133743 L 10.75822052001952,-12.536772460937485 L 10.308215942382802,-12.086767883300766 L 10.308610081186544,-12.086373744497024 L 10.279798153370052,-12.0528118657854 L 10.255249560766813,-12.00858377579003 L 10.240106528358737,-11.960319442033864 L 10.234989013671864,-11.909994812011703 L 10.234989013671864,-9.442059554317126 L 10.032930525864899,-9.239996643066391 L 4.6235159301757704,-9.239996643066391 L 4.6235159301757704,-10.186484069824203 L 4.622233261023737,-10.186484069824203 L 4.622233261023737,-10.211776150321057 L 4.612050744275777,-10.261324850567547 L 4.592102584211915,-10.307809560456974 L 4.5632054608489625,-10.349327190504752 L 4.54944210047104,-10.362410240119473 L 4.550289001464833,-10.363257141113266 L 2.9502485756740384,-11.96329756690406 L 3.038407107892297,-12.220094598261355 L 3.038407107892297,-12.499905401738616 L 2.947552688525505,-12.764555284081496 L 2.7756893358818644,-12.985365324072148 L 2.541441110955006,-13.138407327656779 L 2.2701924436514673,-13.20709681905565 L 1.9913373359303108,-13.183990226048422 L 1.7350940655959306,-13.071591506523134 L 1.5292305670130588,-12.882080805786202 L 1.3960553445544548,-12.635994548823973 L 1.3499999999999943,-12.359999999999985 L 1.3960553445544548,-12.084005451175997 L 1.5292305670130588,-11.837919194213768 L 1.7350940655959306,-11.648408493476836 L 1.9913373359303108,-11.536009773951548 L 2.2701924436514673,-11.51290318094432 L 2.541441110955006,-11.581592672343191 L 2.5918968231009956,-11.614557034320853 L 4.1235159301757704,-10.082937927246078 L 4.1235159301757704,-8.989996643066391 L 4.128633444862643,-8.93967201304423 L 4.14377647727072,-8.891407679288065 L 4.1683250698739585,-8.847179589292693 L 4.201274200406843,-8.808798446259104 L 4.241274927594034,-8.777835578692702 L 4.286689616964566,-8.755558610029624 L 4.3356589857996255,-8.742879561984367 L 4.3735159301757704,-8.740959675055834 L 4.3735159301757704,-8.739996643066391 L 10.136485900878895,-8.739996643066391 L 10.136485900878895,-8.740959675055834 L 10.149148193088578,-8.740317516273635 L 10.19914903394357,-8.747977363349847 L 10.24658443876831,-8.765545508173702 L 10.289512396515818,-8.792302708831969 L 10.31241596371828,-8.814074172910225 L 10.31326660156249,-8.813223571777328 L 10.661769714355458,-9.161734313964828 L 10.660919076511249,-9.162584915097725 L 10.674678544345056,-9.175664264573342 L 10.703575667708009,-9.21718189462112 L 10.72352382777187,-9.263666604510547 L 10.733706344519831,-9.313215304757037 L 10.733706344519831,-9.338507385253891 L 10.734989013671864,-9.338507385253891 L 10.734989013671864,-11.806448669433578 L 11.038539733886708,-12.109999389648422 L 11.434996999999996,-12.109999389648422 L 11.434996999999996,-11.509999999999991 L 13.134996999999984,-11.509999999999991 z" /><path fill-rule="evenodd" fill="#000000" stroke="#000000" stroke-width="0.05" opacity="1.0" d="M 11.783419999999992,-12.359999999999985 L 11.793662807996071,-12.259274246518018 L 11.823971890221472,-12.162672217218386 L 11.873106389288708,-12.074148810530858 L 11.939054733032904,-11.997328185126278 L 12.019116988512593,-11.935355386434765 L 12.110015397581506,-11.890767588116233 L 12.208028568692256,-11.86539021987268 L 12.309143831103512,-11.860262234141729 L 12.409221514091612,-11.875593571261717 L 12.50416442555641,-11.910756564489574 L 12.590085591547194,-11.964311636751106 L 12.663467389433023,-12.034066237095445 L 12.72130555978643,-12.117164603988684 L 12.761232201117451,-12.210204680526573 L 12.781612712038836,-12.30937739504391 L 12.781612712038836,-12.41062260495606 L 12.761232201117451,-12.509795319473398 L 12.72130555978643,-12.602835396011287 L 12.663467389433023,-12.685933762904526 L 12.590085591547194,-12.755688363248865 L 12.50416442555641,-12.809243435510396 L 12.409221514091612,-12.844406428738253 L 12.309143831103512,-12.859737765858242 L 12.208028568692256,-12.85460978012729 L 12.110015397581506,-12.829232411883737 L 12.019116988512593,-12.784644613565206 L 11.939054733032904,-12.722671814873692 L 11.873106389288708,-12.645851189469113 L 11.823971890221472,-12.557327782781584 L 11.793662807996071,-12.460725753481952 L 11.783419999999992,-12.359999999999985 z" /><path fill-rule="evenodd" fill="#000000" stroke="#000000" stroke-width="0.05" opacity="1.0" d="M 11.783419999999992,-9.819999999999993 L 11.793662807996071,-9.719274246518026 L 11.823971890221472,-9.622672217218394 L 11.873106389288708,-9.534148810530866 L 11.939054733032904,-9.457328185126286 L 12.019116988512593,-9.395355386434773 L 12.110015397581506,-9.350767588116241 L 12.208028568692256,-9.325390219872688 L 12.309143831103512,-9.320262234141737 L 12.409221514091612,-9.335593571261725 L 12.50416442555641,-9.370756564489582 L 12.590085591547194,-9.424311636751113 L 12.663467389433023,-9.494066237095453 L 12.72130555978643,-9.577164603988692 L 12.761232201117451,-9.67020468052658 L 12.781612712038836,-9.769377395043918 L 12.781612712038836,-9.870622604956068 L 12.761232201117451,-9.969795319473405 L 12.72130555978643,-10.062835396011295 L 12.663467389433023,-10.145933762904534 L 12.590085591547194,-10.215688363248873 L 12.50416442555641,-10.269243435510404 L 12.409221514091612,-10.304406428738261 L 12.309143831103512,-10.31973776585825 L 12.208028568692256,-10.314609780127299 L 12.110015397581506,-10.289232411883745 L 12.019116988512593,-10.244644613565214 L 11.939054733032904,-10.1826718148737 L 11.873106389288708,-10.10585118946912 L 11.823971890221472,-10.017327782781592 L 11.793662807996071,-9.92072575348196 L 11.783419999999992,-9.819999999999993 z" /><path fill-rule="evenodd" fill="#000000" stroke="#000000" stroke-width="0.05" opacity="1.0" d="M 11.783419999999992,-7.279999999999987 L 11.793662807996071,-7.17927424651802 L 11.823971890221472,-7.082672217218388 L 11.873106389288708,-6.994148810530859 L 11.939054733032904,-6.91732818512628 L 12.019116988512593,-6.855355386434766 L 12.110015397581506,-6.810767588116235 L 12.208028568692256,-6.785390219872681 L 12.309143831103512,-6.7802622341417305 L 12.409221514091612,-6.795593571261719 L 12.50416442555641,-6.830756564489576 L 12.590085591547194,-6.884311636751107 L 12.663467389433023,-6.9540662370954465 L 12.72130555978643,-7.0371646039886855 L 12.761232201117451,-7.130204680526575 L 12.781612712038836,-7.229377395043912 L 12.781612712038836,-7.330622604956062 L 12.761232201117451,-7.429795319473399 L 12.72130555978643,-7.522835396011288 L 12.663467389433023,-7.605933762904527 L 12.590085591547194,-7.675688363248867 L 12.50416442555641,-7.729243435510398 L 12.409221514091612,-7.764406428738255 L 12.309143831103512,-7.779737765858243 L 12.208028568692256,-7.774609780127292 L 12.110015397581506,-7.749232411883739 L 12.019116988512593,-7.704644613565208 L 11.939054733032904,-7.642671814873694 L 11.873106389288708,-7.5658511894691145 L 11.823971890221472,-7.477327782781586 L 11.793662807996071,-7.380725753481954 L 11.783419999999992,-7.279999999999987 z" /><path fill-rule="evenodd" fill="#000000" stroke="#000000" stroke-width="0.05" opacity="1.0" d="M 11.783419999999992,-4.739999999999981 L 11.793662807996071,-4.6392742465180135 L 11.823971890221472,-4.5426722172183815 L 11.873106389288708,-4.454148810530853 L 11.939054733032904,-4.377328185126274 L 12.019116988512593,-4.31535538643476 L 12.110015397581506,-4.270767588116229 L 12.208028568692256,-4.245390219872675 L 12.309143831103512,-4.240262234141724 L 12.409221514091612,-4.255593571261713 L 12.50416442555641,-4.29075656448957 L 12.590085591547194,-4.344311636751101 L 12.663467389433023,-4.41406623709544 L 12.72130555978643,-4.497164603988679 L 12.761232201117451,-4.590204680526568 L 12.781612712038836,-4.6893773950439055 L 12.781612712038836,-4.790622604956056 L 12.761232201117451,-4.889795319473393 L 12.72130555978643,-4.982835396011282 L 12.663467389433023,-5.065933762904521 L 12.590085591547194,-5.13568836324886 L 12.50416442555641,-5.189243435510392 L 12.409221514091612,-5.224406428738249 L 12.309143831103512,-5.239737765858237 L 12.208028568692256,-5.234609780127286 L 12.110015397581506,-5.2092324118837325 L 12.019116988512593,-5.164644613565201 L 11.939054733032904,-5.102671814873688 L 11.873106389288708,-5.025851189469108 L 11.823971890221472,-4.93732778278158 L 11.793662807996071,-4.840725753481948 L 11.783419999999992,-4.739999999999981 z" /><path fill-rule="evenodd" fill="#000000" stroke="#000000" stroke-width="0.05" opacity="1.0" d="M 11.783419999999992,-2.1999999999999886 L 11.793662807996071,-2.0992742465180214 L 11.823971890221472,-2.0026722172183895 L 11.873106389288708,-1.914148810530861 L 11.939054733032904,-1.8373281851262817 L 12.019116988512593,-1.775355386434768 L 12.110015397581506,-1.7307675881162368 L 12.208028568692256,-1.7053902198726831 L 12.309143831103512,-1.7002622341417322 L 12.409221514091612,-1.7155935712617207 L 12.50416442555641,-1.7507565644895777 L 12.590085591547194,-1.804311636751109 L 12.663467389433023,-1.8740662370954482 L 12.72130555978643,-1.9571646039886872 L 12.761232201117451,-2.0502046805265763 L 12.781612712038836,-2.1493773950439135 L 12.781612712038836,-2.250622604956064 L 12.761232201117451,-2.349795319473401 L 12.72130555978643,-2.44283539601129 L 12.663467389433023,-2.525933762904529 L 12.590085591547194,-2.5956883632488683 L 12.50416442555641,-2.6492434355103995 L 12.409221514091612,-2.6844064287382565 L 12.309143831103512,-2.699737765858245 L 12.208028568692256,-2.694609780127294 L 12.110015397581506,-2.6692324118837405 L 12.019116988512593,-2.6246446135652093 L 11.939054733032904,-2.5626718148736956 L 11.873106389288708,-2.485851189469116 L 11.823971890221472,-2.3973277827815878 L 11.793662807996071,-2.300725753481956 L 11.783419999999992,-2.1999999999999886 z" /><path fill-rule="evenodd" fill="#000000" stroke="#000000" stroke-width="0.05" opacity="1.0" d="M 1.699619999999996,-12.359999999999985 L 1.7098628079960747,-12.259274246518018 L 1.7401718902214753,-12.162672217218386 L 1.7893063892887113,-12.074148810530858 L 1.8552547330329077,-11.997328185126278 L 1.9353169885125965,-11.935355386434765 L 2.0262153975815096,-11.890767588116233 L 2.12422856869226,-11.86539021987268 L 2.2253438311035154,-11.860262234141729 L 2.325421514091616,-11.875593571261717 L 2.4203644255564143,-11.910756564489574 L 2.506285591547197,-11.964311636751106 L 2.579667389433027,-12.034066237095445 L 2.637505559786433,-12.117164603988684 L 2.6774322011174547,-12.210204680526573 L 2.6978127120388393,-12.30937739504391 L 2.6978127120388393,-12.41062260495606 L 2.6774322011174547,-12.509795319473398 L 2.637505559786433,-12.602835396011287 L 2.579667389433027,-12.685933762904526 L 2.506285591547197,-12.755688363248865 L 2.4203644255564143,-12.809243435510396 L 2.325421514091616,-12.844406428738253 L 2.2253438311035154,-12.859737765858242 L 2.12422856869226,-12.85460978012729 L 2.0262153975815096,-12.829232411883737 L 1.9353169885125965,-12.784644613565206 L 1.8552547330329077,-12.722671814873692 L 1.7893063892887113,-12.645851189469113 L 1.7401718902214753,-12.557327782781584 L 1.7098628079960747,-12.460725753481952 L 1.699619999999996,-12.359999999999985 z" /><path fill-rule="evenodd" fill="#000000" stroke="#000000" stroke-width="0.05" opacity="1.0" d="M 1.699619999999996,-9.819999999999993 L 1.7098628079960747,-9.719274246518026 L 1.7401718902214753,-9.622672217218394 L 1.7893063892887113,-9.534148810530866 L 1.8552547330329077,-9.457328185126286 L 1.9353169885125965,-9.395355386434773 L 2.0262153975815096,-9.350767588116241 L 2.12422856869226,-9.325390219872688 L 2.2253438311035154,-9.320262234141737 L 2.325421514091616,-9.335593571261725 L 2.4203644255564143,-9.370756564489582 L 2.506285591547197,-9.424311636751113 L 2.579667389433027,-9.494066237095453 L 2.637505559786433,-9.577164603988692 L 2.6774322011174547,-9.67020468052658 L 2.6978127120388393,-9.769377395043918 L 2.6978127120388393,-9.870622604956068 L 2.6774322011174547,-9.969795319473405 L 2.637505559786433,-10.062835396011295 L 2.579667389433027,-10.145933762904534 L 2.506285591547197,-10.215688363248873 L 2.4203644255564143,-10.269243435510404 L 2.325421514091616,-10.304406428738261 L 2.2253438311035154,-10.31973776585825 L 2.12422856869226,-10.314609780127299 L 2.0262153975815096,-10.289232411883745 L 1.9353169885125965,-10.244644613565214 L 1.8552547330329077,-10.1826718148737 L 1.7893063892887113,-10.10585118946912 L 1.7401718902214753,-10.017327782781592 L 1.7098628079960747,-9.92072575348196 L 1.699619999999996,-9.819999999999993 z" /><path fill-rule="evenodd" fill="#000000" stroke="#000000" stroke-width="0.05" opacity="1.0" d="M 1.699619999999996,-7.279999999999987 L 1.7098628079960747,-7.17927424651802 L 1.7401718902214753,-7.082672217218388 L 1.7893063892887113,-6.994148810530859 L 1.8552547330329077,-6.91732818512628 L 1.9353169885125965,-6.855355386434766 L 2.0262153975815096,-6.810767588116235 L 2.12422856869226,-6.785390219872681 L 2.2253438311035154,-6.7802622341417305 L 2.325421514091616,-6.795593571261719 L 2.4203644255564143,-6.830756564489576 L 2.506285591547197,-6.884311636751107 L 2.579667389433027,-6.9540662370954465 L 2.637505559786433,-7.0371646039886855 L 2.6774322011174547,-7.130204680526575 L 2.6978127120388393,-7.229377395043912 L 2.6978127120388393,-7.330622604956062 L 2.6774322011174547,-7.429795319473399 L 2.637505559786433,-7.522835396011288 L 2.579667389433027,-7.605933762904527 L 2.506285591547197,-7.675688363248867 L 2.4203644255564143,-7.729243435510398 L 2.325421514091616,-7.764406428738255 L 2.2253438311035154,-7.779737765858243 L 2.12422856869226,-7.774609780127292 L 2.0262153975815096,-7.749232411883739 L 1.9353169885125965,-7.704644613565208 L 1.8552547330329077,-7.642671814873694 L 1.7893063892887113,-7.5658511894691145 L 1.7401718902214753,-7.477327782781586 L 1.7098628079960747,-7.380725753481954 L 1.699619999999996,-7.279999999999987 z" /><path fill-rule="evenodd" fill="#000000" stroke="#000000" stroke-width="0.05" opacity="1.0" d="M 1.699619999999996,-4.739999999999981 L 1.7098628079960747,-4.6392742465180135 L 1.7401718902214753,-4.5426722172183815 L 1.7893063892887113,-4.454148810530853 L 1.8552547330329077,-4.377328185126274 L 1.9353169885125965,-4.31535538643476 L 2.0262153975815096,-4.270767588116229 L 2.12422856869226,-4.245390219872675 L 2.2253438311035154,-4.240262234141724 L 2.325421514091616,-4.255593571261713 L 2.4203644255564143,-4.29075656448957 L 2.506285591547197,-4.344311636751101 L 2.579667389433027,-4.41406623709544 L 2.637505559786433,-4.497164603988679 L 2.6774322011174547,-4.590204680526568 L 2.6978127120388393,-4.6893773950439055 L 2.6978127120388393,-4.790622604956056 L 2.6774322011174547,-4.889795319473393 L 2.637505559786433,-4.982835396011282 L 2.579667389433027,-5.065933762904521 L 2.506285591547197,-5.13568836324886 L 2.4203644255564143,-5.189243435510392 L 2.325421514091616,-5.224406428738249 L 2.2253438311035154,-5.239737765858237 L 2.12422856869226,-5.234609780127286 L 2.0262153975815096,-5.2092324118837325 L 1.9353169885125965,-5.164644613565201 L 1.8552547330329077,-5.102671814873688 L 1.7893063892887113,-5.025851189469108 L 1.7401718902214753,-4.93732778278158 L 1.7098628079960747,-4.840725753481948 L 1.699619999999996,-4.739999999999981 z" /><path fill-rule="evenodd" fill="#000000" stroke="#000000" stroke-width="0.05" opacity="1.0" d="M 1.699619999999996,-2.1999999999999886 L 1.7098628079960747,-2.0992742465180214 L 1.7401718902214753,-2.0026722172183895 L 1.7893063892887113,-1.914148810530861 L 1.8552547330329077,-1.8373281851262817 L 1.9353169885125965,-1.775355386434768 L 2.0262153975815096,-1.7307675881162368 L 2.12422856869226,-1.7053902198726831 L 2.2253438311035154,-1.7002622341417322 L 2.325421514091616,-1.7155935712617207 L 2.4203644255564143,-1.7507565644895777 L 2.506285591547197,-1.804311636751109 L 2.579667389433027,-1.8740662370954482 L 2.637505559786433,-1.9571646039886872 L 2.6774322011174547,-2.0502046805265763 L 2.6978127120388393,-2.1493773950439135 L 2.6978127120388393,-2.250622604956064 L 2.6774322011174547,-2.349795319473401 L 2.637505559786433,-2.44283539601129 L 2.579667389433027,-2.525933762904529 L 2.506285591547197,-2.5956883632488683 L 2.4203644255564143,-2.6492434355103995 L 2.325421514091616,-2.6844064287382565 L 2.2253438311035154,-2.699737765858245 L 2.12422856869226,-2.694609780127294 L 2.0262153975815096,-2.6692324118837405 L 1.9353169885125965,-2.6246446135652093 L 1.8552547330329077,-2.5626718148736956 L 1.7893063892887113,-2.485851189469116 L 1.7401718902214753,-2.3973277827815878 L 1.7098628079960747,-2.300725753481956 L 1.699619999999996,-2.1999999999999886 z" /><polyline fill="none" stroke="#000000" stroke-width="0.05" points="2.546939275149711,-11.376671869797505 2.319289541079627,-11.319023127756452 2.253676574557005,-11.313586282342982 1.9748214668358486,-11.33669287535021 1.910998250999711,-11.352855108620545 1.6547549806653308,-11.465253828145833 1.5996377512707767,-11.501263711342204 1.393774252687905,-11.690774412079136 1.3533358167717608,-11.742729715606345 1.2201605943131568,-11.988815972568574 1.1987830838739058,-12.051086533119857 1.1527277393194453,-12.327081081943845 1.1527277393194453,-12.392918918056125 1.1987830838739058,-12.668913466880113 1.2201605943131568,-12.731184027431397 1.3533358167717608,-12.977270284393626 1.393774252687905,-13.029225587920834 1.5996377512707767,-13.218736288657766 1.6547549806653308,-13.254746171854137 1.910998250999711,-13.367144891379425 1.9748214668358486,-13.383307124649761 2.253676574557005,-13.406413717656989 2.319289541079627,-13.400976872243518 2.5905382083831654,-13.332287380844647 2.650830742579487,-13.305840623309294 2.8850789675063453,-13.152798619724663 2.9335174377611395,-13.108207866610087 3.10538079040478,-12.887397826619434 3.13671613686563,-12.829495177922425 3.227570556232422,-12.564845295579545 3.2384071078923,-12.499905401738616 3.2384071078923,-12.220094598261355 3.227570556232422,-12.155154704420426 3.179949512390536,-12.016439342662196 4.691710357702149,-10.504678497350582 4.695381902153741,-10.499625049947198 4.7009988446641415,-10.494285747950542 4.727358149090406,-10.463580833523736 4.756255272453359,-10.422063203475957 4.775894146535961,-10.386680731479629 4.795842306599823,-10.340196021590202 4.807956732526279,-10.301584554585261 4.818139249274239,-10.252035854338772 4.821976562457948,-10.221905984088849 4.823259231609981,-10.196613903591995 4.823515930175773,-10.186484069824203 4.823515930175773,-9.439996643066394 9.95008653100372,-9.439996643066394 10.034989013671861,-9.524900984411005 10.034989013671861,-11.909994812011703 10.036015148993485,-11.930228476409184 10.041132663680358,-11.980553106431344 10.049278677078732,-12.020192066628567 10.064421709486808,-12.068456400384733 10.080380237537895,-12.105644168296237 10.104928830141134,-12.149872258291609 10.126423266713857,-12.181171299187085 10.154841055726607,-12.21512731670245 10.166794586145485,-12.228189239538082 10.616799163782204,-12.678193817174801 10.62219778055237,-12.682116141850727 10.64033066503012,-12.699352733843241 10.680331392217312,-12.730315601409657 10.71467375841533,-12.751721361936262 10.760088447785861,-12.77399833059934 10.798036771645641,-12.788052846458427 10.847006140480701,-12.800731894503684 10.881950024087374,-12.806539053419968 10.919806968463519,-12.809421972337944 10.934993591308583,-12.809999389648425 11.234996999999993,-12.809999389648425 11.234996999999993,-13.20999999999998 11.244785696740962,-13.271803398874965 11.273193601125001,-13.32755705045848 11.317439949541495,-13.371803398874974 11.37319360112501,-13.400211303259013 11.434996999999996,-13.409999999999982 13.134996999999984,-13.409999999999982 13.19680039887497,-13.400211303259013 13.252554050458485,-13.371803398874974 13.296800398874979,-13.32755705045848 13.325208303259018,-13.271803398874965 13.334996999999987,-13.20999999999998 13.334996999999987,-11.509999999999991 13.325208303259018,-11.448196601125005 13.296800398874979,-11.39244294954149 13.252554050458485,-11.348196601124997 13.19680039887497,-11.319788696740957 13.134996999999984,-11.309999999999988 11.434996999999996,-11.309999999999988 11.37319360112501,-11.319788696740957 11.317439949541495,-11.348196601124997 11.273193601125001,-11.39244294954149 11.244785696740962,-11.448196601125005 11.234996999999993,-11.509999999999991 11.234996999999993,-11.90999938964842 11.121382446361338,-11.90999938964842 10.934989013671867,-11.723605956958949 10.934989013671867,-9.338507385253891 10.933706344519834,-9.330408930952416 10.933706344519834,-9.313215304757037 10.929612332770333,-9.272955600739323 10.919429816022372,-9.223406900492833 10.907315390095917,-9.184795433487892 10.887367230032055,-9.138310723598465 10.867728355949453,-9.102928251602137 10.8388312325865,-9.061410621554359 10.8213743475673,-9.039721845450472 10.808465517577702,-9.025791894841959 10.803192618558285,-9.02031450570999 10.454689505765316,-8.67180376352249 10.447678390791026,-8.666709761681304 10.427305780331025,-8.647344151386207 10.395305198581227,-8.622573857333023 10.352377240833718,-8.595816656674756 10.316045489337228,-8.577995081744263 10.268610084512488,-8.560426936920408 10.229434589444494,-8.550283698484222 10.179433748589503,-8.54262385140801 10.154214735951328,-8.540381701214358 10.141552443741645,-8.540060828007114 10.136485900878895,-8.539996643066388 4.3735159301757704,-8.539996643066388 4.363405449591141,-8.5415979858752 4.363386096408007,-8.541216373621623 4.325529152031862,-8.543136260550156 4.285528479347889,-8.549264138211129 4.236559110512829,-8.561943186256386 4.198610786653049,-8.575997702115473 4.1531960972825175,-8.598274670778551 4.118853731084542,-8.619680431305142 4.0788530038973505,-8.650643298871543 4.049522575868252,-8.678523949714702 4.016573445335368,-8.716905092748291 3.99345574664504,-8.750119196786486 3.9689071540418013,-8.794347286781857 3.9529486259907145,-8.831535054693362 3.937805593582638,-8.879799388449527 3.929659580184264,-8.91943834864675 3.9245420654973913,-8.96976297866891 3.9235159301757676,-8.989996643066391 3.9235159301757676,-10.000095214771449 2.546939275149711,-11.376671869797505" opacity="0.8" /><polyline fill="none" stroke="#000000" stroke-width="0.05" points="2.601707523100387,-8.85261193483511 2.5905382083831654,-8.847712619155317 2.319289541079627,-8.779023127756446 2.253676574557005,-8.773586282342976 1.9748214668358486,-8.796692875350203 1.910998250999711,-8.81285510862054 1.6547549806653308,-8.925253828145827 1.5996377512707767,-8.961263711342198 1.393774252687905,-9.15077441207913 1.3533358167717608,-9.202729715606338 1.2201605943131568,-9.448815972568568 1.1987830838739058,-9.511086533119851 1.1527277393194453,-9.787081081943839 1.1527277393194453,-9.852918918056119 1.1987830838739058,-10.128913466880107 1.2201605943131568,-10.19118402743139 1.3533358167717608,-10.43727028439362 1.393774252687905,-10.489225587920828 1.5996377512707767,-10.67873628865776 1.6547549806653308,-10.71474617185413 1.910998250999711,-10.827144891379419 1.9748214668358486,-10.843307124649755 2.253676574557005,-10.866413717656982 2.319289541079627,-10.860976872243512 2.5905382083831654,-10.792287380844641 2.650830742579487,-10.765840623309288 2.8850789675063453,-10.612798619724657 2.9335174377611395,-10.56820786661008 3.10538079040478,-10.347397826619428 3.13671613686563,-10.289495177922419 3.227570556232422,-10.024845295579539 3.2384071078923,-9.95990540173861 3.2384071078923,-9.680094598261348 3.227570556232422,-9.61515470442042 3.161878481886916,-9.423800229122847 4.155668945384775,-8.430009765624987 10.354326233160364,-8.430009765624987 11.083932406442386,-9.159609855306797 11.095979209232738,-9.181314035525162 11.11747364580549,-9.212613076420638 11.140207877015698,-9.239777890432933 11.152161407434548,-9.252839813268551 11.32024973443039,-9.420928140264394 11.305157594313158,-9.448815972568582 11.283780083873907,-9.511086533119851 11.237724739319447,-9.787081081943839 11.237724739319447,-9.852918918056119 11.283780083873907,-10.128913466880107 11.305157594313158,-10.19118402743139 11.438332816771762,-10.43727028439362 11.478771252687906,-10.489225587920828 11.684634751270778,-10.67873628865776 11.739751980665332,-10.71474617185413 11.995995250999712,-10.827144891379419 12.05981846683585,-10.843307124649755 12.338673574557006,-10.866413717656982 12.404286541079628,-10.860976872243512 12.675535208383167,-10.792287380844641 12.735827742579488,-10.765840623309288 12.970075967506347,-10.612798619724657 13.01851443776114,-10.56820786661008 13.190377790404781,-10.347397826619428 13.221713136865631,-10.289495177922419 13.312567556232423,-10.024845295579539 13.323404107892301,-9.95990540173861 13.323404107892301,-9.680094598261348 13.312567556232423,-9.61515470442042 13.221713136865631,-9.35050482207754 13.190377790404781,-9.29260217338053 13.01851443776114,-9.071792133389877 12.970075967506347,-9.027201380275315 12.735827742579502,-8.874159376690685 12.675535208383181,-8.847712619155317 12.404286541079628,-8.779023127756446 12.338673574557006,-8.773586282342976 12.05981846683585,-8.796692875350203 11.995995250999712,-8.81285510862054 11.89002070264688,-8.859339855406617 11.786070744632497,-8.755389897392234 11.774023232173477,-8.733684438595887 11.75090553348312,-8.700470334557664 11.733408596731081,-8.678738351295479 11.723075429223769,-8.667594390808674 11.717840444368406,-8.66215807125171 10.802847158235593,-7.747172414513429 10.79734341891691,-7.743173745387423 10.78022251489493,-7.72689911254939 10.748221933145217,-7.702128818496291 10.713879566947213,-7.680723057969686 10.67754781545078,-7.662901483039221 10.639599491591,-7.648846967180134 10.600423996522977,-7.638703728743934 10.560423323838975,-7.6325758510829615 10.53514411563529,-7.630332184550127 10.525014281867541,-7.6300785377421505 10.520007934570302,-7.630015869140607 3.989986267089833,-7.630015869140607 3.979885630096689,-7.631615652877684 3.979856433322098,-7.631039941540138 3.9495708778211878,-7.6325758510829615 3.9095702051371433,-7.638703728743934 3.8703947100690925,-7.648846967180148 3.832446386209355,-7.662901483039235 3.7961146347129215,-7.680723057969701 3.761772268514889,-7.70212881849632 3.7297716867651474,-7.726899112549447 3.7124584885079486,-7.741965829520083 3.708833415291835,-7.745505929934652 3.7071464538212666,-7.747173004114231 2.601707523100387,-8.85261193483511" opacity="0.8" /><polyline fill="none" stroke="#000000" stroke-width="0.05" points="3.1216315675001596,-5.237369020702673 3.13671613686563,-5.20949517792242 3.190001729284603,-5.054279549860141 3.190001600031948,-5.305739302815695 3.1216315675001596,-5.237369020702673" opacity="0.8" /><polyline fill="none" stroke="#000000" stroke-width="0.05" points="11.334982910156242,-5.166296383942168 11.369908414553208,-5.230833063445289 11.334982910156242,-5.265758881325695 11.334982910156242,-5.166296383942168" opacity="0.8" /><polyline fill="none" stroke="#000000" stroke-width="0.05" points="3.1900020523693513,-4.4257213912535605 3.13671613686563,-4.270504822077541 3.10538079040478,-4.212602173380532 2.9335174377611395,-3.991792133389879 2.8850789675063453,-3.9472013802753025 2.650830742579487,-3.794159376690672 2.5905382083831654,-3.7677126191553185 2.319289541079627,-3.6990231277564476 2.253676574557005,-3.6935862823429773 1.9748214668358486,-3.716692875350205 1.910998250999711,-3.732855108620541 1.6547549806653308,-3.845253828145829 1.5996377512707767,-3.8812637113422 1.393774252687905,-4.070774412079132 1.3533358167717608,-4.12272971560634 1.2201605943131568,-4.368815972568569 1.1987830838739058,-4.431086533119853 1.1527277393194453,-4.707081081943841 1.1527277393194453,-4.772918918056121 1.1987830838739058,-5.048913466880109 1.2201605943131568,-5.111184027431392 1.3533358167717608,-5.357270284393621 1.393774252687905,-5.4092255879208295 1.5996377512707767,-5.598736288657761 1.6547549806653308,-5.6347461718541325 1.910998250999711,-5.7471448913794205 1.9748214668358486,-5.7633071246497565 2.253676574557005,-5.786413717656984 2.319289541079627,-5.780976872243514 2.5905382083831654,-5.712287380844643 2.650830742579487,-5.685840623309275 2.6936231618872455,-5.657882940423363 3.9657316104133145,-6.929996032714826 3.1777375212916326,-6.929996032714826 3.13671613686563,-6.810504822077547 3.10538079040478,-6.752602173380538 2.9335174377611395,-6.531792133389885 2.8850789675063453,-6.487201380275309 2.650830742579487,-6.334159376690678 2.5905382083831654,-6.307712619155325 2.319289541079627,-6.239023127756454 2.253676574557005,-6.2335862823429835 1.9748214668358486,-6.256692875350211 1.910998250999711,-6.272855108620547 1.6547549806653308,-6.385253828145835 1.5996377512707767,-6.421263711342206 1.393774252687905,-6.610774412079138 1.3533358167717608,-6.662729715606346 1.2201605943131568,-6.908815972568576 1.1987830838739058,-6.971086533119859 1.1527277393194453,-7.247081081943847 1.1527277393194453,-7.312918918056127 1.1987830838739058,-7.588913466880115 1.2201605943131568,-7.651184027431398 1.3533358167717608,-7.8972702843936275 1.393774252687905,-7.949225587920836 1.5996377512707767,-8.138736288657768 1.6547549806653308,-8.174746171854139 1.910998250999711,-8.287144891379427 1.9748214668358486,-8.303307124649763 2.253676574557005,-8.32641371765699 2.319289541079627,-8.32097687224352 2.5905382083831654,-8.252287380844649 2.650830742579487,-8.225840623309296 2.8850789675063453,-8.072798619724665 2.9335174377611395,-8.028207866610089 3.10538079040478,-7.807397826619436 3.13671613686563,-7.749495177922427 3.177739197563284,-7.629999084472644 11.297884794209125,-7.629999084472644 11.305157594313158,-7.651184027431398 11.438332816771762,-7.8972702843936275 11.478771252687906,-7.949225587920836 11.684634751270778,-8.138736288657768 11.739751980665332,-8.174746171854139 11.995995250999712,-8.287144891379427 12.05981846683585,-8.303307124649763 12.338673574557006,-8.32641371765699 12.404286541079628,-8.32097687224352 12.675535208383167,-8.252287380844649 12.735827742579488,-8.225840623309296 12.970075967506347,-8.072798619724665 13.01851443776114,-8.028207866610089 13.190377790404781,-7.807397826619436 13.221713136865631,-7.749495177922427 13.312567556232423,-7.484845295579547 13.323404107892301,-7.4199054017386175 13.323404107892301,-7.140094598261356 13.312567556232423,-7.075154704420427 13.221713136865631,-6.810504822077547 13.190377790404781,-6.752602173380538 13.01851443776114,-6.531792133389885 12.970075967506347,-6.487201380275323 12.735827742579502,-6.3341593766906925 12.675535208383181,-6.307712619155325 12.404286541079628,-6.239023127756454 12.338673574557006,-6.2335862823429835 12.05981846683585,-6.256692875350211 11.995995250999712,-6.272855108620547 11.739751980665332,-6.385253828145835 11.684634751270778,-6.421263711342206 11.478771252687906,-6.610774412079138 11.438332816771762,-6.662729715606346 11.305157594313158,-6.908815972568576 11.297886470480776,-6.929996032714826 11.094266052318375,-6.929996032714826 11.647131805456056,-6.377130279577145 11.648475640755677,-6.375280648966651 11.64867041678734,-6.375095500542429 11.675029721213832,-6.344390586115395 11.68658857055901,-6.327783534096284 11.706227444641598,-6.292401062100012 11.714206708667149,-6.273807178144239 11.726321134593604,-6.235195711139298 11.730394141292791,-6.2153762310407075 11.734232976148263,-6.185216311296372 11.734744517930167,-6.175099479097625 11.73499969482421,-6.164999694824203 11.73499969482421,-5.714264653287273 11.79172165459417,-5.6575421843938045 11.995995250999712,-5.7471448913794205 12.05981846683585,-5.7633071246497565 12.338673574557006,-5.786413717656984 12.404286541079628,-5.780976872243514 12.675535208383167,-5.712287380844643 12.735827742579488,-5.685840623309289 12.970075967506347,-5.532798619724659 13.01851443776114,-5.488207866610082 13.190377790404781,-5.26739782661943 13.221713136865631,-5.20949517792242 13.312567556232423,-4.94484529557954 13.323404107892301,-4.879905401738611 13.323404107892301,-4.60009459826135 13.312567556232423,-4.535154704420421 13.221713136865631,-4.270504822077541 13.190377790404781,-4.212602173380532 13.01851443776114,-3.991792133389879 12.970075967506347,-3.9472013802753168 12.735827742579502,-3.7941593766906863 12.675535208383181,-3.7677126191553185 12.404286541079628,-3.6990231277564476 12.338673574557006,-3.6935862823429773 12.05981846683585,-3.716692875350205 12.020646078223862,-3.726612671371271 12.497129847996703,-3.2501318097890675 12.498473758482177,-3.248282086377799 12.498668890908434,-3.2480965991752413 12.525028195334926,-3.2173916847482076 12.530935017053906,-3.2089051224074865 12.675535208383167,-3.172287380844651 12.735827742579488,-3.1458406233092973 12.970075967506347,-2.9927986197246668 13.01851443776114,-2.9482078666100904 13.190377790404781,-2.7273978266194376 13.221713136865631,-2.6694951779224283 13.312567556232423,-2.4048452955795483 13.323404107892301,-2.339905401738619 13.323404107892301,-2.060094598261358 13.312567556232423,-1.995154704420429 13.221713136865631,-1.730504822077549 13.190377790404781,-1.6726021733805396 13.01851443776114,-1.4517921333898869 12.970075967506347,-1.4072013802753247 12.735827742579502,-1.2541593766906942 12.675535208383181,-1.2277126191553265 12.404286541079628,-1.1590231277564556 12.338673574557006,-1.1535862823429852 12.05981846683585,-1.1766928753502128 11.995995250999712,-1.1928551086205488 11.739751980665332,-1.3052538281458368 11.684634751270778,-1.341263711342208 11.478771252687906,-1.5307744120791398 11.438332816771762,-1.582729715606348 11.305157594313158,-1.8288159725685773 11.283780083873907,-1.8910865331198607 11.237724739319447,-2.1670810819438486 11.237724739319447,-2.2329189180561286 11.283780083873907,-2.5089134668801165 11.305157594313158,-2.5711840274314 11.438332816771762,-2.8172702843936293 11.478771252687906,-2.8692255879208375 11.684634751270778,-3.0587362886577694 11.739751980665332,-3.0947461718541405 11.784404830410395,-3.114332727738912 10.82285428286265,-4.075877406519496 10.813888018251248,-4.088218339745865 10.812681238502535,-4.0871823533128975 10.801156467375932,-4.1006071047975325 10.778038768685505,-4.13382120883584 10.768219331644204,-4.1515124448339975 10.752260803593117,-4.18870021274553 10.74620359062989,-4.208005946247994 10.738057577231515,-4.2476449064452595 10.736010571356772,-4.267774758454124 10.73601057135646,-4.288023428043687 10.734985961914049,-4.288023428043687 10.734985961914049,-5.875049438404261 10.48005767815036,-6.129977722167951 4.59423706061915,-6.129977722167951 3.789999999999992,-5.325740661548792 3.789999999999992,-2.4400012207031097 3.789488458218088,-2.4367714730027927 3.789488458218088,-2.4298843885043624 3.7853944464685725,-2.3896246844866056 3.7813214397693855,-2.3698052043880153 3.76920701384293,-2.3311937373830744 3.7612277498173796,-2.312599853427301 3.7415888757347915,-2.2772173814310293 3.7300300263896133,-2.260610329411918 3.7125330896376596,-2.238878346149832 3.7073665058840106,-2.2333063659064294 3.702132110631837,-2.2278706359501683 3.4621342468623055,-1.987872772180637 3.457989592614581,-1.9848615046057887 3.458167514042671,-1.9846743313697317 3.449007644179332,-1.975967225794065 3.4170070624295903,-1.9511969317409097 3.3998358793305954,-1.9404940514776001 3.3635041278341333,-1.9226724765471062 3.3445299659042433,-1.9156452186175557 3.305354470836093,-1.9055019801813131 3.285354134494085,-1.902438041350834 3.2600749262904714,-1.900194374818014 3.255010009406604,-1.9000675514140255 3.250003662109364,-1.9000048828124818 3.249999999999986,-1.9000048828124818 3.249999999999986,-1.3499999999999943 3.2402113032590165,-1.2881966011250086 3.2118033988749772,-1.2324429495414932 3.167557050458484,-1.188196601125 3.1118033988749687,-1.1597886967409607 3.049999999999983,-1.1499999999999915 1.3499999999999943,-1.1499999999999915 1.2881966011250086,-1.1597886967409607 1.2324429495414932,-1.188196601125 1.188196601125,-1.2324429495414932 1.1597886967409607,-1.2881966011250086 1.1499999999999915,-1.3499999999999943 1.1499999999999915,-3.049999999999983 1.1597886967409607,-3.1118033988749687 1.188196601125,-3.167557050458484 1.2324429495414932,-3.2118033988749772 1.2881966011250086,-3.2402113032590165 1.3499999999999943,-3.249999999999986 3.049999999999983,-3.249999999999986 3.1118033988749687,-3.2402113032590165 3.167557050458484,-3.2118033988749772 3.1900026878717824,-3.189357761461679 3.1900020523693513,-4.4257213912535605" opacity="0.8" /><polyline fill="none" stroke="#000000" stroke-width="0.05" points="3.054519051473193,-10.656960059118063 3.22375186681424,-10.439529733522875 3.278588723120734,-10.338200098303119 3.369443142487526,-10.073550215960239 3.3884071078922915,-9.95990540173861 3.3884071078922915,-9.680094598261348 3.369443142487526,-9.566449784039719 3.3341541844242926,-9.46365656094143 3.773515930175776,-9.024294815189947 3.773515930175776,-9.93796318041548 3.054519051473193,-10.656960059118063" opacity="0.8" /><polyline fill="none" stroke="#000000" stroke-width="0.05" points="2.501140029930255,-11.210339080661 2.3561123641507464,-11.173613087865562 2.2412896727361584,-11.164098608391981 1.962434565015002,-11.187205201399209 1.8507439373017576,-11.215489109622283 1.5945006669673774,-11.32788782914757 1.4980455155269254,-11.390905124741238 1.2921820169440537,-11.58041582547817 1.2214147540907874,-11.671337606650795 1.0882395316321833,-11.917423863613024 1.0508288883634975,-12.026397344577745 1.004773543809037,-12.302391893401733 1.004773543809037,-12.417608106598237 1.0508288883634975,-12.693602655422225 1.0882395316321833,-12.802576136386946 1.2214147540907874,-13.048662393349176 1.2921820169440537,-13.1395841745218 1.4980455155269254,-13.329094875258733 1.5945006669673774,-13.3921121708524 1.8507439373017576,-13.504510890377688 1.962434565015002,-13.532794798600762 2.2412896727361584,-13.55590139160799 2.3561123641507464,-13.546386912134409 2.627361031454285,-13.477697420735538 2.7328729662978475,-13.431415595048662 2.967121191224706,-13.278373591464032 3.0518885141705994,-13.200339773513534 3.22375186681424,-12.979529733522881 3.278588723120734,-12.878200098303125 3.369443142487526,-12.613550215960245 3.3884071078922915,-12.499905401738616 3.3884071078922915,-12.220094598261355 3.369443142487526,-12.106449784039711 3.352225214927927,-12.056295674480765 4.797776374880129,-10.610744514528562 4.801291941230431,-10.6059057525638 4.804343882525529,-10.603004666034877 4.850472665271482,-10.549271065787977 4.879369788634435,-10.507753435740199 4.913737818279003,-10.445834109746613 4.933685978342865,-10.399349399857186 4.954886223714155,-10.331779332598558 4.965068740462115,-10.282230632352068 4.971784038533599,-10.229503359414707 4.973066707685632,-10.204211278917853 4.973515930175765,-10.186484069824203 4.973515930175765,-9.589996643066385 9.88498901367187,-9.589996643066385 9.88498901367187,-11.909994812011703 9.886784750484694,-11.94540372470729 9.891902265171566,-11.99572835472945 9.906157788618742,-12.065096535074602 9.921300821026819,-12.113360868830767 9.949228245116203,-12.178439462675897 9.973776837719441,-12.222667552671268 10.011392101721725,-12.277440874238351 10.039809890734475,-12.311396891753716 10.060728568967505,-12.334255256716062 10.510733146604224,-12.784259834352781 10.520574975866069,-12.791410341864875 10.548514767647973,-12.817969094383884 10.588515494835164,-12.8489319619503 10.648614635681682,-12.886392042871876 10.694029325052213,-12.908669011534954 10.760438891806828,-12.93326441428836 10.809408260641888,-12.945943462333616 10.870560056953565,-12.956105990437123 10.90841700132971,-12.9589889093551 10.934993591308583,-12.959999389648416 11.084997000000001,-12.959999389648416 11.084997000000001,-13.20999999999998 11.10212721929669,-13.318155948031205 11.15184105196876,-13.415724838302339 11.229272161697637,-13.493155948031216 11.32684105196877,-13.542869780703285 11.434996999999996,-13.559999999999974 13.134996999999984,-13.559999999999974 13.24315294803121,-13.542869780703285 13.340721838302343,-13.493155948031216 13.41815294803122,-13.415724838302339 13.46786678070329,-13.318155948031205 13.484996999999979,-13.20999999999998 13.484996999999979,-11.509999999999991 13.46786678070329,-11.401844051968766 13.41815294803122,-11.304275161697632 13.340721838302343,-11.226844051968754 13.24315294803121,-11.177130219296686 13.134996999999984,-11.159999999999997 11.434996999999996,-11.159999999999997 11.32684105196877,-11.177130219296686 11.229272161697637,-11.226844051968754 11.15184105196876,-11.304275161697618 11.10212721929669,-11.401844051968752 11.084997000000001,-11.509999999999991 11.084997000000001,-11.661481908931123 11.084989013671859,-11.66147392260298 11.084989013671859,-9.397799453861822 11.145476278440597,-9.45828671863056 11.135825888363499,-9.486397344577739 11.089770543809038,-9.762391893401727 11.089770543809038,-9.877608106598231 11.135825888363499,-10.153602655422219 11.173236531632185,-10.26257613638694 11.306411754090789,-10.50866239334917 11.377179016944055,-10.599584174521794 11.583042515526927,-10.789094875258726 11.679497666967379,-10.852112170852394 11.935740937301759,-10.964510890377682 12.047431565015003,-10.992794798600755 12.32628667273616,-11.015901391607983 12.441109364150748,-11.006386912134403 12.712358031454286,-10.937697420735532 12.817869966297849,-10.891415595048656 13.052118191224707,-10.738373591464025 13.1368855141706,-10.660339773513527 13.308748866814241,-10.439529733522875 13.363585723120735,-10.338200098303119 13.454440142487528,-10.073550215960239 13.473404107892293,-9.95990540173861 13.473404107892293,-9.680094598261348 13.454440142487528,-9.566449784039719 13.363585723120735,-9.301799901696839 13.308748866814241,-9.200470266477083 13.1368855141706,-8.97966022648643 13.052118191224721,-8.901626408535932 12.817869966297877,-8.748584404951302 12.7123580314543,-8.702302579264412 12.441109364150748,-8.633613087865541 12.32628667273616,-8.624098608391975 12.047431565015003,-8.647205201399203 11.935740937301759,-8.675489109622276 11.923619115321415,-8.680806233725193 11.905034738843042,-8.66222185724682 11.897137748354567,-8.647994206331674 11.87402004966421,-8.614780102293452 11.843400410348124,-8.576749131584606 11.833067242840812,-8.5656051710978 11.823906019343937,-8.556091611873114 11.047807020676899,-7.779999084472635 11.204312277104279,-7.779999084472635 11.306411754090789,-7.968662393349177 11.377179016944055,-8.059584174521802 11.583042515526927,-8.249094875258734 11.679497666967379,-8.312112170852402 11.935740937301759,-8.42451089037769 12.047431565015003,-8.452794798600763 12.32628667273616,-8.47590139160799 12.441109364150748,-8.46638691213441 12.712358031454286,-8.39769742073554 12.817869966297849,-8.351415595048664 13.052118191224707,-8.198373591464033 13.1368855141706,-8.120339773513535 13.308748866814241,-7.899529733522883 13.363585723120735,-7.798200098303127 13.454440142487528,-7.533550215960247 13.473404107892293,-7.4199054017386175 13.473404107892293,-7.140094598261356 13.454440142487528,-7.026449784039727 13.363585723120735,-6.761799901696847 13.308748866814241,-6.660470266477091 13.1368855141706,-6.439660226486438 13.052118191224721,-6.36162640853594 12.817869966297877,-6.20858440495131 12.7123580314543,-6.16230257926442 12.441109364150748,-6.093613087865549 12.32628667273616,-6.084098608391983 12.047431565015003,-6.107205201399211 11.935740937301759,-6.135489109622284 11.884999694824202,-6.157746282168347 11.884999694824202,-5.862253717831621 11.935740937301759,-5.884510890377683 12.047431565015003,-5.912794798600757 12.32628667273616,-5.935901391607985 12.441109364150748,-5.926386912134404 12.712358031454286,-5.8576974207355335 12.817869966297849,-5.811415595048658 13.052118191224707,-5.658373591464027 13.1368855141706,-5.580339773513529 13.308748866814241,-5.359529733522876 13.363585723120735,-5.258200098303121 13.454440142487528,-4.993550215960241 13.473404107892293,-4.879905401738611 13.473404107892293,-4.60009459826135 13.454440142487528,-4.486449784039721 13.363585723120735,-4.221799901696841 13.308748866814241,-4.120470266477085 13.1368855141706,-3.899660226486432 13.052118191224721,-3.821626408535934 12.817869966297877,-3.6685844049513037 12.7123580314543,-3.6223025792644137 12.441109364150748,-3.5536130878655428 12.408482920091316,-3.550909583632418 12.603195541489356,-3.3561981506513945 12.60678419102031,-3.3512588268467027 12.6142724345016,-3.342536067263154 12.712358031454286,-3.3176974207355556 12.817869966297849,-3.2714155950486656 13.052118191224707,-3.118373591464035 13.1368855141706,-3.040339773513537 13.308748866814241,-2.8195297335228844 13.363585723120735,-2.7182000983031287 13.454440142487528,-2.4535502159602487 13.473404107892293,-2.339905401738619 13.473404107892293,-2.060094598261358 13.454440142487528,-1.9464497840397286 13.363585723120735,-1.6817999016968486 13.308748866814241,-1.5804702664770929 13.1368855141706,-1.3596602264864401 13.052118191224721,-1.2816264085359421 12.817869966297877,-1.1285844049513116 12.7123580314543,-1.0823025792644216 12.441109364150748,-1.0136130878655507 12.32628667273616,-1.0040986083919847 12.047431565015003,-1.0272052013992123 11.935740937301759,-1.055489109622286 11.679497666967379,-1.167887829147574 11.583042515526927,-1.2309051247412413 11.377179016944055,-1.4204158254781731 11.306411754090789,-1.5113376066507982 11.173236531632185,-1.7574238636130275 11.135825888363499,-1.8663973445777486 11.089770543809038,-2.1423918934017365 11.089770543809038,-2.2576081065982407 11.135825888363499,-2.5336026554222286 11.173236531632185,-2.6425761363869498 11.306411754090789,-2.888662393349179 11.377179016944055,-2.979584174521804 11.548920961714074,-3.137683772184033 10.716788589369997,-3.9698110656571686 10.701105114298372,-3.991397392517314 10.698867520098673,-3.9894764809045142 10.687342748972071,-4.002901232389149 10.646886776263827,-4.061025914456181 10.637067339222526,-4.078717150454338 10.609139915133113,-4.14379574429951 10.603082702169885,-4.163101477801973 10.588827178722724,-4.2324696581471954 10.58678017284798,-4.25259951015606 10.586780172847426,-4.288023428043687 10.584985961914057,-4.288023428043687 10.584985961914057,-5.812917404048292 10.41792564379439,-5.979977722167959 4.656369094975119,-5.979977722167959 3.9399999999999835,-5.2636086271928235 3.9399999999999835,-2.4400012207031097 3.9394884582180794,-2.4367714730027927 3.9394884582180794,-2.4298843885043624 3.9323239376564487,-2.359429906473281 3.9282509309572617,-2.3396104263746906 3.9070506855859577,-2.272040359116062 3.899071421560407,-2.2534464751602883 3.8647033919158815,-2.1915271491668165 3.8531445425707034,-2.174920097147705 3.822524903254788,-2.13688912643903 3.817358319501139,-2.1313171461956273 3.808198127809817,-2.121804618772188 3.5682002640402857,-1.881806755002657 3.560954547384654,-1.8765424337064616 3.5615125519040873,-1.8759554132854106 3.5523526820407483,-1.867248307709744 3.496351663978686,-1.823900293116722 3.479180480879691,-1.8131974128534125 3.415599915760893,-1.7820096567250516 3.3999999999999773,-1.776232082351214 3.3999999999999773,-1.3499999999999943 3.382869780703288,-1.2418440519687692 3.3331559480312194,-1.1442751616976352 3.255724838302342,-1.0668440519687579 3.158155948031208,-1.0171302192966891 3.049999999999983,-1.0 1.3499999999999943,-1.0 1.2418440519687692,-1.0171302192966891 1.1442751616976352,-1.0668440519687579 1.0668440519687579,-1.144275161697621 1.0171302192966891,-1.241844051968755 1.0,-1.3499999999999943 1.0,-3.049999999999983 1.0171302192966891,-3.158155948031208 1.0668440519687579,-3.255724838302342 1.1442751616976352,-3.3331559480312194 1.2418440519687692,-3.382869780703288 1.3499999999999943,-3.3999999999999773 3.040002579599687,-3.3999999999999773 3.0400023283939674,-3.888718221657385 2.967121191224706,-3.821626408535934 2.7328729662978475,-3.6685844049513037 2.627361031454285,-3.622302579264428 2.3561123641507464,-3.553613087865557 2.2412896727361584,-3.5440986083919768 1.962434565015002,-3.5672052013992044 1.8507439373017576,-3.595489109622278 1.5945006669673774,-3.707887829147566 1.4980455155269254,-3.7709051247412333 1.2921820169440537,-3.960415825478165 1.2214147540907874,-4.05133760665079 1.0882395316321833,-4.2974238636130195 1.0508288883634975,-4.406397344577741 1.004773543809037,-4.682391893401729 1.004773543809037,-4.797608106598233 1.0508288883634975,-5.073602655422221 1.0882395316321833,-5.182576136386942 1.2214147540907874,-5.428662393349171 1.2921820169440537,-5.519584174521796 1.4980455155269254,-5.709094875258728 1.5945006669673774,-5.772112170852395 1.8507439373017576,-5.884510890377683 1.962434565015002,-5.912794798600757 2.2412896727361584,-5.935901391607985 2.3561123641507464,-5.926386912134404 2.627361031454285,-5.8576974207355335 2.6648577430164977,-5.841249838090718 3.6036005108092155,-6.779996032714834 3.284835462789488,-6.779996032714834 3.278588723120734,-6.761799901696833 3.22375186681424,-6.660470266477091 3.0518885141705994,-6.439660226486438 2.967121191224706,-6.36162640853594 2.7328729662978475,-6.20858440495131 2.627361031454285,-6.162302579264434 2.3561123641507464,-6.093613087865563 2.2412896727361584,-6.084098608391983 1.962434565015002,-6.107205201399211 1.8507439373017576,-6.135489109622284 1.5945006669673774,-6.247887829147572 1.4980455155269254,-6.3109051247412395 1.2921820169440537,-6.500415825478171 1.2214147540907874,-6.5913376066507965 1.0882395316321833,-6.837423863613026 1.0508288883634975,-6.946397344577747 1.004773543809037,-7.222391893401735 1.004773543809037,-7.337608106598239 1.0508288883634975,-7.613602655422227 1.0882395316321833,-7.722576136386948 1.2214147540907874,-7.968662393349177 1.2921820169440537,-8.059584174521802 1.4980455155269254,-8.249094875258734 1.5945006669673774,-8.312112170852402 1.8507439373017576,-8.42451089037769 1.962434565015002,-8.452794798600763 2.2412896727361584,-8.47590139160799 2.3561123641507464,-8.46638691213441 2.627361031454285,-8.39769742073554 2.7328729662978475,-8.351415595048664 2.967121191224706,-8.198373591464033 3.0518885141705994,-8.120339773513535 3.22375186681424,-7.899529733522883 3.278588723120734,-7.798200098303141 3.284837139061139,-7.779999084472635 3.462188339106902,-7.779999084472635 2.5575606910839355,-8.684626732495602 2.3561123641507464,-8.633613087865555 2.2412896727361584,-8.624098608391975 1.962434565015002,-8.647205201399203 1.8507439373017576,-8.675489109622276 1.5945006669673774,-8.787887829147564 1.4980455155269254,-8.850905124741232 1.2921820169440537,-9.040415825478163 1.2214147540907874,-9.131337606650789 1.0882395316321833,-9.377423863613018 1.0508288883634975,-9.486397344577739 1.004773543809037,-9.762391893401727 1.004773543809037,-9.877608106598231 1.0508288883634975,-10.153602655422219 1.0882395316321833,-10.26257613638694 1.2214147540907874,-10.50866239334917 1.2921820169440537,-10.599584174521794 1.4980455155269254,-10.789094875258726 1.5945006669673774,-10.852112170852394 1.8507439373017576,-10.964510890377682 1.962434565015002,-10.992794798600755 2.2412896727361584,-11.015901391607983 2.3561123641507464,-11.006386912134403 2.627361031454285,-10.937697420735532 2.7328729662978475,-10.891415595048656 2.967121191224706,-10.738373591464025 3.0424572095798226,-10.669021901011433 2.501140029930255,-11.210339080661" opacity="0.8" />
	</svg>
	