
	<svg xmlns="http://www.w3.org/2000/svg">
	<polygon points="-0.5,0 -0.5,-20 -0.7,-20 -0.25,-22 0.2,-20, 0,-20 0,0" style="fill:green; stroke-opacity:0"/>
	<polygon points="0,0.5 20,0.5 20,0.7 22,0.25 20,-0.2 20,0 0,0" style="fill:red; stroke-opacity:0"/>
	<polygon points="0,0 0,0.5 -0.5,0.5 -0.5,0" style="fill:black; stroke-opacity:0"/>
	<path fill-rule="evenodd" fill="#66cc99" stroke="#000000" stroke-width="0.05" opacity="1.0" d="M 11.381052344554462,-2.375994548823982 L 11.334997000000001,-2.0999999999999943 L 11.381052344554462,-1.8240054511760064 L 11.514227567013066,-1.5779191942137771 L 11.720091065595938,-1.3884084934768453 L 11.976334335930318,-1.2760097739515572 L 12.255189443651474,-1.2529031809443296 L 12.526438110955027,-1.3215926723432005 L 12.760686335881871,-1.474634675927831 L 12.932549688525512,-1.6954447159184838 L 13.023404107892304,-1.9600945982613638 L 13.023404107892304,-2.239905401738625 L 12.932549688525512,-2.504555284081505 L 12.760686335881871,-2.7253653240721576 L 12.526438110955013,-2.878407327656788 L 12.284486627163403,-2.9396777645959276 L 12.284486627163403,-2.948117625655769 L 12.280413620464216,-2.967937105754359 L 12.272434356438666,-2.9865309897101326 L 12.260875507093488,-3.003138041729244 L 12.255370162942313,-3.008371261575121 L 12.255708923339839,-3.0087100219726466 L 11.034982910156245,-4.2294285845269 L 11.034982910156245,-5.899312133789053 L 11.03447136837434,-5.899312133789053 L 11.03447136837434,-5.9094289659878 L 11.030398361675154,-5.92924844608639 L 11.022419097649603,-5.947842330042164 L 11.010860248304425,-5.964449382061275 L 11.00535490415325,-5.969682601907152 L 11.005693664550776,-5.970021362304678 L 10.575029602050776,-6.400685424804678 L 10.57469084165325,-6.400346664407152 L 10.565530971789912,-6.409053769982819 L 10.548359788690917,-6.4197566502461285 L 10.529385626761027,-6.426783908175679 L 10.509385290419019,-6.429847847006158 L 10.504320373535151,-6.42959098349327 L 10.504320373535151,-6.429974670410147 L 4.355676879882807,-6.429974670410147 L 4.355676879882807,-6.42959098349327 L 4.340534102132352,-6.428823028721865 L 4.32094635459832,-6.423751409503765 L 4.30278047885011,-6.4148406220385255 L 4.286780187975239,-6.402455475011962 L 4.273600535762085,-6.3871030177985375 L 4.263781098720784,-6.36941178180038 L 4.26185610950705,-6.363276397592983 L 3.319292297363276,-5.420712585449209 L 3.3194499528847814,-5.420554929927704 L 3.307925181758179,-5.407130178443069 L 3.298105744716878,-5.389438942444912 L 3.2920485317536503,-5.370133208942448 L 3.290001525878907,-5.350003356933584 L 3.2900030517578074,-5.349988351741445 L 3.2900030517578074,-2.3814212036132716 L 3.1085836791992136,-2.200001831054678 L 2.9499999999999886,-2.200001831054678 L 2.9499999999999886,-2.9499999999999886 L 1.25,-2.9499999999999886 L 1.25,-1.25 L 2.9499999999999886,-1.25 L 2.9499999999999886,-2.0000048828124903 L 3.15000366210937,-2.0000048828124903 L 3.15000366210937,-2.000388569729367 L 3.1550685789932373,-2.0001317062164787 L 3.1750689153352454,-2.003195645046958 L 3.1940430772651354,-2.0102229029765084 L 3.2112142603641303,-2.020925783239818 L 3.2203741302274693,-2.0296328888154846 L 3.220712890624995,-2.029294128417959 L 3.460710754394526,-2.2692919921874903 L 3.4603719939970006,-2.269630752585016 L 3.465877338148175,-2.274863972430893 L 3.4774361874933533,-2.2914710244500043 L 3.4854154515189038,-2.310064908405778 L 3.4894884582180907,-2.329884388504368 L 3.4894884582180907,-2.3400012207031153 L 3.489999999999995,-2.3400012207031153 L 3.489999999999995,-5.308583374023428 L 4.411394348144526,-6.229977722167959 L 10.462900390624995,-6.229977722167959 L 10.834985961914057,-5.857892150878897 L 10.834985961914057,-4.188023428043692 L 10.834984436035157,-4.188008422851553 L 10.8370314419099,-4.167878570842689 L 10.843088654873128,-4.148572837340225 L 10.85290809191443,-4.130881601342068 L 10.864432863041031,-4.117456849857433 L 10.864275207519526,-4.117299194335928 L 12.05137349887373,-2.9302081483662477 L 11.976334335930318,-2.9239902260484314 L 11.720091065595938,-2.8115915065231434 L 11.514227567013066,-2.6220808057862115 L 11.381052344554462,-2.375994548823982 z" /><path fill-rule="evenodd" fill="#66cc99" stroke="#000000" stroke-width="0.05" opacity="1.0" d="M 11.381052344554462,-4.915994548823974 L 11.334997000000001,-4.639999999999986 L 11.381052344554462,-4.3640054511759985 L 11.514227567013066,-4.117919194213769 L 11.720091065595938,-3.9284084934768373 L 11.976334335930318,-3.8160097739515493 L 12.255189443651474,-3.7929031809443217 L 12.526438110955027,-3.8615926723431926 L 12.760686335881871,-4.014634675927823 L 12.932549688525512,-4.235444715918476 L 13.023404107892304,-4.500094598261356 L 13.023404107892304,-4.779905401738617 L 12.932549688525512,-5.044555284081497 L 12.760686335881871,-5.26536532407215 L 12.526438110955013,-5.41840732765678 L 12.255189443651474,-5.487096819055651 L 11.976334335930318,-5.463990226048423 L 11.720091065595938,-5.351591506523135 L 11.665282982622017,-5.301137111829874 L 11.434999694824214,-5.531422466598514 L 11.434999694824214,-6.064999694824209 L 11.43448815304231,-6.064999694824209 L 11.43448815304231,-6.075116527022956 L 11.430415146343123,-6.094936007121547 L 11.422435882317572,-6.11352989107732 L 11.410877032972394,-6.130136943096431 L 11.40537168882122,-6.1353701629423085 L 11.405710449218745,-6.135708923339834 L 10.806431278447846,-6.734988094110733 L 10.805415146343123,-6.739932650187953 L 10.797435882317572,-6.758526534143726 L 10.785877032972394,-6.775133586162838 L 10.780387259410332,-6.780352005060095 L 10.780725708007807,-6.780690307617178 L 10.760736694335932,-6.800686950683584 L 10.760398245738457,-6.800348648126501 L 10.751222805286005,-6.809070554650788 L 10.73405162218701,-6.819773434914097 L 10.71507746025712,-6.826800692843648 L 10.695077123915112,-6.829864631674127 L 10.690012207031245,-6.829607768161239 L 10.690012207031245,-6.829991455078115 L 4.189989318847651,-6.829991455078115 L 4.189989318847651,-6.829607768161239 L 4.174846541097196,-6.828839813389834 L 4.1552587935631635,-6.823768194171734 L 4.137092917814954,-6.814857406706494 L 4.121092626940083,-6.802472259679931 L 4.119437745853531,-6.800544553951141 L 4.119280090332026,-6.800702209472647 L 2.6202010099234343,-5.301617656754232 L 2.4414411109550116,-5.41840732765678 L 2.170192443651473,-5.487096819055651 L 1.8913373359303165,-5.463990226048423 L 1.6350940655959363,-5.351591506523135 L 1.4292305670130645,-5.1620808057862035 L 1.2960553445544605,-4.915994548823974 L 1.25,-4.639999999999986 L 1.2960553445544605,-4.3640054511759985 L 1.4292305670130645,-4.117919194213769 L 1.6350940655959363,-3.9284084934768373 L 1.8913373359303165,-3.8160097739515493 L 2.170192443651473,-3.7929031809443217 L 2.4414411109550116,-3.8615926723431926 L 2.67568933588187,-4.014634675927823 L 2.8475526885255107,-4.235444715918476 L 2.938407107892303,-4.500094598261356 L 2.938407107892303,-4.779905401738617 L 2.8475526885255107,-5.044555284081497 L 2.759327405556334,-5.157907129957579 L 4.231409408676271,-6.629994506835928 L 10.630395873153518,-6.629994506835928 L 10.639449647709,-6.619448121830089 L 10.639291992187495,-6.619290466308584 L 11.235002746582026,-6.023579711914053 L 11.235002746582026,-5.490017751774161 L 11.235001220703126,-5.490002746582022 L 11.237048226577869,-5.469872894573157 L 11.243105439541097,-5.450567161070694 L 11.252924876582398,-5.432875925072537 L 11.264449647709,-5.419451173587902 L 11.264291992187495,-5.419293518066397 L 11.518015442277672,-5.1655677906117745 L 11.514227567013066,-5.1620808057862035 L 11.381052344554462,-4.915994548823974 z" /><path fill-rule="evenodd" fill="#66cc99" stroke="#000000" stroke-width="0.05" opacity="1.0" d="M 11.381052344554462,-7.4559945488239805 L 11.360027420157493,-7.329999084472647 L 2.9349419422328538,-7.329999084472647 L 2.8475526885255107,-7.584555284081503 L 2.67568933588187,-7.805365324072156 L 2.4414411109550116,-7.958407327656786 L 2.170192443651473,-8.027096819055657 L 1.8913373359303165,-8.00399022604843 L 1.6350940655959363,-7.891591506523142 L 1.4292305670130645,-7.70208080578621 L 1.2960553445544605,-7.4559945488239805 L 1.25,-7.179999999999993 L 1.2960553445544605,-6.904005451176005 L 1.4292305670130645,-6.657919194213775 L 1.6350940655959363,-6.4684084934768435 L 1.8913373359303165,-6.3560097739515555 L 2.170192443651473,-6.332903180944328 L 2.4414411109550116,-6.401592672343199 L 2.67568933588187,-6.554634675927829 L 2.8475526885255107,-6.775444715918482 L 2.9349402659612025,-7.029996032714834 L 11.360028234954783,-7.029996032714834 L 11.381052344554462,-6.904005451176005 L 11.514227567013066,-6.657919194213775 L 11.720091065595938,-6.4684084934768435 L 11.976334335930318,-6.3560097739515555 L 12.255189443651474,-6.332903180944328 L 12.526438110955027,-6.401592672343199 L 12.760686335881871,-6.554634675927829 L 12.932549688525512,-6.775444715918482 L 13.023404107892304,-7.040094598261362 L 13.023404107892304,-7.319905401738623 L 12.932549688525512,-7.584555284081503 L 12.760686335881871,-7.805365324072156 L 12.526438110955013,-7.958407327656786 L 12.255189443651474,-8.027096819055657 L 11.976334335930318,-8.00399022604843 L 11.720091065595938,-7.891591506523142 L 11.514227567013066,-7.70208080578621 L 11.381052344554462,-7.4559945488239805 z" /><path fill-rule="evenodd" fill="#66cc99" stroke="#000000" stroke-width="0.05" opacity="1.0" d="M 11.381052344554462,-9.995994548823973 L 11.334997000000001,-9.719999999999985 L 11.381052344554462,-9.444005451175997 L 11.467123743341162,-9.284959436700532 L 11.19358276367187,-9.01141845703124 L 11.193898074714866,-9.011103145988244 L 11.170848532461662,-8.984253643018945 L 11.151209658379074,-8.94887117102266 L 11.14900276999137,-8.941837309188614 L 10.337168457193087,-8.13000976562499 L 3.972826232910151,-8.13000976562499 L 2.821221541284075,-9.281614457251067 L 2.8475526885255107,-9.315444715918474 L 2.938407107892303,-9.580094598261354 L 2.938407107892303,-9.859905401738615 L 2.8475526885255107,-10.124555284081495 L 2.67568933588187,-10.345365324072148 L 2.4414411109550116,-10.498407327656778 L 2.170192443651473,-10.56709681905565 L 1.8913373359303165,-10.543990226048422 L 1.6350940655959363,-10.431591506523134 L 1.4292305670130645,-10.242080805786202 L 1.2960553445544605,-9.995994548823973 L 1.25,-9.719999999999985 L 1.2960553445544605,-9.444005451175997 L 1.4292305670130645,-9.197919194213767 L 1.6350940655959363,-9.008408493476836 L 1.8913373359303165,-8.896009773951548 L 2.170192443651473,-8.87290318094432 L 2.4414411109550116,-8.94159267234319 L 2.534663966668603,-9.002498203741538 L 3.7485678100585886,-7.788594360351553 L 3.748883121101585,-7.788909671394549 L 3.7521928832747022,-7.7850542599369845 L 3.784193465024444,-7.760283965883858 L 3.8205252165208776,-7.742462390953392 L 3.8597007115889284,-7.732319152517178 L 3.8899862670898386,-7.730783242974354 L 3.8899862670898386,-7.730015869140615 L 10.420007934570307,-7.730015869140615 L 10.420007934570307,-7.730783242974354 L 10.430137768338057,-7.730269515948592 L 10.470138441022058,-7.736397393609565 L 10.508086764881838,-7.7504519094686515 L 10.542429131079842,-7.771857669995256 L 10.560748870806535,-7.7892718811465755 L 10.561426391601557,-7.788594360351553 L 11.47641967773437,-8.703580017089834 L 11.475742156939347,-8.704257537884857 L 11.486752845241682,-8.71472397757664 L 11.509870543932038,-8.747938081614862 L 11.520465587516782,-8.772627452751152 L 11.745222819080809,-8.997384684315179 L 11.976334335930318,-8.896009773951548 L 12.255189443651474,-8.87290318094432 L 12.526438110955027,-8.94159267234319 L 12.760686335881871,-9.094634675927821 L 12.932549688525512,-9.315444715918474 L 13.023404107892304,-9.580094598261354 L 13.023404107892304,-9.859905401738615 L 12.932549688525512,-10.124555284081495 L 12.760686335881871,-10.345365324072148 L 12.526438110955013,-10.498407327656778 L 12.255189443651474,-10.56709681905565 L 11.976334335930318,-10.543990226048422 L 11.720091065595938,-10.431591506523134 L 11.514227567013066,-10.242080805786202 L 11.381052344554462,-9.995994548823973 z" /><path fill-rule="evenodd" fill="#66cc99" stroke="#000000" stroke-width="0.05" opacity="1.0" d="M 13.03499699999999,-11.409999999999997 L 13.03499699999999,-13.109999999999985 L 11.334997000000001,-13.109999999999985 L 11.334997000000001,-12.509999389648428 L 10.834993591308589,-12.509999389648428 L 10.834993591308589,-12.509036357658985 L 10.797136646932444,-12.507116470730452 L 10.748167278097384,-12.494437422685195 L 10.702752588726852,-12.472160454022116 L 10.662751861539661,-12.4411975864557 L 10.658614658823268,-12.436378322133748 L 10.658220520019526,-12.43677246093749 L 10.208215942382807,-11.986767883300772 L 10.20861008118655,-11.98637374449703 L 10.179798153370058,-11.952811865785407 L 10.15524956076682,-11.908583775790035 L 10.140106528358743,-11.86031944203387 L 10.13498901367187,-11.809994812011709 L 10.13498901367187,-9.342059554317132 L 9.932930525864904,-9.139996643066397 L 4.523515930175776,-9.139996643066397 L 4.523515930175776,-10.086484069824209 L 4.522233261023743,-10.086484069824209 L 4.522233261023743,-10.111776150321063 L 4.512050744275783,-10.161324850567553 L 4.492102584211921,-10.20780956045698 L 4.463205460848968,-10.249327190504758 L 4.449442100471046,-10.262410240119479 L 4.450289001464839,-10.263257141113272 L 2.850248575674044,-11.863297566904066 L 2.938407107892303,-12.12009459826136 L 2.938407107892303,-12.399905401738621 L 2.8475526885255107,-12.664555284081501 L 2.67568933588187,-12.885365324072154 L 2.4414411109550116,-13.038407327656785 L 2.170192443651473,-13.107096819055656 L 1.8913373359303165,-13.083990226048428 L 1.6350940655959363,-12.97159150652314 L 1.4292305670130645,-12.782080805786208 L 1.2960553445544605,-12.535994548823979 L 1.25,-12.259999999999991 L 1.2960553445544605,-11.984005451176003 L 1.4292305670130645,-11.737919194213774 L 1.6350940655959363,-11.548408493476842 L 1.8913373359303165,-11.436009773951554 L 2.170192443651473,-11.412903180944326 L 2.4414411109550116,-11.481592672343197 L 2.4918968231010012,-11.514557034320859 L 4.023515930175776,-9.982937927246084 L 4.023515930175776,-8.889996643066397 L 4.028633444862649,-8.839672013044236 L 4.043776477270725,-8.79140767928807 L 4.068325069873964,-8.7471795892927 L 4.1012742004068485,-8.70879844625911 L 4.14127492759404,-8.677835578692708 L 4.186689616964571,-8.65555861002963 L 4.235658985799631,-8.642879561984373 L 4.273515930175776,-8.64095967505584 L 4.273515930175776,-8.639996643066397 L 10.036485900878901,-8.639996643066397 L 10.036485900878901,-8.64095967505584 L 10.049148193088584,-8.64031751627364 L 10.099149033943576,-8.647977363349852 L 10.146584438768315,-8.665545508173707 L 10.189512396515823,-8.692302708831974 L 10.212415963718286,-8.71407417291023 L 10.213266601562495,-8.713223571777334 L 10.561769714355464,-9.061734313964834 L 10.560919076511254,-9.06258491509773 L 10.574678544345062,-9.075664264573348 L 10.603575667708014,-9.117181894621126 L 10.623523827771876,-9.163666604510553 L 10.633706344519837,-9.213215304757043 L 10.633706344519837,-9.238507385253897 L 10.63498901367187,-9.238507385253897 L 10.63498901367187,-11.706448669433584 L 10.938539733886714,-12.009999389648428 L 11.334997000000001,-12.009999389648428 L 11.334997000000001,-11.409999999999997 L 13.03499699999999,-11.409999999999997 z" /><path fill-rule="evenodd" fill="#000000" stroke="#000000" stroke-width="0.05" opacity="1.0" d="M 11.583420000000004,-12.359999999999985 L 11.593662807996083,-12.259274246518018 L 11.623971890221483,-12.162672217218386 L 11.67310638928872,-12.074148810530858 L 11.739054733032916,-11.997328185126278 L 11.819116988512604,-11.935355386434765 L 11.910015397581518,-11.890767588116233 L 12.008028568692268,-11.86539021987268 L 12.109143831103523,-11.860262234141729 L 12.209221514091624,-11.875593571261717 L 12.304164425556422,-11.910756564489574 L 12.390085591547205,-11.964311636751106 L 12.463467389433035,-12.034066237095445 L 12.521305559786441,-12.117164603988684 L 12.561232201117463,-12.210204680526573 L 12.581612712038847,-12.30937739504391 L 12.581612712038847,-12.41062260495606 L 12.561232201117463,-12.509795319473398 L 12.521305559786441,-12.602835396011287 L 12.463467389433035,-12.685933762904526 L 12.390085591547205,-12.755688363248865 L 12.304164425556422,-12.809243435510396 L 12.209221514091624,-12.844406428738253 L 12.109143831103523,-12.859737765858242 L 12.008028568692268,-12.85460978012729 L 11.910015397581518,-12.829232411883737 L 11.819116988512604,-12.784644613565206 L 11.739054733032916,-12.722671814873692 L 11.67310638928872,-12.645851189469113 L 11.623971890221483,-12.557327782781584 L 11.593662807996083,-12.460725753481952 L 11.583420000000004,-12.359999999999985 z" /><path fill-rule="evenodd" fill="#000000" stroke="#000000" stroke-width="0.05" opacity="1.0" d="M 11.583420000000004,-9.819999999999993 L 11.593662807996083,-9.719274246518026 L 11.623971890221483,-9.622672217218394 L 11.67310638928872,-9.534148810530866 L 11.739054733032916,-9.457328185126286 L 11.819116988512604,-9.395355386434773 L 11.910015397581518,-9.350767588116241 L 12.008028568692268,-9.325390219872688 L 12.109143831103523,-9.320262234141737 L 12.209221514091624,-9.335593571261725 L 12.304164425556422,-9.370756564489582 L 12.390085591547205,-9.424311636751113 L 12.463467389433035,-9.494066237095453 L 12.521305559786441,-9.577164603988692 L 12.561232201117463,-9.67020468052658 L 12.581612712038847,-9.769377395043918 L 12.581612712038847,-9.870622604956068 L 12.561232201117463,-9.969795319473405 L 12.521305559786441,-10.062835396011295 L 12.463467389433035,-10.145933762904534 L 12.390085591547205,-10.215688363248873 L 12.304164425556422,-10.269243435510404 L 12.209221514091624,-10.304406428738261 L 12.109143831103523,-10.31973776585825 L 12.008028568692268,-10.314609780127299 L 11.910015397581518,-10.289232411883745 L 11.819116988512604,-10.244644613565214 L 11.739054733032916,-10.1826718148737 L 11.67310638928872,-10.10585118946912 L 11.623971890221483,-10.017327782781592 L 11.593662807996083,-9.92072575348196 L 11.583420000000004,-9.819999999999993 z" /><path fill-rule="evenodd" fill="#000000" stroke="#000000" stroke-width="0.05" opacity="1.0" d="M 11.583420000000004,-7.279999999999987 L 11.593662807996083,-7.17927424651802 L 11.623971890221483,-7.082672217218388 L 11.67310638928872,-6.994148810530859 L 11.739054733032916,-6.91732818512628 L 11.819116988512604,-6.855355386434766 L 11.910015397581518,-6.810767588116235 L 12.008028568692268,-6.785390219872681 L 12.109143831103523,-6.7802622341417305 L 12.209221514091624,-6.795593571261719 L 12.304164425556422,-6.830756564489576 L 12.390085591547205,-6.884311636751107 L 12.463467389433035,-6.9540662370954465 L 12.521305559786441,-7.0371646039886855 L 12.561232201117463,-7.130204680526575 L 12.581612712038847,-7.229377395043912 L 12.581612712038847,-7.330622604956062 L 12.561232201117463,-7.429795319473399 L 12.521305559786441,-7.522835396011288 L 12.463467389433035,-7.605933762904527 L 12.390085591547205,-7.675688363248867 L 12.304164425556422,-7.729243435510398 L 12.209221514091624,-7.764406428738255 L 12.109143831103523,-7.779737765858243 L 12.008028568692268,-7.774609780127292 L 11.910015397581518,-7.749232411883739 L 11.819116988512604,-7.704644613565208 L 11.739054733032916,-7.642671814873694 L 11.67310638928872,-7.5658511894691145 L 11.623971890221483,-7.477327782781586 L 11.593662807996083,-7.380725753481954 L 11.583420000000004,-7.279999999999987 z" /><path fill-rule="evenodd" fill="#000000" stroke="#000000" stroke-width="0.05" opacity="1.0" d="M 11.583420000000004,-4.739999999999981 L 11.593662807996083,-4.6392742465180135 L 11.623971890221483,-4.5426722172183815 L 11.67310638928872,-4.454148810530853 L 11.739054733032916,-4.377328185126274 L 11.819116988512604,-4.31535538643476 L 11.910015397581518,-4.270767588116229 L 12.008028568692268,-4.245390219872675 L 12.109143831103523,-4.240262234141724 L 12.209221514091624,-4.255593571261713 L 12.304164425556422,-4.29075656448957 L 12.390085591547205,-4.344311636751101 L 12.463467389433035,-4.41406623709544 L 12.521305559786441,-4.497164603988679 L 12.561232201117463,-4.590204680526568 L 12.581612712038847,-4.6893773950439055 L 12.581612712038847,-4.790622604956056 L 12.561232201117463,-4.889795319473393 L 12.521305559786441,-4.982835396011282 L 12.463467389433035,-5.065933762904521 L 12.390085591547205,-5.13568836324886 L 12.304164425556422,-5.189243435510392 L 12.209221514091624,-5.224406428738249 L 12.109143831103523,-5.239737765858237 L 12.008028568692268,-5.234609780127286 L 11.910015397581518,-5.2092324118837325 L 11.819116988512604,-5.164644613565201 L 11.739054733032916,-5.102671814873688 L 11.67310638928872,-5.025851189469108 L 11.623971890221483,-4.93732778278158 L 11.593662807996083,-4.840725753481948 L 11.583420000000004,-4.739999999999981 z" /><path fill-rule="evenodd" fill="#000000" stroke="#000000" stroke-width="0.05" opacity="1.0" d="M 11.583420000000004,-2.1999999999999886 L 11.593662807996083,-2.0992742465180214 L 11.623971890221483,-2.0026722172183895 L 11.67310638928872,-1.914148810530861 L 11.739054733032916,-1.8373281851262817 L 11.819116988512604,-1.775355386434768 L 11.910015397581518,-1.7307675881162368 L 12.008028568692268,-1.7053902198726831 L 12.109143831103523,-1.7002622341417322 L 12.209221514091624,-1.7155935712617207 L 12.304164425556422,-1.7507565644895777 L 12.390085591547205,-1.804311636751109 L 12.463467389433035,-1.8740662370954482 L 12.521305559786441,-1.9571646039886872 L 12.561232201117463,-2.0502046805265763 L 12.581612712038847,-2.1493773950439135 L 12.581612712038847,-2.250622604956064 L 12.561232201117463,-2.349795319473401 L 12.521305559786441,-2.44283539601129 L 12.463467389433035,-2.525933762904529 L 12.390085591547205,-2.5956883632488683 L 12.304164425556422,-2.6492434355103995 L 12.209221514091624,-2.6844064287382565 L 12.109143831103523,-2.699737765858245 L 12.008028568692268,-2.694609780127294 L 11.910015397581518,-2.6692324118837405 L 11.819116988512604,-2.6246446135652093 L 11.739054733032916,-2.5626718148736956 L 11.67310638928872,-2.485851189469116 L 11.623971890221483,-2.3973277827815878 L 11.593662807996083,-2.300725753481956 L 11.583420000000004,-2.1999999999999886 z" /><path fill-rule="evenodd" fill="#000000" stroke="#000000" stroke-width="0.05" opacity="1.0" d="M 1.4996200000000073,-12.359999999999985 L 1.509862807996086,-12.259274246518018 L 1.5401718902214867,-12.162672217218386 L 1.5893063892887227,-12.074148810530858 L 1.655254733032919,-11.997328185126278 L 1.7353169885126078,-11.935355386434765 L 1.826215397581521,-11.890767588116233 L 1.9242285686922713,-11.86539021987268 L 2.025343831103527,-11.860262234141729 L 2.1254215140916273,-11.875593571261717 L 2.2203644255564257,-11.910756564489574 L 2.3062855915472085,-11.964311636751106 L 2.3796673894330382,-12.034066237095445 L 2.4375055597864446,-12.117164603988684 L 2.477432201117466,-12.210204680526573 L 2.4978127120388507,-12.30937739504391 L 2.4978127120388507,-12.41062260495606 L 2.477432201117466,-12.509795319473398 L 2.4375055597864446,-12.602835396011287 L 2.3796673894330382,-12.685933762904526 L 2.3062855915472085,-12.755688363248865 L 2.2203644255564257,-12.809243435510396 L 2.1254215140916273,-12.844406428738253 L 2.025343831103527,-12.859737765858242 L 1.9242285686922713,-12.85460978012729 L 1.826215397581521,-12.829232411883737 L 1.7353169885126078,-12.784644613565206 L 1.655254733032919,-12.722671814873692 L 1.5893063892887227,-12.645851189469113 L 1.5401718902214867,-12.557327782781584 L 1.509862807996086,-12.460725753481952 L 1.4996200000000073,-12.359999999999985 z" /><path fill-rule="evenodd" fill="#000000" stroke="#000000" stroke-width="0.05" opacity="1.0" d="M 1.4996200000000073,-9.819999999999993 L 1.509862807996086,-9.719274246518026 L 1.5401718902214867,-9.622672217218394 L 1.5893063892887227,-9.534148810530866 L 1.655254733032919,-9.457328185126286 L 1.7353169885126078,-9.395355386434773 L 1.826215397581521,-9.350767588116241 L 1.9242285686922713,-9.325390219872688 L 2.025343831103527,-9.320262234141737 L 2.1254215140916273,-9.335593571261725 L 2.2203644255564257,-9.370756564489582 L 2.3062855915472085,-9.424311636751113 L 2.3796673894330382,-9.494066237095453 L 2.4375055597864446,-9.577164603988692 L 2.477432201117466,-9.67020468052658 L 2.4978127120388507,-9.769377395043918 L 2.4978127120388507,-9.870622604956068 L 2.477432201117466,-9.969795319473405 L 2.4375055597864446,-10.062835396011295 L 2.3796673894330382,-10.145933762904534 L 2.3062855915472085,-10.215688363248873 L 2.2203644255564257,-10.269243435510404 L 2.1254215140916273,-10.304406428738261 L 2.025343831103527,-10.31973776585825 L 1.9242285686922713,-10.314609780127299 L 1.826215397581521,-10.289232411883745 L 1.7353169885126078,-10.244644613565214 L 1.655254733032919,-10.1826718148737 L 1.5893063892887227,-10.10585118946912 L 1.5401718902214867,-10.017327782781592 L 1.509862807996086,-9.92072575348196 L 1.4996200000000073,-9.819999999999993 z" /><path fill-rule="evenodd" fill="#000000" stroke="#000000" stroke-width="0.05" opacity="1.0" d="M 1.4996200000000073,-7.279999999999987 L 1.509862807996086,-7.17927424651802 L 1.5401718902214867,-7.082672217218388 L 1.5893063892887227,-6.994148810530859 L 1.655254733032919,-6.91732818512628 L 1.7353169885126078,-6.855355386434766 L 1.826215397581521,-6.810767588116235 L 1.9242285686922713,-6.785390219872681 L 2.025343831103527,-6.7802622341417305 L 2.1254215140916273,-6.795593571261719 L 2.2203644255564257,-6.830756564489576 L 2.3062855915472085,-6.884311636751107 L 2.3796673894330382,-6.9540662370954465 L 2.4375055597864446,-7.0371646039886855 L 2.477432201117466,-7.130204680526575 L 2.4978127120388507,-7.229377395043912 L 2.4978127120388507,-7.330622604956062 L 2.477432201117466,-7.429795319473399 L 2.4375055597864446,-7.522835396011288 L 2.3796673894330382,-7.605933762904527 L 2.3062855915472085,-7.675688363248867 L 2.2203644255564257,-7.729243435510398 L 2.1254215140916273,-7.764406428738255 L 2.025343831103527,-7.779737765858243 L 1.9242285686922713,-7.774609780127292 L 1.826215397581521,-7.749232411883739 L 1.7353169885126078,-7.704644613565208 L 1.655254733032919,-7.642671814873694 L 1.5893063892887227,-7.5658511894691145 L 1.5401718902214867,-7.477327782781586 L 1.509862807996086,-7.380725753481954 L 1.4996200000000073,-7.279999999999987 z" /><path fill-rule="evenodd" fill="#000000" stroke="#000000" stroke-width="0.05" opacity="1.0" d="M 1.4996200000000073,-4.739999999999981 L 1.509862807996086,-4.6392742465180135 L 1.5401718902214867,-4.5426722172183815 L 1.5893063892887227,-4.454148810530853 L 1.655254733032919,-4.377328185126274 L 1.7353169885126078,-4.31535538643476 L 1.826215397581521,-4.270767588116229 L 1.9242285686922713,-4.245390219872675 L 2.025343831103527,-4.240262234141724 L 2.1254215140916273,-4.255593571261713 L 2.2203644255564257,-4.29075656448957 L 2.3062855915472085,-4.344311636751101 L 2.3796673894330382,-4.41406623709544 L 2.4375055597864446,-4.497164603988679 L 2.477432201117466,-4.590204680526568 L 2.4978127120388507,-4.6893773950439055 L 2.4978127120388507,-4.790622604956056 L 2.477432201117466,-4.889795319473393 L 2.4375055597864446,-4.982835396011282 L 2.3796673894330382,-5.065933762904521 L 2.3062855915472085,-5.13568836324886 L 2.2203644255564257,-5.189243435510392 L 2.1254215140916273,-5.224406428738249 L 2.025343831103527,-5.239737765858237 L 1.9242285686922713,-5.234609780127286 L 1.826215397581521,-5.2092324118837325 L 1.7353169885126078,-5.164644613565201 L 1.655254733032919,-5.102671814873688 L 1.5893063892887227,-5.025851189469108 L 1.5401718902214867,-4.93732778278158 L 1.509862807996086,-4.840725753481948 L 1.4996200000000073,-4.739999999999981 z" /><path fill-rule="evenodd" fill="#000000" stroke="#000000" stroke-width="0.05" opacity="1.0" d="M 1.4996200000000073,-2.1999999999999886 L 1.509862807996086,-2.0992742465180214 L 1.5401718902214867,-2.0026722172183895 L 1.5893063892887227,-1.914148810530861 L 1.655254733032919,-1.8373281851262817 L 1.7353169885126078,-1.775355386434768 L 1.826215397581521,-1.7307675881162368 L 1.9242285686922713,-1.7053902198726831 L 2.025343831103527,-1.7002622341417322 L 2.1254215140916273,-1.7155935712617207 L 2.2203644255564257,-1.7507565644895777 L 2.3062855915472085,-1.804311636751109 L 2.3796673894330382,-1.8740662370954482 L 2.4375055597864446,-1.9571646039886872 L 2.477432201117466,-2.0502046805265763 L 2.4978127120388507,-2.1493773950439135 L 2.4978127120388507,-2.250622604956064 L 2.477432201117466,-2.349795319473401 L 2.4375055597864446,-2.44283539601129 L 2.3796673894330382,-2.525933762904529 L 2.3062855915472085,-2.5956883632488683 L 2.2203644255564257,-2.6492434355103995 L 2.1254215140916273,-2.6844064287382565 L 2.025343831103527,-2.699737765858245 L 1.9242285686922713,-2.694609780127294 L 1.826215397581521,-2.6692324118837405 L 1.7353169885126078,-2.6246446135652093 L 1.655254733032919,-2.5626718148736956 L 1.5893063892887227,-2.485851189469116 L 1.5401718902214867,-2.3973277827815878 L 1.509862807996086,-2.300725753481956 L 1.4996200000000073,-2.1999999999999886 z" /><polyline fill="none" stroke="#000000" stroke-width="0.05" points="2.475992293458262,-11.389040207726282 2.4659896596690913,-11.38465264574927 2.1947409923655528,-11.3159631543504 2.161934509104242,-11.313244731643664 1.8830794013830854,-11.336351324650892 1.8511677934650237,-11.344432441286045 1.5949245231306435,-11.456831160811333 1.5673659084333593,-11.474836102409526 1.3615024098504875,-11.664346803146458 1.3412831918924155,-11.690324454910069 1.2081079694338115,-11.936410711872298 1.197419214214193,-11.967545992147933 1.1513638696597326,-12.243540540971921 1.1513638696597326,-12.276459459028061 1.197419214214193,-12.552454007852049 1.2081079694338115,-12.583589288127683 1.3412831918924155,-12.829675545089913 1.3615024098504875,-12.855653196853524 1.5673659084333593,-13.045163897590456 1.5949245231306435,-13.063168839188648 1.8511677934650237,-13.175567558713936 1.8830794013830854,-13.18364867534909 2.161934509104242,-13.206755268356318 2.1947409923655528,-13.204036845649583 2.4659896596690913,-13.135347354250712 2.496135926767252,-13.122123975483035 2.7303841516941105,-12.969081971898405 2.7546033868215147,-12.946786595341123 2.9264667394651553,-12.72597655535047 2.94213441269558,-12.697025231001973 3.0329888320623724,-12.432375348659093 3.038407107892297,-12.399905401738621 3.038407107892297,-12.12009459826136 3.0329888320623724,-12.087624651340889 2.9650990440323,-11.889868454783127 4.520999679583497,-10.33396781923193 4.524775209435958,-10.328771248202813 4.532102152756551,-10.321806469227653 4.54528180496969,-10.306454012014257 4.574178928332643,-10.264936381966479 4.583998365373944,-10.247245145968307 4.603946525437806,-10.20076043607888 4.6100037384010335,-10.181454702576417 4.620186255148994,-10.131906002329927 4.622233261023737,-10.111776150321063 4.622233261023737,-10.094582524125684 4.6235159301757704,-10.086484069824209 4.6235159301757704,-9.239996643066391 9.8915085284343,-9.239996643066391 10.034989013671876,-9.383480269364085 10.034989013671876,-11.809994812011709 10.03550208133268,-11.820111644210442 10.040619596019553,-11.870436274232603 10.04469260271874,-11.890255754331221 10.059835635126817,-11.938520088087387 10.067814899152353,-11.957113972043146 10.092363491755592,-12.001342062038518 10.10311071004196,-12.016991582486256 10.13152849905471,-12.05094760000162 10.13750526426415,-12.05747856141943 10.587509841900868,-12.507483139056149 10.589946317009918,-12.509253341841301 10.6015412632849,-12.520275160149467 10.641541990472092,-12.551238027715883 10.658713173571087,-12.561940907979192 10.704127862941618,-12.58421787664227 10.723102024871508,-12.591245134571821 10.772071393706568,-12.603924182617078 10.789543335509904,-12.606827762075213 10.82740027988605,-12.609710680993189 10.834993591308589,-12.609999389648422 11.234997000000007,-12.609999389648422 11.234997000000007,-13.109999999999985 11.239891348370492,-13.140901699437478 11.254095300562511,-13.168778525229229 11.276218474770758,-13.190901699437475 11.304095300562508,-13.205105651629495 11.334997000000001,-13.20999999999998 13.03499699999999,-13.20999999999998 13.065898699437483,-13.205105651629495 13.093775525229233,-13.190901699437475 13.11589869943748,-13.168778525229229 13.1301026516295,-13.140901699437478 13.134996999999984,-13.109999999999985 13.134996999999984,-11.409999999999997 13.1301026516295,-11.379098300562504 13.11589869943748,-11.351221474770753 13.093775525229233,-11.329098300562507 13.065898699437483,-11.314894348370487 13.03499699999999,-11.310000000000002 11.334997000000001,-11.310000000000002 11.304095300562508,-11.314894348370487 11.276218474770758,-11.329098300562507 11.254095300562511,-11.351221474770753 11.239891348370492,-11.379098300562504 11.234997000000007,-11.409999999999997 11.234997000000007,-11.909999389648434 10.979961090124036,-11.909999389648434 10.734989013671864,-11.665027313196262 10.734989013671864,-9.238507385253897 10.733706344519831,-9.230408930952422 10.733706344519831,-9.213215304757043 10.731659338645088,-9.193085452748178 10.721476821897127,-9.143536752501689 10.7154196089339,-9.124231018999225 10.695471448870038,-9.077746309109799 10.685652011828736,-9.060055073111627 10.656754888465784,-9.018537443063849 10.643575236252616,-9.003184985850424 10.636273328565224,-8.996244005019207 10.632481166456884,-8.991024409837408 10.283978053663915,-8.642513667649908 10.276769106466958,-8.637275928655612 10.25840908842342,-8.619823430109093 10.24240879754852,-8.607438283082502 10.199480839801012,-8.580681082424235 10.181314964052774,-8.571770294958995 10.133879559228035,-8.55420215013514 10.11429181169403,-8.54913053091704 10.06429097083904,-8.541470683840828 10.051681464519959,-8.540349608743995 10.039019172310276,-8.540028735536751 10.036485900878901,-8.539996643066402 4.273515930175776,-8.539996643066402 4.265765244157592,-8.541224231133526 4.2305940689157495,-8.543007911267267 4.210593732573756,-8.546071850097746 4.161624363738696,-8.558750898143003 4.142650201808806,-8.565778156072554 4.097235512438274,-8.588055124735632 4.080064329339294,-8.598758004998928 4.040063602152102,-8.62972087256533 4.025398388137546,-8.643661197986916 3.9924492576046617,-8.682042341020505 3.980890408259498,-8.698649393039588 3.956341815656259,-8.74287748303496 3.948362551630723,-8.761471366990719 3.9332195192226465,-8.809735700746884 3.9291465125234595,-8.829555180845503 3.9240289978365865,-8.879879810867664 3.923515930175782,-8.889996643066397 3.923515930175782,-9.941516571008762 2.475992293458262,-11.389040207726282" opacity="0.8" /><polyline fill="none" stroke="#000000" stroke-width="0.05" points="2.94702801352868,-9.297229341243778 4.014247589147473,-8.230009765624985 10.295747345176721,-8.230009765624985 11.064560421379383,-8.998816431312548 11.08341387084721,-9.032783839272057 11.094161089133578,-9.048433359719795 11.116895320343787,-9.07559817373209 11.122872085553212,-9.082129135149899 11.34368673888578,-9.302943788482466 11.293104969433813,-9.396410711872292 11.282416214214194,-9.427545992147927 11.236360869659734,-9.703540540971915 11.236360869659734,-9.736459459028055 11.282416214214194,-10.012454007852043 11.293104969433813,-10.043589288127677 11.426280191892417,-10.289675545089906 11.446499409850489,-10.315653196853518 11.65236290843336,-10.50516389759045 11.679921523130645,-10.523168839188642 11.936164793465025,-10.63556755871393 11.968076401383087,-10.643648675349084 12.246931509104243,-10.666755268356312 12.279737992365554,-10.664036845649576 12.550986659669093,-10.595347354250706 12.581132926767253,-10.582123975483029 12.815381151694112,-10.429081971898398 12.839600386821516,-10.406786595341117 13.011463739465157,-10.185976555350464 13.027131412695582,-10.157025231001967 13.117985832062374,-9.892375348659087 13.123404107892298,-9.859905401738615 13.123404107892298,-9.580094598261354 13.117985832062374,-9.547624651340882 13.027131412695582,-9.282974768998002 13.011463739465157,-9.254023444649505 12.839600386821516,-9.033213404658852 12.815381151694112,-9.010918028101571 12.581132926767268,-8.85787602451694 12.550986659669107,-8.844652645749264 12.279737992365554,-8.775963154350393 12.246931509104243,-8.773244731643658 11.968076401383087,-8.796351324650885 11.936164793465025,-8.804432441286039 11.767621760863847,-8.8783622698609 11.60477648186469,-8.715516990861744 11.601766325094076,-8.708502496103549 11.59194688805276,-8.690811260105377 11.568829189362404,-8.657597156067155 11.560080720986377,-8.646731164436062 11.549747553479065,-8.635587203949257 11.54713006105139,-8.632869044170775 10.632136774918578,-7.717883387432494 10.626435460482753,-7.71374117271408 10.611325822987396,-7.699378391272333 10.59532553211254,-7.686993244245784 10.560983165914536,-7.665587483719179 10.542817290166312,-7.656676696253939 10.504868966306532,-7.642622180394852 10.485281218772528,-7.637550561176752 10.445280546088526,-7.63142268351578 10.432640941986676,-7.6303008502493554 10.422511108218927,-7.630047203441379 10.420007934570307,-7.630015869140621 3.8899862670898386,-7.630015869140621 3.8840527801840494,-7.630955641143373 3.854635794705061,-7.632447501800073 3.8346354583630387,-7.635511440630566 3.795459963294988,-7.64565467906678 3.7764858013651263,-7.652681936996316 3.7401540498686927,-7.670503511926782 3.7229828667696694,-7.6812063921900915 3.6909822850199276,-7.705976686243218 3.6823256858913282,-7.713510044728537 3.6787006126752146,-7.717050145143105 3.6778571319399305,-7.717883682232895 2.5213751694340374,-8.874365644738788 2.496135926767252,-8.85787602451694 2.4659896596690913,-8.844652645749264 2.1947409923655528,-8.775963154350393 2.161934509104242,-8.773244731643658 1.8830794013830854,-8.796351324650885 1.8511677934650237,-8.804432441286039 1.5949245231306435,-8.916831160811327 1.5673659084333593,-8.93483610240952 1.3615024098504875,-9.124346803146452 1.3412831918924155,-9.150324454910063 1.2081079694338115,-9.396410711872292 1.197419214214193,-9.427545992147927 1.1513638696597326,-9.703540540971915 1.1513638696597326,-9.736459459028055 1.197419214214193,-10.012454007852043 1.2081079694338115,-10.043589288127677 1.3412831918924155,-10.289675545089906 1.3615024098504875,-10.315653196853518 1.5673659084333593,-10.50516389759045 1.5949245231306435,-10.523168839188642 1.8511677934650237,-10.63556755871393 1.8830794013830854,-10.643648675349084 2.161934509104242,-10.666755268356312 2.1947409923655528,-10.664036845649576 2.4659896596690913,-10.595347354250706 2.496135926767252,-10.582123975483029 2.7303841516941105,-10.429081971898398 2.7546033868215147,-10.406786595341117 2.9264667394651553,-10.185976555350464 2.94213441269558,-10.157025231001967 3.0329888320623724,-9.892375348659087 3.038407107892297,-9.859905401738615 3.038407107892297,-9.580094598261354 3.0329888320623724,-9.547624651340882 2.94702801352868,-9.297229341243778" opacity="0.8" /><polyline fill="none" stroke="#000000" stroke-width="0.05" points="3.288671693703293,-1.9565840960507188 3.280110952271741,-1.9484465045169372 3.264110661396856,-1.9360613574903596 3.246939478297861,-1.92535847722705 3.228773602549637,-1.9164476897618101 3.209799440619747,-1.9094204318322596 3.190211693085672,-1.9043488126141455 3.170211356743664,-1.9012848737836663 3.157571752641857,-1.900163040517242 3.1525068357579897,-1.9000362171132537 3.15000366210937,-1.900004882812496 3.049999999999983,-1.900004882812496 3.049999999999983,-1.25 3.0451056516294983,-1.2190983005625071 3.0309016994374787,-1.1912214747707566 3.008778525229232,-1.16909830056251 2.9809016994374815,-1.1548943483704903 2.9499999999999886,-1.1500000000000057 1.25,-1.1500000000000057 1.2190983005625071,-1.1548943483704903 1.1912214747707566,-1.16909830056251 1.16909830056251,-1.1912214747707566 1.1548943483704903,-1.2190983005625071 1.1500000000000057,-1.25 1.1500000000000057,-2.9499999999999886 1.1548943483704903,-2.9809016994374815 1.16909830056251,-3.008778525229232 1.1912214747707566,-3.0309016994374787 1.2190983005625071,-3.0451056516294983 1.25,-3.049999999999983 2.9499999999999886,-3.049999999999983 2.9809016994374815,-3.0451056516294983 3.008778525229232,-3.0309016994374787 3.0309016994374787,-3.008778525229232 3.0451056516294983,-2.9809016994374815 3.049999999999983,-2.9499999999999886 3.049999999999983,-2.300001831054672 3.0671623229618916,-2.300001831054672 3.1900030304668547,-2.4228425385596353 3.1900015258789267,-5.350003305532653 3.1905145935397172,-5.360120189132289 3.1925615994144607,-5.380250041141153 3.1966346061136477,-5.4000695212398 3.2026918190768754,-5.419375254742263 3.210671083102426,-5.437969138698023 3.220490520143727,-5.45566037469618 3.231237738430096,-5.471309895143918 3.242604854035193,-5.484892302150058 3.248581619244618,-5.491423263567867 4.177900850997688,-6.420742495320937 4.186165874147633,-6.435633214051649 4.1977247234928114,-6.45224026607076 4.210904375705965,-6.467592723284184 4.225569589720465,-6.481533048705728 4.2415698805953355,-6.493918195732292 4.258741063694316,-6.504621075995587 4.276906939442526,-6.513531863460827 4.295881101372473,-6.5205591213903915 4.315468848906505,-6.5256307406084915 4.332950780411338,-6.528535080308799 4.348093558161793,-6.529686721997081 4.355676879882807,-6.529974670410141 10.504320373535151,-6.529974670410141 10.50669032115347,-6.5295993075830125 10.524528068169445,-6.528694679438971 10.544528404511453,-6.5256307406084915 10.564116152045528,-6.520559121390377 10.583090313975418,-6.513531863460827 10.601256189723642,-6.504621075995587 10.618427372822637,-6.493918195732277 10.631636268745822,-6.484087693739809 10.641134899006687,-6.475719348561668 10.645740280169434,-6.471396102923336 11.076404342669434,-6.040732040423336 11.077852163369911,-6.038739286187109 11.079756940211894,-6.036928660784284 11.092936592425147,-6.02157620357076 11.104495441770325,-6.004969151551649 11.114314878811626,-5.987277915553506 11.122294142837177,-5.968684031597732 11.128351355800405,-5.949378298095269 11.132424362499592,-5.9295588179966785 11.13434377992732,-5.914478858124511 11.134855321709225,-5.904362025925764 11.13498291015624,-5.899312133789053 11.13498291015624,-4.270850119530522 12.326419385668274,-3.07942091588086 12.327867258447668,-3.0774281014742826 12.329772199000956,-3.0756173204522526 12.34295185121421,-3.0602648632387286 12.354510700559388,-3.0436578112196173 12.364330137600689,-3.0259665752214744 12.36594366847578,-3.0222066036558743 12.550986659669093,-2.975347354250715 12.581132926767253,-2.9621239754830384 12.815381151694112,-2.809081971898408 12.839600386821516,-2.786786595341127 13.011463739465157,-2.565976555350474 13.027131412695582,-2.5370252310019765 13.117985832062374,-2.2723753486590965 13.123404107892298,-2.239905401738625 13.123404107892298,-1.9600945982613638 13.117985832062374,-1.9276246513408921 13.027131412695582,-1.662974768998012 13.011463739465157,-1.6340234446495145 12.839600386821516,-1.4132134046588618 12.815381151694112,-1.3909180281015807 12.581132926767268,-1.2378760245169502 12.550986659669107,-1.2246526457492735 12.279737992365554,-1.1559631543504025 12.246931509104243,-1.1532447316436674 11.968076401383087,-1.176351324650895 11.936164793465025,-1.1844324412860487 11.679921523130645,-1.2968311608113368 11.65236290843336,-1.3148361024095294 11.446499409850489,-1.5043468031464613 11.426280191892417,-1.5303244549100725 11.293104969433813,-1.7764107118723018 11.282416214214194,-1.8075459921479364 11.236360869659734,-2.0835405409719243 11.236360869659734,-2.1164594590280643 11.282416214214194,-2.392454007852052 11.293104969433813,-2.423589288127687 11.426280191892417,-2.669675545089916 11.446499409850489,-2.6956531968535273 11.65236290843336,-2.885163897590459 11.679921523130645,-2.903168839188652 11.858610468385265,-2.9815490776774 10.793564745191091,-4.046588300427715 10.78907662088649,-4.052765637898247 10.788557050771786,-4.052319601585168 10.777032279645184,-4.065744353069803 10.765473430299977,-4.082351405088957 10.755653993258676,-4.100042641087114 10.747674729233125,-4.118636525042874 10.741617516269898,-4.137942258545337 10.73754450957071,-4.157761738643984 10.735497503695967,-4.177891590652848 10.735497503695811,-4.188023428043692 10.734985961914063,-4.188023428043692 10.734985961914063,-5.816470794641575 10.421479034387673,-6.129977722167965 4.452815704381848,-6.129977722167965 3.589999999999989,-5.267162017786106 3.589999999999989,-2.3400012207031153 3.589488458218085,-2.3367714730027984 3.589488458218085,-2.329884388504368 3.5874414523433416,-2.3097545364954897 3.5833684456441546,-2.2899350563968994 3.577311232680927,-2.270629322894436 3.5693319686553764,-2.2520354389386625 3.559512531614075,-2.2343442029405196 3.547953682268897,-2.2177371509214083 3.5392052138929273,-2.2068711592903583 3.5340386301392783,-2.2012991790469556 3.5314214325131843,-2.198581314068832 3.291423568743653,-1.958583450299301 3.288671693703293,-1.9565840960507188" opacity="0.8" /><polyline fill="none" stroke="#000000" stroke-width="0.05" points="4.051321160543921,-6.873412121393201 4.059882028685308,-6.881549833373697 4.075882319560179,-6.89393498040026 4.09305350265916,-6.904637860663556 4.11121937840737,-6.9135486481287955 4.1301935403373164,-6.92057590605836 4.149781287871349,-6.92564752527646 4.167263219376181,-6.928551864976768 4.1824059971266365,-6.929703506665049 4.189989318847651,-6.92999145507811 10.690012207031245,-6.92999145507811 10.692382154649565,-6.929616092250981 10.710219901665539,-6.928711464106939 10.730220238007547,-6.92564752527646 10.749807985541622,-6.920575906058346 10.768782147471512,-6.9135486481287955 10.786948023219736,-6.904637860663556 10.804119206318731,-6.893934980400246 10.817336163453234,-6.884097375667352 10.826850052503161,-6.875713771700148 10.83146086299665,-6.871384135685901 10.851449876668525,-6.851387492619494 10.852892458031377,-6.849401142373424 10.85477372487992,-6.8476128648857895 10.867953377093116,-6.832260407672322 10.879512226438294,-6.815653355653211 10.889331663479595,-6.797962119655068 10.89267913107831,-6.790161597717585 11.476421127337403,-6.206419601458492 11.47786894803788,-6.2044268472222655 11.479773724879863,-6.20261622181944 11.492953377093116,-6.187263764605916 11.504512226438294,-6.170656712586805 11.514331663479595,-6.152965476588662 11.522310927505146,-6.134371592632888 11.528368140468373,-6.115065859130425 11.53244114716756,-6.095246379031835 11.53436056459529,-6.080166419159667 11.534872106377193,-6.07004958696092 11.534999694824208,-6.064999694824209 11.534999694824208,-5.572843559942925 11.670698741527374,-5.437143295235728 11.679921523130645,-5.443168839188644 11.936164793465025,-5.555567558713932 11.968076401383087,-5.563648675349086 12.246931509104243,-5.586755268356313 12.279737992365554,-5.584036845649578 12.550986659669093,-5.515347354250707 12.581132926767253,-5.5021239754830304 12.815381151694112,-5.3490819718984 12.839600386821516,-5.326786595341119 13.011463739465157,-5.105976555350466 13.027131412695582,-5.077025231001969 13.117985832062374,-4.812375348659089 13.123404107892298,-4.779905401738617 13.123404107892298,-4.500094598261356 13.117985832062374,-4.467624651340884 13.027131412695582,-4.202974768998004 13.011463739465157,-4.174023444649507 12.839600386821516,-3.953213404658854 12.815381151694112,-3.9309180281015728 12.581132926767268,-3.7778760245169423 12.550986659669107,-3.7646526457492655 12.279737992365554,-3.6959631543503946 12.246931509104243,-3.6932447316436594 11.968076401383087,-3.716351324650887 11.936164793465025,-3.724432441286041 11.679921523130645,-3.836831160811329 11.65236290843336,-3.8548361024095215 11.446499409850489,-4.044346803146453 11.426280191892417,-4.070324454910065 11.293104969433813,-4.316410711872294 11.282416214214194,-4.3475459921479285 11.236360869659734,-4.623540540971916 11.236360869659734,-4.656459459028056 11.282416214214194,-4.932454007852044 11.293104969433813,-4.963589288127679 11.393345252827558,-5.1488171081515475 11.193580996729423,-5.348583157288573 11.18909335520847,-5.354759918408092 11.188573835439755,-5.354313925315637 11.177049064313152,-5.367738676800272 11.165490214967946,-5.384345728819426 11.155670777926645,-5.402036964817583 11.147691513901094,-5.420630848773342 11.141634300937866,-5.439936582275806 11.13756129423868,-5.459756062374453 11.135514288363936,-5.479885914383317 11.13551428836378,-5.490017751774161 11.135002746582032,-5.490017751774161 11.135002746582032,-5.982158355676731 10.58716659542283,-6.5299945068359335 4.272830871832568,-6.5299945068359335 2.8924818045328635,-5.1496404006441026 2.926466739465141,-5.105976555350466 2.94213441269558,-5.077025231001969 3.0329888320623724,-4.812375348659089 3.038407107892297,-4.779905401738617 3.038407107892297,-4.500094598261356 3.0329888320623724,-4.467624651340884 2.94213441269558,-4.202974768998004 2.9264667394651553,-4.174023444649507 2.7546033868215147,-3.953213404658854 2.7303841516941105,-3.9309180281015728 2.496135926767252,-3.7778760245169423 2.4659896596690913,-3.7646526457492655 2.1947409923655528,-3.6959631543503946 2.161934509104242,-3.6932447316436594 1.8830794013830854,-3.716351324650887 1.8511677934650237,-3.724432441286041 1.5949245231306435,-3.836831160811329 1.5673659084333593,-3.8548361024095215 1.3615024098504875,-4.044346803146453 1.3412831918924155,-4.070324454910065 1.2081079694338115,-4.316410711872294 1.197419214214193,-4.3475459921479285 1.1513638696597326,-4.623540540971916 1.1513638696597326,-4.656459459028056 1.197419214214193,-4.932454007852044 1.2081079694338115,-4.963589288127679 1.3412831918924155,-5.209675545089908 1.3615024098504875,-5.235653196853519 1.5673659084333593,-5.425163897590451 1.5949245231306435,-5.443168839188644 1.8511677934650237,-5.555567558713932 1.8830794013830854,-5.563648675349086 2.161934509104242,-5.586755268356313 2.1947409923655528,-5.584036845649578 2.4659896596690913,-5.515347354250707 2.496135926767252,-5.5021239754830304 2.60691208590535,-5.4297502985888 4.048569283150911,-6.8714127585286064 4.051321160543921,-6.873412121393201" opacity="0.8" /><polyline fill="none" stroke="#000000" stroke-width="0.05" points="11.293104969433813,-7.503589288127685 11.426280191892417,-7.749675545089914 11.446499409850489,-7.775653196853526 11.65236290843336,-7.9651638975904575 11.679921523130645,-7.98316883918865 11.936164793465025,-8.095567558713938 11.968076401383087,-8.103648675349092 12.246931509104243,-8.12675526835632 12.279737992365554,-8.124036845649584 12.550986659669093,-8.055347354250713 12.581132926767253,-8.042123975483037 12.815381151694112,-7.889081971898406 12.839600386821516,-7.866786595341125 13.011463739465157,-7.645976555350472 13.027131412695582,-7.617025231001975 13.117985832062374,-7.352375348659095 13.123404107892298,-7.319905401738623 13.123404107892298,-7.040094598261362 13.117985832062374,-7.00762465134089 13.027131412695582,-6.74297476899801 13.011463739465157,-6.714023444649513 12.839600386821516,-6.49321340465886 12.815381151694112,-6.470918028101579 12.581132926767268,-6.3178760245169485 12.550986659669107,-6.304652645749272 12.279737992365554,-6.235963154350401 12.246931509104243,-6.233244731643666 11.968076401383087,-6.256351324650893 11.936164793465025,-6.264432441286047 11.679921523130645,-6.376831160811335 11.65236290843336,-6.394836102409528 11.446499409850489,-6.58434680314646 11.426280191892417,-6.610324454910071 11.293104969433813,-6.8564107118723 11.282416214214194,-6.8875459921479205 11.275332555305013,-6.92999603271484 3.0063388936264346,-6.92999603271484 2.94213441269558,-6.74297476899801 2.9264667394651553,-6.714023444649513 2.7546033868215147,-6.49321340465886 2.7303841516941105,-6.470918028101579 2.496135926767252,-6.3178760245169485 2.4659896596690913,-6.304652645749272 2.1947409923655528,-6.235963154350401 2.161934509104242,-6.233244731643666 1.8830794013830854,-6.256351324650893 1.8511677934650237,-6.264432441286047 1.5949245231306435,-6.376831160811335 1.5673659084333593,-6.394836102409528 1.3615024098504875,-6.58434680314646 1.3412831918924155,-6.610324454910071 1.2081079694338115,-6.8564107118723 1.197419214214193,-6.887545992147935 1.1513638696597326,-7.163540540971923 1.1513638696597326,-7.196459459028063 1.197419214214193,-7.4724540078520505 1.2081079694338115,-7.503589288127685 1.3412831918924155,-7.749675545089914 1.3615024098504875,-7.775653196853526 1.5673659084333593,-7.9651638975904575 1.5949245231306435,-7.98316883918865 1.8511677934650237,-8.095567558713938 1.8830794013830854,-8.103648675349092 2.161934509104242,-8.12675526835632 2.1947409923655528,-8.124036845649584 2.4659896596690913,-8.055347354250713 2.496135926767252,-8.042123975483037 2.7303841516941105,-7.889081971898406 2.7546033868215147,-7.866786595341125 2.9264667394651553,-7.645976555350472 2.94213441269558,-7.617025231001975 3.006340569898086,-7.429999084472641 11.275331740507724,-7.429999084472641 11.282416214214194,-7.4724540078520505 11.293104969433813,-7.503589288127685" opacity="0.8" /><polyline fill="none" stroke="#000000" stroke-width="0.05" points="2.4316728600765742,-11.22122760675201 2.2315638154366724,-11.170553114459494 2.1495476072833952,-11.163757057692663 1.8706924995622387,-11.186863650699891 1.7909134797670703,-11.207066442287797 1.53467020943269,-11.319465161813085 1.4657736726894939,-11.36447751580856 1.259910174106622,-11.553988216545491 1.209362129211442,-11.618932345954505 1.076186906752838,-11.865018602916734 1.0494650187037848,-11.942856803605821 1.0034096741493244,-12.218851352429809 1.0034096741493244,-12.301148647570173 1.0494650187037848,-12.577143196394161 1.076186906752838,-12.654981397083247 1.209362129211442,-12.901067654045477 1.259910174106622,-12.96601178345449 1.4657736726894939,-13.155522484191422 1.53467020943269,-13.200534838186897 1.7909134797670703,-13.312933557712185 1.8706924995622387,-13.33313634930009 2.1495476072833952,-13.356242942307318 2.2315638154366724,-13.349446885540488 2.502812482740211,-13.280757394141617 2.5781781504856127,-13.247698947222418 2.812426375412471,-13.094656943637787 2.8729744632309746,-13.03891850224457 3.044837815874615,-12.818108462253917 3.08400699895067,-12.745730151382674 3.1748614183174624,-12.481080269039794 3.188407107892303,-12.399905401738621 3.188407107892303,-12.12009459826136 3.1748614183174624,-12.038919730960188 3.1373747465696766,-11.92972478660171 4.627065696761477,-10.44003383640991 4.630685248512634,-10.4350519508194 4.635447190617938,-10.430525387311988 4.668396321150766,-10.392144244278484 4.697293444513718,-10.350626614230706 4.721842037116986,-10.306398524235291 4.741790197180848,-10.259913814345865 4.75693322958891,-10.2116494805897 4.76711574633687,-10.16210078034321 4.771912387816499,-10.124438442530817 4.773195056968532,-10.099146362033963 4.773515930175776,-10.086484069824209 4.773515930175776,-9.389996643066397 9.829375532288438,-9.389996643066397 9.88498901367187,-9.44561134193448 9.88498901367187,-11.809994812011709 9.886271682823889,-11.835286892508549 9.891389197510762,-11.88561152253071 9.90157171425875,-11.935160222777256 9.916714746666827,-11.983424556533421 9.936662906730675,-12.029909266422806 9.961211499333913,-12.074137356418177 9.988079545049828,-12.113261157537508 10.016497334062578,-12.147217175052873 10.031439247086169,-12.16354457859741 10.481443824722888,-12.613549156234129 10.488323512323547,-12.618547541855392 10.509725365902739,-12.638891520690123 10.54972609308993,-12.669854388256539 10.592654050837453,-12.696611588914806 10.638068740207984,-12.718888557577884 10.68550414503271,-12.736456702401753 10.73447351386777,-12.74913575044701 10.77815336837611,-12.756394699092368 10.816010312752255,-12.759277618010344 10.834993591308589,-12.759999389648428 11.084997000000001,-12.759999389648428 11.084997000000001,-13.109999999999985 11.09723287092622,-13.187254248593717 11.13274275140627,-13.256946313073101 11.188050686926886,-13.312254248593717 11.25774275140627,-13.34776412907378 11.334997000000001,-13.359999999999985 13.03499699999999,-13.359999999999985 13.112251248593722,-13.347764129073767 13.181943313073106,-13.312254248593717 13.237251248593722,-13.256946313073101 13.272761129073771,-13.187254248593717 13.28499699999999,-13.109999999999985 13.28499699999999,-11.409999999999997 13.272761129073771,-11.332745751406264 13.237251248593722,-11.263053686926881 13.181943313073106,-11.207745751406264 13.112251248593722,-11.172235870926215 13.03499699999999,-11.159999999999997 11.334997000000001,-11.159999999999997 11.25774275140627,-11.172235870926201 11.188050686926886,-11.207745751406264 11.13274275140627,-11.263053686926881 11.09723287092622,-11.332745751406264 11.084997000000001,-11.409999999999997 11.084997000000001,-11.759999389648428 11.04209312447999,-11.759999389648428 10.88498901367187,-11.602895278840307 10.88498901367187,-9.238507385253897 10.883706344519837,-9.230408930952422 10.883706344519837,-9.213215304757043 10.878588829832964,-9.162890674734896 10.868406313085003,-9.113341974488407 10.853263280676941,-9.065077640732241 10.83331512061308,-9.018592930842814 10.808766528009812,-8.9743648408474 10.77986940464686,-8.932847210799622 10.75804829837287,-8.905736240669754 10.745139468383272,-8.89180629006124 10.738548344609,-8.884959553646283 10.390045231816032,-8.536448811458783 10.383133032952983,-8.531426678194066 10.361754126284822,-8.511104512024772 10.321753399097588,-8.4801416444583 10.27882544135008,-8.453384443800033 10.233410751979463,-8.431107475136912 10.185975347154724,-8.413539330313057 10.13700597831972,-8.400860282267828 10.087005137464729,-8.393200435191616 10.055481371667014,-8.39039774744954 10.042819079457331,-8.390076874242297 10.036485900878901,-8.389996643066397 4.273515930175776,-8.389996643066397 4.26088994201632,-8.39199640313457 4.260853637966079,-8.391280548263083 4.222996693589934,-8.393200435191616 4.172995852734957,-8.400860282267814 4.124026483899897,-8.413539330313071 4.076591079075172,-8.43110747513694 4.03117638970464,-8.453384443800019 3.9882484319571745,-8.480141644458243 3.948247704769983,-8.511104512024644 3.9115846697335996,-8.545955325578603 3.8786355392007152,-8.584336468612193 3.8497384158378196,-8.625854098659929 3.825189823234581,-8.6700821886553 3.805241663170733,-8.716566898544684 3.7900986307626567,-8.76483123230085 3.779916114014668,-8.814379932547396 3.774798599327795,-8.864704562569557 3.773515930175776,-8.889996643066397 3.773515930175776,-9.879384536652807 2.4316728600765742,-11.22122760675201" opacity="0.8" /><polyline fill="none" stroke="#000000" stroke-width="0.05" points="11.114976730437022,-6.779996032714834 11.221607876110554,-6.673364887041302 11.163901985820758,-6.779996032714834 11.114976730437022,-6.779996032714834" opacity="0.8" /><polyline fill="none" stroke="#000000" stroke-width="0.05" points="2.4880935212302546,-8.69551525858661 2.2315638154366724,-8.630553114459488 2.1495476072833952,-8.623757057692657 1.8706924995622387,-8.646863650699885 1.7909134797670703,-8.66706644228779 1.53467020943269,-8.779465161813079 1.4657736726894939,-8.824477515808553 1.259910174106622,-9.013988216545485 1.209362129211442,-9.078932345954499 1.076186906752838,-9.325018602916728 1.0494650187037848,-9.402856803605815 1.0034096741493244,-9.678851352429803 1.0034096741493244,-9.761148647570167 1.0494650187037848,-10.037143196394155 1.076186906752838,-10.114981397083241 1.209362129211442,-10.36106765404547 1.259910174106622,-10.426011783454484 1.4657736726894939,-10.615522484191416 1.53467020943269,-10.66053483818689 1.7909134797670703,-10.772933557712179 1.8706924995622387,-10.793136349300084 2.1495476072833952,-10.816242942307312 2.2315638154366724,-10.809446885540481 2.502812482740211,-10.74075739414161 2.5781781504856127,-10.707698947222411 2.812426375412471,-10.55465694363778 2.8729744632309746,-10.498918502244564 3.044837815874615,-10.278108462253911 3.08400699895067,-10.205730151382667 3.1748614183174624,-9.941080269039787 3.188407107892303,-9.859905401738615 3.188407107892303,-9.580094598261354 3.1748614183174624,-9.498919730960182 3.1193037160660424,-9.337085673062376 4.076379623503428,-8.38000976562499 10.233615677152187,-8.38000976562499 10.943618398973925,-9.09000656730396 10.952261878425517,-9.10557913365173 10.979129924141446,-9.144702934771075 11.001864155351655,-9.17186774878337 11.016806068375232,-9.188195152327879 11.159253270434462,-9.330642354387109 11.134462018703786,-9.402856803605815 11.088406674149326,-9.678851352429803 11.088406674149326,-9.761148647570167 11.134462018703786,-10.037143196394155 11.16118390675284,-10.114981397083241 11.294359129211443,-10.36106765404547 11.344907174106623,-10.426011783454484 11.550770672689495,-10.615522484191416 11.619667209432691,-10.66053483818689 11.875910479767072,-10.772933557712179 11.95568949956224,-10.793136349300084 12.234544607283397,-10.816242942307312 12.316560815436674,-10.809446885540481 12.587809482740212,-10.74075739414161 12.663175150485614,-10.707698947222411 12.897423375412473,-10.55465694363778 12.957971463230976,-10.498918502244564 13.129834815874617,-10.278108462253911 13.169003998950672,-10.205730151382667 13.259858418317464,-9.941080269039787 13.273404107892304,-9.859905401738615 13.273404107892304,-9.580094598261354 13.259858418317464,-9.498919730960182 13.169003998950672,-9.234269848617302 13.129834815874617,-9.161891537746058 12.957971463230976,-8.941081497755405 12.897423375412473,-8.885343056362188 12.663175150485628,-8.732301052777558 12.587809482740226,-8.699242605858359 12.316560815436674,-8.630553114459488 12.234544607283397,-8.623757057692657 11.95568949956224,-8.646863650699885 11.875910479767072,-8.66706644228779 11.801220173538383,-8.699828648179476 11.725725409369375,-8.624333884010468 11.71506140423385,-8.60512102784115 11.691943705543494,-8.571906923802928 11.670072534603435,-8.544741944725189 11.659739367096122,-8.533597984238384 11.653195636026922,-8.52680258479218 10.73820234989411,-7.611816928053898 10.732797398133997,-7.6078900317240965 10.714670860848713,-7.590659473187927 10.700898774016153,-7.579999084472647 11.16389934337478,-7.579999084472647 11.294359129211443,-7.821067654045478 11.344907174106623,-7.886011783454492 11.550770672689495,-8.075522484191424 11.619667209432691,-8.120534838186899 11.875910479767072,-8.232933557712187 11.95568949956224,-8.253136349300092 12.234544607283397,-8.27624294230732 12.316560815436674,-8.26944688554049 12.587809482740212,-8.200757394141618 12.663175150485614,-8.16769894722242 12.897423375412473,-8.014656943637789 12.957971463230976,-7.958918502244572 13.129834815874617,-7.738108462253919 13.169003998950672,-7.665730151382675 13.259858418317464,-7.401080269039795 13.273404107892304,-7.319905401738623 13.273404107892304,-7.040094598261362 13.259858418317464,-6.95891973096019 13.169003998950672,-6.69426984861731 13.129834815874617,-6.621891537746066 12.957971463230976,-6.401081497755413 12.897423375412473,-6.345343056362196 12.663175150485628,-6.192301052777566 12.587809482740226,-6.159242605858367 12.316560815436674,-6.090553114459496 12.234544607283397,-6.083757057692665 11.95568949956224,-6.106863650699893 11.875910479767072,-6.1270664422877985 11.642573878789648,-6.2294173650418685 11.652175335222609,-6.212118854855689 11.660154599248159,-6.193524970899915 11.675297631656235,-6.14526063714375 11.679370638355422,-6.1254411570451595 11.684169181924759,-6.087741257364726 11.684680723706663,-6.077624425165979 11.684999694824214,-6.064999694824209 11.684999694824214,-5.634975199959484 11.702921276195312,-5.617053457728318 11.875910479767072,-5.6929335577121805 11.95568949956224,-5.713136349300086 12.234544607283397,-5.736242942307314 12.316560815436674,-5.729446885540483 12.587809482740212,-5.660757394141612 12.663175150485614,-5.627698947222413 12.897423375412473,-5.4746569436377825 12.957971463230976,-5.418918502244566 13.129834815874617,-5.198108462253913 13.169003998950672,-5.125730151382669 13.259858418317464,-4.861080269039789 13.273404107892304,-4.779905401738617 13.273404107892304,-4.500094598261356 13.259858418317464,-4.418919730960184 13.169003998950672,-4.154269848617304 13.129834815874617,-4.08189153774606 12.957971463230976,-3.861081497755407 12.897423375412473,-3.80534305636219 12.663175150485628,-3.6523010527775597 12.587809482740226,-3.6192426058583607 12.316560815436674,-3.5505531144594897 12.234544607283397,-3.543757057692659 12.05972722152437,-3.558242839274115 12.432485079160926,-3.185487256743187 12.434445440192846,-3.1827890668455012 12.459888569320725,-3.1531513689006943 12.587809482740212,-3.12075739414162 12.663175150485614,-3.087698947222421 12.897423375412473,-2.9346569436377905 12.957971463230976,-2.8789185022445736 13.129834815874617,-2.658108462253921 13.169003998950672,-2.585730151382677 13.259858418317464,-2.321080269039797 13.273404107892304,-2.239905401738625 13.273404107892304,-1.9600945982613638 13.259858418317464,-1.8789197309601917 13.169003998950672,-1.6142698486173117 13.129834815874617,-1.5418915377460678 12.957971463230976,-1.321081497755415 12.897423375412473,-1.2653430563621981 12.663175150485628,-1.1123010527775676 12.587809482740226,-1.0792426058583686 12.316560815436674,-1.0105531144594977 12.234544607283397,-1.0037570576926669 11.95568949956224,-1.0268636506998945 11.875910479767072,-1.0470664422878002 11.619667209432691,-1.1594651618130882 11.550770672689495,-1.2044775158085628 11.344907174106623,-1.3939882165454947 11.294359129211443,-1.4589323459545085 11.16118390675284,-1.7050186029167378 11.134462018703786,-1.7828568036058243 11.088406674149326,-2.058851352429812 11.088406674149326,-2.1411486475701764 11.134462018703786,-2.4171431963941643 11.16118390675284,-2.494981397083251 11.294359129211443,-2.74106765404548 11.344907174106623,-2.806011783454494 11.550770672689495,-2.995522484191426 11.600206233730631,-3.0278203481877313 10.687499051698438,-3.9405219595653875 10.676293716933628,-3.9559446906696962 10.674743332367925,-3.954613729176785 10.663218561241322,-3.96803848066142 10.634321437878285,-4.009556110709298 10.624502000836983,-4.027247346707455 10.604553840773121,-4.073732056596867 10.598496627809894,-4.093037790099331 10.58831411106192,-4.14258649034592 10.586267105187176,-4.162716342354784 10.586267105186778,-4.188023428043692 10.584985961914057,-4.188023428043692 10.584985961914057,-5.75433876028562 10.359347000031718,-5.979977722167959 4.514947738737803,-5.979977722167959 3.739999999999995,-5.205029983430151 3.739999999999995,-2.3400012207031153 3.7394884582180907,-2.3367714730027984 3.7394884582180907,-2.329884388504368 3.7343709435312036,-2.279559758482165 3.7302979368320166,-2.2597402783835747 3.7151549044239403,-2.2114759446274093 3.7071756403983898,-2.1928820606716357 3.6826270477951653,-2.1486539706762926 3.671068198449987,-2.1320469186571813 3.6491970275100414,-2.1048819395795704 3.6440304437563924,-2.0993099593361677 3.6374874496911644,-2.092515296890852 3.397489585921633,-1.8525174331213208 3.392311244204606,-1.848755147639352 3.392615859996482,-1.848434692008297 3.383455990133143,-1.8397275864326303 3.343455262945966,-1.8087647188661862 3.326284079846971,-1.7980618386028766 3.280869390476397,-1.7757848699397556 3.261895228546507,-1.768757612010205 3.212925859711305,-1.7560785639649197 3.1999999999999886,-1.754098395091276 3.1999999999999886,-1.25 3.18776412907377,-1.1727457514062678 3.152254248593721,-1.1030536869268843 3.0969463130731043,-1.0477457514062678 3.027254248593721,-1.0122358709262187 2.9499999999999886,-1.0 1.25,-1.0 1.1727457514062678,-1.0122358709262045 1.1030536869268843,-1.0477457514062678 1.0477457514062678,-1.1030536869268843 1.0122358709262187,-1.1727457514062678 1.0,-1.25 1.0,-2.9499999999999886 1.0122358709262187,-3.027254248593721 1.0477457514062678,-3.0969463130731043 1.1030536869268843,-3.152254248593721 1.1727457514062678,-3.187764129073784 1.25,-3.1999999999999886 2.9499999999999886,-3.1999999999999886 3.027254248593721,-3.18776412907377 3.040002640628799,-3.181268498891768 3.040002180893609,-4.075678713795455 2.8729744632309746,-3.861081497755407 2.812426375412471,-3.80534305636219 2.5781781504856127,-3.6523010527775597 2.502812482740211,-3.6192426058583607 2.2315638154366724,-3.5505531144594897 2.1495476072833952,-3.543757057692659 1.8706924995622387,-3.5668636506998865 1.7909134797670703,-3.5870664422877923 1.53467020943269,-3.6994651618130803 1.4657736726894939,-3.744477515808555 1.259910174106622,-3.9339882165454867 1.209362129211442,-3.9989323459545005 1.076186906752838,-4.24501860291673 1.0494650187037848,-4.322856803605816 1.0034096741493244,-4.598851352429804 1.0034096741493244,-4.6811486475701685 1.0494650187037848,-4.957143196394156 1.076186906752838,-5.034981397083243 1.209362129211442,-5.281067654045472 1.259910174106622,-5.346011783454486 1.4657736726894939,-5.535522484191418 1.53467020943269,-5.580534838186892 1.7909134797670703,-5.6929335577121805 1.8706924995622387,-5.713136349300086 2.1495476072833952,-5.736242942307314 2.2315638154366724,-5.729446885540483 2.502812482740211,-5.660757394141612 2.5781781504856127,-5.627698947222413 2.586978699878202,-5.62194926134066 3.745021243878611,-6.779996032714834 3.1134368351242614,-6.779996032714834 3.08400699895067,-6.69426984861731 3.044837815874615,-6.621891537746066 2.8729744632309746,-6.401081497755413 2.812426375412471,-6.345343056362196 2.5781781504856127,-6.192301052777566 2.502812482740211,-6.159242605858367 2.2315638154366724,-6.090553114459496 2.1495476072833952,-6.083757057692665 1.8706924995622387,-6.106863650699893 1.7909134797670703,-6.1270664422877985 1.53467020943269,-6.2394651618130865 1.4657736726894939,-6.284477515808561 1.259910174106622,-6.473988216545493 1.209362129211442,-6.538932345954507 1.076186906752838,-6.785018602916736 1.0494650187037848,-6.862856803605823 1.0034096741493244,-7.1388513524298105 1.0034096741493244,-7.221148647570175 1.0494650187037848,-7.497143196394163 1.076186906752838,-7.574981397083249 1.209362129211442,-7.821067654045478 1.259910174106622,-7.886011783454492 1.4657736726894939,-8.075522484191424 1.53467020943269,-8.120534838186899 1.7909134797670703,-8.232933557712187 1.8706924995622387,-8.253136349300092 2.1495476072833952,-8.27624294230732 2.2315638154366724,-8.26944688554049 2.502812482740211,-8.200757394141618 2.5781781504856127,-8.16769894722242 2.812426375412471,-8.014656943637789 2.8729744632309746,-7.958918502244572 3.044837815874615,-7.738108462253919 3.08400699895067,-7.665730151382675 3.1134385113959127,-7.579999084472647 3.6086763272958393,-7.579999084472647 3.59916638763778,-7.587360325702562 3.5775248898162744,-7.606193721915858 3.5738998166001608,-7.609733822330426 3.5717911147619503,-7.6118176650549145 2.4880935212302546,-8.69551525858661" opacity="0.8" />
	</svg>
	